font.ufo
<glyph name="asterisk" format="2">
	<unicode hex="002A"/>
	<advance width="452"/>
	<outline>
		<contour>
			<point x="172" y="340" type="line"/>
			<point x="262" y="424" type="line"/>
			<point x="326" y="328" type="line"/>
			<point x="400" y="370" type="line"/>
			<point x="362" y="480" type="line"/>
			<point x="476" y="520" type="line"/>
			<point x="464" y="600" type="line"/>
			<point x="346" y="586" type="line"/>
			<point x="354" y="708" type="line"/>
			<point x="272" y="714" type="line"/>
			<point x="238" y="596" type="line"/>
			<point x="128" y="630" type="line"/>
			<point x="92" y="556" type="line"/>
			<point x="190" y="498" type="line"/>
			<point x="112" y="396" type="line"/>
		</contour>
	</outline>
</glyph>
<glyph name="slash" format="2">
	<unicode hex="002F"/>
	<advance width="324"/>
	<outline>
		<contour>
			<point x="-68" y="-160" type="line"/>
			<point x="34" y="-160" type="line"/>
			<point x="384" y="710" type="line"/>
			<point x="280" y="710" type="line"/>
		</contour>
	</outline>
</glyph>
<glyph name="one" format="2">
	<unicode hex="0031"/>
	<advance width="520"/>
	<outline>
		<contour>
			<point x="16" y="0" type="line"/>
			<point x="416" y="0" type="line"/>
			<point x="442" y="128" type="line"/>
			<point x="330" y="128" type="line"/>
			<point x="432" y="634" type="line"/>
			<point x="314" y="634" type="line"/>
			<point x="264" y="604"/>
			<point x="218" y="586"/>
			<point x="144" y="574" type="curve"/>
			<point x="124" y="474" type="line"/>
			<point x="240" y="474" type="line"/>
			<point x="170" y="128" type="line"/>
			<point x="42" y="128" type="line"/>
		</contour>
	</outline>
</glyph>
<glyph name="two" format="2">
	<unicode hex="0032"/>
	<advance width="520"/>
	<outline>
		<contour>
			<point x="-14" y="0" type="line"/>
			<point x="424" y="0" type="line"/>
			<point x="450" y="134" type="line"/>
			<point x="344" y="134" type="line" smooth="yes"/>
			<point x="316" y="134"/>
			<point x="270" y="130"/>
			<point x="238" y="126" type="curve"/>
			<point x="377" y="243"/>
			<point x="490" y="342"/>
			<point x="490" y="470" type="curve" smooth="yes"/>
			<point x="490" y="576"/>
			<point x="412" y="646"/>
			<point x="288" y="646" type="curve" smooth="yes"/>
			<point x="226" y="646"/>
			<point x="164" y="618"/>
			<point x="102" y="564" type="curve"/>
			<point x="174" y="474" type="line"/>
			<point x="208" y="500"/>
			<point x="234" y="520"/>
			<point x="268" y="520" type="curve" smooth="yes"/>
			<point x="310" y="520"/>
			<point x="334" y="494"/>
			<point x="334" y="454" type="curve" smooth="yes"/>
			<point x="334" y="352"/>
			<point x="192" y="240"/>
			<point x="6" y="100" type="curve"/>
		</contour>
	</outline>
</glyph>
<glyph name="three" format="2">
	<unicode hex="0033"/>
	<advance width="520"/>
	<outline>
		<contour>
			<point x="208" y="-12" type="curve" smooth="yes"/>
			<point x="350" y="-12"/>
			<point x="460" y="56"/>
			<point x="460" y="186" type="curve" smooth="yes"/>
			<point x="460" y="240"/>
			<point x="432" y="290"/>
			<point x="364" y="318" type="curve"/>
			<point x="364" y="322" type="line"/>
			<point x="464" y="357"/>
			<point x="496" y="410"/>
			<point x="496" y="490" type="curve" smooth="yes"/>
			<point x="496" y="584"/>
			<point x="412" y="646"/>
			<point x="294" y="646" type="curve" smooth="yes"/>
			<point x="226" y="646"/>
			<point x="164" y="632"/>
			<point x="96" y="586" type="curve"/>
			<point x="172" y="484" type="line"/>
			<point x="212" y="508"/>
			<point x="236" y="520"/>
			<point x="264" y="520" type="curve" smooth="yes"/>
			<point x="306" y="520"/>
			<point x="332" y="498"/>
			<point x="332" y="464" type="curve" smooth="yes"/>
			<point x="332" y="414"/>
			<point x="300" y="378"/>
			<point x="176" y="378" type="curve"/>
			<point x="154" y="266" type="line"/>
			<point x="272" y="266"/>
			<point x="300" y="238"/>
			<point x="300" y="188" type="curve" smooth="yes"/>
			<point x="300" y="142"/>
			<point x="264" y="116"/>
			<point x="204" y="116" type="curve" smooth="yes"/>
			<point x="166" y="116"/>
			<point x="116" y="140"/>
			<point x="82" y="186" type="curve"/>
			<point x="-18" y="104" type="line"/>
			<point x="44" y="18"/>
			<point x="132" y="-12"/>
		</contour>
	</outline>
</glyph>
<glyph name="six" format="2">
	<unicode hex="0036"/>
	<advance width="520"/>
	<outline>
		<contour>
			<point x="256" y="-12" type="curve" smooth="yes"/>
			<point x="392" y="-12"/>
			<point x="486" y="111"/>
			<point x="486" y="234" type="curve" smooth="yes"/>
			<point x="486" y="351"/>
			<point x="416" y="400"/>
			<point x="328" y="400" type="curve" smooth="yes"/>
			<point x="295" y="400"/>
			<point x="241" y="378"/>
			<point x="207" y="340" type="curve"/>
			<point x="192" y="228" type="line"/>
			<point x="228" y="276"/>
			<point x="258" y="292"/>
			<point x="284" y="292" type="curve" smooth="yes"/>
			<point x="320" y="292"/>
			<point x="340" y="266"/>
			<point x="340" y="221" type="curve" smooth="yes"/>
			<point x="340" y="174"/>
			<point x="318" y="106"/>
			<point x="264" y="106" type="curve" smooth="yes"/>
			<point x="226" y="106"/>
			<point x="198" y="138"/>
			<point x="198" y="201" type="curve" smooth="yes"/>
			<point x="198" y="412"/>
			<point x="286" y="518"/>
			<point x="366" y="518" type="curve" smooth="yes"/>
			<point x="402" y="518"/>
			<point x="426" y="498"/>
			<point x="444" y="474" type="curve"/>
			<point x="534" y="556" type="line"/>
			<point x="502" y="602"/>
			<point x="454" y="646"/>
			<point x="376" y="646" type="curve" smooth="yes"/>
			<point x="196" y="646"/>
			<point x="50" y="468"/>
			<point x="50" y="218" type="curve" smooth="yes"/>
			<point x="50" y="81"/>
			<point x="130" y="-12"/>
		</contour>
	</outline>
</glyph>
<glyph name="seven" format="2">
	<unicode hex="0037"/>
	<advance width="520"/>
	<outline>
		<contour>
			<point x="92" y="0" type="curve"/>
			<point x="256" y="0" type="line"/>
			<point x="294" y="174"/>
			<point x="346" y="360"/>
			<point x="540" y="534" type="curve"/>
			<point x="560" y="634" type="line"/>
			<point x="116" y="634" type="line"/>
			<point x="90" y="500" type="line"/>
			<point x="356" y="500" type="line"/>
			<point x="227" y="375"/>
			<point x="152" y="214"/>
		</contour>
	</outline>
</glyph>
<glyph name="C" format="2">
	<unicode hex="0043"/>
	<advance width="574"/>
	<outline>
		<contour>
			<point x="306" y="-12" type="curve" smooth="yes"/>
			<point x="404" y="-12"/>
			<point x="466" y="28"/>
			<point x="510" y="70" type="curve"/>
			<point x="444" y="170" type="line"/>
			<point x="414" y="144"/>
			<point x="378" y="126"/>
			<point x="336" y="126" type="curve" smooth="yes"/>
			<point x="256" y="126"/>
			<point x="220" y="180"/>
			<point x="220" y="274" type="curve" smooth="yes"/>
			<point x="220" y="414"/>
			<point x="304" y="524"/>
			<point x="392" y="524" type="curve" smooth="yes"/>
			<point x="431" y="524"/>
			<point x="464" y="512"/>
			<point x="492" y="477" type="curve"/>
			<point x="578" y="568" type="line"/>
			<point x="542" y="630"/>
			<point x="478" y="662"/>
			<point x="402" y="662" type="curve" smooth="yes"/>
			<point x="214" y="662"/>
			<point x="56" y="496"/>
			<point x="56" y="264" type="curve" smooth="yes"/>
			<point x="56" y="88"/>
			<point x="158" y="-12"/>
		</contour>
	</outline>
	<anchor name="aboverightUC" x="570" y="672"/>
	<anchor name="aboveUC" x="410" y="672"/>
	<anchor name="baseLC" x="280" y="0"/>
	<anchor name="belowLC" x="270" y="-22"/>
</glyph>
<glyph name="D" format="2">
	<unicode hex="0044"/>
	<advance width="632"/>
	<outline>
		<contour>
			<point x="26" y="0" type="line"/>
			<point x="246" y="0" type="line" smooth="yes"/>
			<point x="440" y="0"/>
			<point x="606" y="134"/>
			<point x="606" y="386" type="curve" smooth="yes"/>
			<point x="606" y="570"/>
			<point x="486" y="650"/>
			<point x="314" y="650" type="curve" smooth="yes"/>
			<point x="156" y="650" type="line"/>
		</contour>
		<contour>
			<point x="212" y="128" type="line"/>
			<point x="290" y="522" type="line"/>
			<point x="310" y="522" type="line" smooth="yes"/>
			<point x="376" y="522"/>
			<point x="442" y="486"/>
			<point x="442" y="376" type="curve" smooth="yes"/>
			<point x="442" y="200"/>
			<point x="340" y="128"/>
			<point x="242" y="128" type="curve" smooth="yes"/>
		</contour>
	</outline>
	<anchor name="aboveUC" x="390" y="672"/>
	<anchor name="belowLC" x="270" y="-22"/>
</glyph>
<glyph name="I" format="1">
	<unicode hex="0049"/>
	<advance width="310"/>
	<outline>
		<contour>
			<point x="26" y="0" type="line"/>
			<point x="186" y="0" type="line"/>
			<point x="316" y="650" type="line"/>
			<point x="156" y="650" type="line"/>
		</contour>
		<contour>
			<point name="aboveUC" x="248" y="682" type="move"/>
		</contour>
		<contour>
			<point name="ogonekUC" x="102" y="0" type="move"/>
		</contour>
		<contour>
			<point name="belowLC" x="110" y="-22" type="move"/>
		</contour>
	</outline>
</glyph>
<glyph name="M" format="1">
	<unicode hex="004D"/>
	<advance width="754"/>
	<outline>
		<contour>
			<point x="26" y="0" type="line"/>
			<point x="172" y="0" type="line"/>
			<point x="216" y="216" type="line" smooth="yes"/>
			<point x="229" y="282"/>
			<point x="236" y="378"/>
			<point x="241" y="444" type="curve"/>
			<point x="244" y="444" type="line"/>
			<point x="264" y="292" type="line"/>
			<point x="306" y="56" type="line"/>
			<point x="366" y="56" type="line"/>
			<point x="504" y="292" type="line"/>
			<point x="585" y="444" type="line"/>
			<point x="588" y="444" type="line"/>
			<point x="566" y="378"/>
			<point x="538" y="284"/>
			<point x="524" y="216" type="curve" smooth="yes"/>
			<point x="478" y="0" type="line"/>
			<point x="628" y="0" type="line"/>
			<point x="758" y="650" type="line"/>
			<point x="592" y="650" type="line"/>
			<point x="440" y="370" type="line"/>
			<point x="383" y="260" type="line"/>
			<point x="379" y="260" type="line"/>
			<point x="364" y="370" type="line"/>
			<point x="322" y="650" type="line"/>
			<point x="156" y="650" type="line"/>
		</contour>
		<contour>
			<point name="aboveUC" x="450" y="682" type="move"/>
		</contour>
		<contour>
			<point name="belowLC" x="320" y="-30" type="move"/>
		</contour>
	</outline>
</glyph>
<glyph name="O" format="1">
	<unicode hex="004F"/>
	<advance width="670"/>
	<outline>
		<contour>
			<point x="308" y="-12" type="curve" smooth="yes"/>
			<point x="480" y="-12"/>
			<point x="644" y="144"/>
			<point x="644" y="386" type="curve" smooth="yes"/>
			<point x="644" y="562"/>
			<point x="542" y="662"/>
			<point x="392" y="662" type="curve" smooth="yes"/>
			<point x="220" y="662"/>
			<point x="56" y="506"/>
			<point x="56" y="264" type="curve" smooth="yes"/>
			<point x="56" y="88"/>
			<point x="158" y="-12"/>
		</contour>
		<contour>
			<point x="316" y="126" type="curve" smooth="yes"/>
			<point x="256" y="126"/>
			<point x="220" y="180"/>
			<point x="220" y="274" type="curve" smooth="yes"/>
			<point x="220" y="424"/>
			<point x="310" y="524"/>
			<point x="384" y="524" type="curve" smooth="yes"/>
			<point x="444" y="524"/>
			<point x="480" y="470"/>
			<point x="480" y="376" type="curve" smooth="yes"/>
			<point x="480" y="226"/>
			<point x="390" y="126"/>
		</contour>
		<contour>
			<point name="aboveUC" x="410" y="682" type="move"/>
		</contour>
		<contour>
			<point name="belowLC" x="290" y="-22" type="move"/>
		</contour>
		<contour>
			<point name="hornLC" x="534" y="644" type="move"/>
		</contour>
		<contour>
			<point name="ogonekUC" x="294" y="0" type="move"/>
		</contour>
	</outline>
</glyph>
<glyph name="R" format="1">
	<unicode hex="0052"/>
	<advance width="612"/>
	<outline>
		<contour>
			<point x="26" y="0" type="line"/>
			<point x="186" y="0" type="line"/>
			<point x="230" y="224" type="line"/>
			<point x="300" y="224" type="line" smooth="yes"/>
			<point x="454" y="224"/>
			<point x="600" y="298"/>
			<point x="600" y="478" type="curve" smooth="yes"/>
			<point x="600" y="604"/>
			<point x="500" y="650"/>
			<point x="370" y="650" type="curve" smooth="yes"/>
			<point x="156" y="650" type="line"/>
		</contour>
		<contour>
			<point x="256" y="350" type="line"/>
			<point x="290" y="524" type="line"/>
			<point x="348" y="524" type="line" smooth="yes"/>
			<point x="408" y="524"/>
			<point x="442" y="502"/>
			<point x="442" y="454" type="curve" smooth="yes"/>
			<point x="442" y="392"/>
			<point x="400" y="350"/>
			<point x="314" y="350" type="curve" smooth="yes"/>
		</contour>
		<contour>
			<point x="372" y="0" type="line"/>
			<point x="540" y="0" type="line"/>
			<point x="398" y="366" type="line"/>
			<point x="284" y="262" type="line"/>
		</contour>
		<contour>
			<point name="aboveUC" x="400" y="682" type="move"/>
		</contour>
		<contour>
			<point name="belowLC" x="292" y="-30" type="move"/>
		</contour>
	</outline>
</glyph>
<glyph name="S" format="1">
	<unicode hex="0053"/>
	<advance width="538"/>
	<outline>
		<contour>
			<point x="240" y="-12" type="curve" smooth="yes"/>
			<point x="396" y="-12"/>
			<point x="494" y="85"/>
			<point x="494" y="204" type="curve" smooth="yes"/>
			<point x="494" y="280"/>
			<point x="469" y="321"/>
			<point x="406" y="359" type="curve" smooth="yes"/>
			<point x="346" y="396" type="line" smooth="yes"/>
			<point x="294" y="429"/>
			<point x="266" y="441"/>
			<point x="266" y="468" type="curve" smooth="yes"/>
			<point x="266" y="499"/>
			<point x="289" y="524"/>
			<point x="335" y="524" type="curve" smooth="yes"/>
			<point x="377" y="524"/>
			<point x="410" y="500"/>
			<point x="443" y="467" type="curve"/>
			<point x="543" y="561" type="line"/>
			<point x="490" y="624"/>
			<point x="417" y="662"/>
			<point x="341" y="662" type="curve" smooth="yes"/>
			<point x="209" y="662"/>
			<point x="102" y="569"/>
			<point x="102" y="452" type="curve" smooth="yes"/>
			<point x="102" y="371"/>
			<point x="138" y="324"/>
			<point x="198" y="286" type="curve" smooth="yes"/>
			<point x="254" y="251" type="line" smooth="yes"/>
			<point x="299" y="223"/>
			<point x="328" y="210"/>
			<point x="328" y="181" type="curve" smooth="yes"/>
			<point x="328" y="145"/>
			<point x="298" y="124"/>
			<point x="252" y="124" type="curve" smooth="yes"/>
			<point x="202" y="124"/>
			<point x="150" y="156"/>
			<point x="116" y="203" type="curve"/>
			<point x="2" y="113" type="line"/>
			<point x="70" y="22"/>
			<point x="157" y="-12"/>
		</contour>
		<contour>
			<point name="aboveUC" x="376" y="690" type="move"/>
		</contour>
		<contour>
			<point name="baseLC" x="254" y="0" type="move"/>
		</contour>
		<contour>
			<point name="belowLC" x="248" y="-30" type="move"/>
		</contour>
	</outline>
</glyph>
<glyph name="T" format="2">
	<unicode hex="0054"/>
	<advance width="540"/>
	<outline>
		<contour>
			<point x="142" y="0" type="line"/>
			<point x="302" y="0" type="line"/>
			<point x="404" y="516" type="line"/>
			<point x="568" y="516" type="line"/>
			<point x="594" y="650" type="line"/>
			<point x="106" y="650" type="line"/>
			<point x="80" y="516" type="line"/>
			<point x="244" y="516" type="line"/>
		</contour>
	</outline>
	<anchor name="aboverightUC" x="520" y="672"/>
	<anchor name="aboveUC" x="350" y="672"/>
	<anchor name="baseLC" x="226" y="0"/>
	<anchor name="belowLC" x="220" y="-22"/>
</glyph>
<glyph name="e" format="2">
	<unicode hex="0065"/>
	<advance width="502"/>
	<outline>
		<contour>
			<point x="246" y="-12" type="curve" smooth="yes"/>
			<point x="316" y="-12"/>
			<point x="378" y="10"/>
			<point x="420" y="44" type="curve"/>
			<point x="368" y="138" type="line"/>
			<point x="346" y="122"/>
			<point x="308" y="110"/>
			<point x="280" y="110" type="curve" smooth="yes"/>
			<point x="222" y="110"/>
			<point x="174" y="134"/>
			<point x="174" y="216" type="curve" smooth="yes"/>
			<point x="174" y="354"/>
			<point x="246" y="390"/>
			<point x="288" y="390" type="curve" smooth="yes"/>
			<point x="330" y="390"/>
			<point x="344" y="364"/>
			<point x="344" y="330" type="curve" smooth="yes"/>
			<point x="344" y="321"/>
			<point x="342" y="313"/>
			<point x="340" y="306" type="curve"/>
			<point x="158" y="306" type="line"/>
			<point x="146" y="202" type="line"/>
			<point x="448" y="202" type="line"/>
			<point x="456" y="216"/>
			<point x="474" y="272"/>
			<point x="474" y="322" type="curve" smooth="yes"/>
			<point x="474" y="426"/>
			<point x="430" y="512"/>
			<point x="308" y="512" type="curve" smooth="yes"/>
			<point x="174" y="512"/>
			<point x="26" y="388"/>
			<point x="26" y="204" type="curve" smooth="yes"/>
			<point x="26" y="70"/>
			<point x="112" y="-12"/>
		</contour>
	</outline>
	<anchor name="aboveLC" x="320" y="522"/>
	<anchor name="baseLC" x="220" y="0"/>
	<anchor name="belowLC" x="220" y="-22"/>
	<anchor name="ogonekLC" x="290" y="0"/>
</glyph>
<glyph name="g" format="1">
	<unicode hex="0067"/>
	<advance width="552"/>
	<outline>
		<contour>
			<point x="172" y="-208" type="curve" smooth="yes"/>
			<point x="318" y="-208"/>
			<point x="417" y="-134"/>
			<point x="448" y="20" type="curve" smooth="yes"/>
			<point x="544" y="500" type="line"/>
			<point x="414" y="500" type="line"/>
			<point x="392" y="450" type="line"/>
			<point x="390" y="450" type="line"/>
			<point x="372" y="488"/>
			<point x="330" y="512"/>
			<point x="288" y="512" type="curve" smooth="yes"/>
			<point x="150" y="512"/>
			<point x="28" y="372"/>
			<point x="28" y="194" type="curve" smooth="yes"/>
			<point x="28" y="76"/>
			<point x="90" y="20"/>
			<point x="174" y="20" type="curve" smooth="yes"/>
			<point x="226" y="20"/>
			<point x="278" y="44"/>
			<point x="320" y="88" type="curve"/>
			<point x="294" y="6" type="line" smooth="yes"/>
			<point x="275" y="-53"/>
			<point x="234" y="-82"/>
			<point x="176" y="-82" type="curve" smooth="yes"/>
			<point x="132" y="-82"/>
			<point x="90" y="-60"/>
			<point x="52" y="-32" type="curve"/>
			<point x="-16" y="-138" type="line"/>
			<point x="44" y="-186"/>
			<point x="116" y="-208"/>
		</contour>
		<contour>
			<point x="238" y="150" type="curve" smooth="yes"/>
			<point x="212" y="150"/>
			<point x="194" y="170"/>
			<point x="194" y="214" type="curve" smooth="yes"/>
			<point x="194" y="314"/>
			<point x="242" y="382"/>
			<point x="300" y="382" type="curve" smooth="yes"/>
			<point x="318" y="382"/>
			<point x="340" y="370"/>
			<point x="352" y="344" type="curve"/>
			<point x="326" y="206" type="line"/>
			<point x="300" y="160"/>
			<point x="266" y="150"/>
		</contour>
		<contour>
			<point name="aboveLC" x="324" y="522" type="move"/>
		</contour>
		<contour>
			<point name="belowLC" x="170" y="-228" type="move"/>
		</contour>
	</outline>
</glyph>
<glyph name="i" format="1">
	<unicode hex="0069"/>
	<advance width="276"/>
	<outline>
		<component base="dotlessi"/>
		<component base="dotaccentcmb" xOffset="84"/>
		<contour>
			<point name="ogonekLC" x="88" y="0" type="move"/>
		</contour>
		<contour>
			<point name="aboveLC" x="240" y="732" type="move"/>
		</contour>
		<contour>
			<point name="belowLC" x="94" y="-22" type="move"/>
		</contour>
	</outline>
</glyph>
<glyph name="j" format="1">
	<unicode hex="006A"/>
	<advance width="278"/>
	<outline>
		<component base="dotlessj"/>
		<component base="dotaccentcmb" xOffset="90"/>
		<contour>
			<point name="belowLC" x="-10" y="-182" type="move"/>
		</contour>
	</outline>
</glyph>
<glyph name="k" format="2">
	<unicode hex="006B"/>
	<advance width="544"/>
	<outline>
		<contour>
			<point x="8" y="0" type="line"/>
			<point x="168" y="0" type="line"/>
			<point x="192" y="118" type="line"/>
			<point x="260" y="186" type="line"/>
			<point x="328" y="0" type="line"/>
			<point x="488" y="0" type="line"/>
			<point x="370" y="278" type="line"/>
			<point x="576" y="500" type="line"/>
			<point x="400" y="500" type="line"/>
			<point x="236" y="320" type="line"/>
			<point x="232" y="320" type="line"/>
			<point x="308" y="696" type="line"/>
			<point x="148" y="696" type="line"/>
		</contour>
	</outline>
	<anchor name="aboverightLC" x="540" y="522"/>
	<anchor name="aboveUC" x="380" y="722"/>
	<anchor name="belowLC" x="240" y="-22"/>
</glyph>
<glyph name="l" format="2">
	<unicode hex="006C"/>
	<advance width="286"/>
	<outline>
		<contour>
			<point x="158" y="-12" type="curve" smooth="yes"/>
			<point x="188" y="-12"/>
			<point x="216" y="-4"/>
			<point x="238" y="4" type="curve"/>
			<point x="232" y="118" type="line"/>
			<point x="224" y="116"/>
			<point x="220" y="116"/>
			<point x="216" y="116" type="curve" smooth="yes"/>
			<point x="206" y="116"/>
			<point x="198" y="122"/>
			<point x="198" y="136" type="curve" smooth="yes"/>
			<point x="198" y="144"/>
			<point x="198" y="148"/>
			<point x="200" y="160" type="curve" smooth="yes"/>
			<point x="308" y="696" type="line"/>
			<point x="148" y="696" type="line"/>
			<point x="42" y="166" type="line" smooth="yes"/>
			<point x="36" y="138"/>
			<point x="34" y="118"/>
			<point x="34" y="98" type="curve" smooth="yes"/>
			<point x="34" y="30"/>
			<point x="66" y="-12"/>
		</contour>
	</outline>
	<anchor name="aboveUC" x="230" y="722"/>
	<anchor name="belowLC" x="120" y="-22"/>
	<anchor name="center" x="160" y="360"/>
</glyph>
<glyph name="s" format="2">
	<unicode hex="0073"/>
	<advance width="432"/>
	<outline>
		<contour>
			<point x="172" y="-12" type="curve" smooth="yes"/>
			<point x="298" y="-12"/>
			<point x="388" y="56"/>
			<point x="388" y="156" type="curve" smooth="yes"/>
			<point x="388" y="230"/>
			<point x="336" y="270"/>
			<point x="288" y="296" type="curve" smooth="yes"/>
			<point x="250" y="318"/>
			<point x="208" y="330"/>
			<point x="208" y="358" type="curve" smooth="yes"/>
			<point x="208" y="378"/>
			<point x="228" y="394"/>
			<point x="260" y="394" type="curve" smooth="yes"/>
			<point x="290" y="394"/>
			<point x="322" y="374"/>
			<point x="348" y="350" type="curve"/>
			<point x="428" y="432" type="line"/>
			<point x="386" y="478"/>
			<point x="330" y="512"/>
			<point x="260" y="512" type="curve" smooth="yes"/>
			<point x="148" y="512"/>
			<point x="58" y="440"/>
			<point x="58" y="344" type="curve" smooth="yes"/>
			<point x="58" y="278"/>
			<point x="105" y="232"/>
			<point x="154" y="204" type="curve" smooth="yes"/>
			<point x="206" y="174"/>
			<point x="238" y="164"/>
			<point x="238" y="138" type="curve" smooth="yes"/>
			<point x="238" y="118"/>
			<point x="212" y="104"/>
			<point x="182" y="104" type="curve" smooth="yes"/>
			<point x="152" y="104"/>
			<point x="113" y="117"/>
			<point x="74" y="160" type="curve"/>
			<point x="-6" y="84" type="line"/>
			<point x="37" y="19"/>
			<point x="115" y="-12"/>
		</contour>
	</outline>
	<anchor name="aboveLC" x="270" y="522"/>
	<anchor name="baseLC" x="170" y="0"/>
	<anchor name="belowLC" x="160" y="-22"/>
	<anchor name="center" x="220" y="250"/>
</glyph>
<glyph name="v" format="2">
	<unicode hex="0076"/>
	<advance width="518"/>
	<outline>
		<contour>
			<point x="120" y="0" type="line"/>
			<point x="304" y="0" type="line"/>
			<point x="554" y="500" type="line"/>
			<point x="398" y="500" type="line"/>
			<point x="300" y="272" type="line" smooth="yes"/>
			<point x="278" y="220"/>
			<point x="258" y="170"/>
			<point x="236" y="118" type="curve"/>
			<point x="232" y="118" type="line"/>
			<point x="232" y="171"/>
			<point x="232" y="222"/>
			<point x="230" y="272" type="curve" smooth="yes"/>
			<point x="220" y="500" type="line"/>
			<point x="60" y="500" type="line"/>
		</contour>
	</outline>
	<anchor name="aboveLC" x="310" y="522"/>
	<anchor name="belowLC" x="210" y="-22"/>
</glyph>
<glyph name="sterling" format="1">
	<unicode hex="00A3"/>
	<advance width="520"/>
	<outline>
		<contour>
			<point x="-4" y="0" type="line"/>
			<point x="442" y="0" type="line"/>
			<point x="466" y="134" type="line"/>
			<point x="240" y="134" type="line"/>
			<point x="240" y="138" type="line"/>
			<point x="280" y="186"/>
			<point x="296" y="230"/>
			<point x="296" y="296" type="curve" smooth="yes"/>
			<point x="296" y="323"/>
			<point x="288" y="357"/>
			<point x="288" y="384" type="curve" smooth="yes"/>
			<point x="288" y="480"/>
			<point x="330" y="518"/>
			<point x="378" y="518" type="curve" smooth="yes"/>
			<point x="408" y="518"/>
			<point x="426" y="504"/>
			<point x="448" y="476" type="curve"/>
			<point x="550" y="560" type="line"/>
			<point x="510" y="614"/>
			<point x="458" y="646"/>
			<point x="386" y="646" type="curve" smooth="yes"/>
			<point x="250" y="646"/>
			<point x="140" y="550"/>
			<point x="140" y="408" type="curve" smooth="yes"/>
			<point x="140" y="369"/>
			<point x="152" y="317"/>
			<point x="152" y="278" type="curve" smooth="yes"/>
			<point x="152" y="194"/>
			<point x="98" y="132"/>
			<point x="16" y="98" type="curve"/>
		</contour>
		<contour>
			<point x="56" y="262" type="line"/>
			<point x="410" y="262" type="line"/>
			<point x="432" y="376" type="line"/>
			<point x="150" y="376" type="line"/>
			<point x="76" y="370" type="line"/>
		</contour>
	</outline>
</glyph>
<glyph name="currency" format="2">
	<unicode hex="00A4"/>
	<advance width="520"/>
	<outline>
		<contour>
			<point x="74" y="86" type="line"/>
			<point x="146" y="148" type="line"/>
			<point x="174" y="134"/>
			<point x="206" y="128"/>
			<point x="242" y="128" type="curve" smooth="yes"/>
			<point x="278" y="128"/>
			<point x="315" y="135"/>
			<point x="349" y="150" type="curve"/>
			<point x="402" y="86" type="line"/>
			<point x="486" y="158" type="line"/>
			<point x="439" y="215" type="line"/>
			<point x="474" y="253"/>
			<point x="496" y="304"/>
			<point x="496" y="364" type="curve" smooth="yes"/>
			<point x="496" y="391"/>
			<point x="490" y="415"/>
			<point x="480" y="437" type="curve"/>
			<point x="544" y="492" type="line"/>
			<point x="476" y="572" type="line"/>
			<point x="405" y="511" type="line"/>
			<point x="377" y="524"/>
			<point x="343" y="532"/>
			<point x="306" y="532" type="curve" smooth="yes"/>
			<point x="270" y="532"/>
			<point x="233" y="524"/>
			<point x="199" y="509" type="curve"/>
			<point x="148" y="572" type="line"/>
			<point x="64" y="500" type="line"/>
			<point x="109" y="445" type="line"/>
			<point x="74" y="406"/>
			<point x="52" y="356"/>
			<point x="52" y="296" type="curve" smooth="yes"/>
			<point x="52" y="268"/>
			<point x="58" y="242"/>
			<point x="69" y="220" type="curve"/>
			<point x="6" y="166" type="line"/>
		</contour>
		<contour>
			<point x="260" y="240" type="curve" smooth="yes"/>
			<point x="222" y="240"/>
			<point x="198" y="266"/>
			<point x="198" y="308" type="curve" smooth="yes"/>
			<point x="198" y="374"/>
			<point x="242" y="420"/>
			<point x="288" y="420" type="curve" smooth="yes"/>
			<point x="326" y="420"/>
			<point x="350" y="396"/>
			<point x="350" y="352" type="curve" smooth="yes"/>
			<point x="350" y="286"/>
			<point x="306" y="240"/>
		</contour>
	</outline>
</glyph>
<glyph name="copyright" format="2">
	<unicode hex="00A9"/>
	<advance width="674"/>
	<outline>
		<contour>
			<point x="298" y="-8" type="curve" smooth="yes"/>
			<point x="516" y="-8"/>
			<point x="676" y="164"/>
			<point x="676" y="378" type="curve" smooth="yes"/>
			<point x="676" y="540"/>
			<point x="564" y="656"/>
			<point x="406" y="656" type="curve" smooth="yes"/>
			<point x="188" y="656"/>
			<point x="28" y="484"/>
			<point x="28" y="270" type="curve" smooth="yes"/>
			<point x="28" y="108"/>
			<point x="140" y="-8"/>
		</contour>
		<contour>
			<point x="304" y="60" type="curve" smooth="yes"/>
			<point x="168" y="60"/>
			<point x="100" y="162"/>
			<point x="100" y="276" type="curve" smooth="yes"/>
			<point x="100" y="450"/>
			<point x="232" y="588"/>
			<point x="400" y="588" type="curve" smooth="yes"/>
			<point x="536" y="588"/>
			<point x="604" y="486"/>
			<point x="604" y="372" type="curve" smooth="yes"/>
			<point x="604" y="198"/>
			<point x="472" y="60"/>
		</contour>
		<contour>
			<point x="332" y="128" type="curve" smooth="yes"/>
			<point x="377" y="128"/>
			<point x="424" y="142"/>
			<point x="466" y="176" type="curve"/>
			<point x="422" y="244" type="line"/>
			<point x="396" y="227"/>
			<point x="382" y="220"/>
			<point x="358" y="220" type="curve" smooth="yes"/>
			<point x="312" y="220"/>
			<point x="286" y="250"/>
			<point x="286" y="298" type="curve" smooth="yes"/>
			<point x="286" y="372"/>
			<point x="338" y="424"/>
			<point x="384" y="424" type="curve" smooth="yes"/>
			<point x="402" y="424"/>
			<point x="420" y="418"/>
			<point x="436" y="400" type="curve"/>
			<point x="502" y="464" type="line"/>
			<point x="482" y="488"/>
			<point x="444" y="516"/>
			<point x="398" y="516" type="curve" smooth="yes"/>
			<point x="292" y="516"/>
			<point x="172" y="426"/>
			<point x="172" y="284" type="curve" smooth="yes"/>
			<point x="172" y="188"/>
			<point x="236" y="128"/>
		</contour>
	</outline>
</glyph>
<glyph name="plusminus" format="2">
	<unicode hex="00B1"/>
	<advance width="520"/>
	<outline>
		<contour>
			<point x="212" y="164" type="line"/>
			<point x="328" y="164" type="line"/>
			<point x="328" y="310" type="line"/>
			<point x="496" y="310" type="line"/>
			<point x="496" y="422" type="line"/>
			<point x="330" y="422" type="line"/>
			<point x="330" y="568" type="line"/>
			<point x="214" y="568" type="line"/>
			<point x="214" y="422" type="line"/>
			<point x="48" y="422" type="line"/>
			<point x="48" y="310" type="line"/>
			<point x="212" y="310" type="line"/>
		</contour>
		<contour>
			<point x="48" y="0" type="line"/>
			<point x="496" y="0" type="line"/>
			<point x="496" y="112" type="line"/>
			<point x="48" y="112" type="line"/>
		</contour>
	</outline>
</glyph>
<glyph name="Eth" format="2">
	<unicode hex="00D0"/>
	<advance width="650"/>
	<outline>
		<contour>
			<point x="34" y="300" type="line"/>
			<point x="378" y="300" type="line"/>
			<point x="394" y="376" type="line"/>
			<point x="121" y="376" type="line"/>
			<point x="48" y="370" type="line"/>
		</contour>
		<component base="D" xOffset="18"/>
	</outline>
</glyph>
<glyph name="oslash" format="2">
	<unicode hex="00F8"/>
	<advance width="538"/>
	<outline>
		<contour>
			<point x="226" y="-12" type="curve" smooth="yes"/>
			<point x="364" y="-12"/>
			<point x="510" y="108"/>
			<point x="510" y="304" type="curve" smooth="yes"/>
			<point x="510" y="436"/>
			<point x="422" y="512"/>
			<point x="310" y="512" type="curve" smooth="yes"/>
			<point x="172" y="512"/>
			<point x="26" y="390"/>
			<point x="26" y="196" type="curve" smooth="yes"/>
			<point x="26" y="64"/>
			<point x="114" y="-12"/>
		</contour>
		<contour>
			<point x="238" y="112" type="curve" smooth="yes"/>
			<point x="194" y="112"/>
			<point x="176" y="150"/>
			<point x="176" y="198" type="curve" smooth="yes"/>
			<point x="176" y="280"/>
			<point x="213" y="388"/>
			<point x="298" y="388" type="curve" smooth="yes"/>
			<point x="338" y="388"/>
			<point x="360" y="350"/>
			<point x="360" y="300" type="curve" smooth="yes"/>
			<point x="360" y="218"/>
			<point x="326" y="112"/>
		</contour>
		<contour>
			<point x="48" y="-26" type="line"/>
			<point x="540" y="480" type="line"/>
			<point x="490" y="524" type="line"/>
			<point x="0" y="20" type="line"/>
		</contour>
	</outline>
	<anchor name="aboveLC" x="320" y="522"/>
	<anchor name="belowLC" x="200" y="-22"/>
</glyph>
<glyph name="Aogonek" format="2">
	<unicode hex="0104"/>
	<advance width="562"/>
	<outline>
		<contour>
			<point x="394" y="-228" type="curve" smooth="yes"/>
			<point x="440" y="-228"/>
			<point x="490" y="-214"/>
			<point x="522" y="-192" type="curve"/>
			<point x="492" y="-108" type="line"/>
			<point x="484" y="-112"/>
			<point x="474" y="-114"/>
			<point x="464" y="-114" type="curve" smooth="yes"/>
			<point x="446" y="-114"/>
			<point x="430" y="-104"/>
			<point x="430" y="-84" type="curve" smooth="yes"/>
			<point x="430" y="-58"/>
			<point x="454" y="-20"/>
			<point x="528" y="0" type="curve"/>
			<point x="466" y="650" type="line"/>
			<point x="274" y="650" type="line"/>
			<point x="-66" y="0" type="line"/>
			<point x="110" y="0" type="line"/>
			<point x="266" y="344" type="line" smooth="yes"/>
			<point x="294" y="406"/>
			<point x="316" y="466"/>
			<point x="342" y="530" type="curve"/>
			<point x="346" y="530" type="line"/>
			<point x="346" y="464"/>
			<point x="348" y="406"/>
			<point x="350" y="344" type="curve" smooth="yes"/>
			<point x="360" y="0" type="line"/>
			<point x="394" y="0" type="line"/>
			<point x="340" y="-32"/>
			<point x="286" y="-88"/>
			<point x="286" y="-142" type="curve" smooth="yes"/>
			<point x="286" y="-196"/>
			<point x="332" y="-228"/>
		</contour>
		<contour>
			<point x="110" y="148" type="line"/>
			<point x="412" y="148" type="line"/>
			<point x="440" y="268" type="line"/>
			<point x="138" y="268" type="line"/>
		</contour>
	</outline>
	<anchor name="aboveUC" x="380" y="672"/>
</glyph>
<glyph name="dcroat" format="2">
	<unicode hex="0111"/>
	<advance width="556"/>
	<outline>
		<contour>
			<point x="168" y="-12" type="curve" smooth="yes"/>
			<point x="216" y="-12"/>
			<point x="274" y="16"/>
			<point x="318" y="62" type="curve"/>
			<point x="320" y="62" type="line"/>
			<point x="320" y="0" type="line"/>
			<point x="450" y="0" type="line"/>
			<point x="590" y="696" type="line"/>
			<point x="430" y="696" type="line"/>
			<point x="392" y="498" type="line"/>
			<point x="382" y="404" type="line"/>
			<point x="380" y="404" type="line"/>
			<point x="362" y="438"/>
			<point x="326" y="460"/>
			<point x="284" y="460" type="curve" smooth="yes"/>
			<point x="151" y="460"/>
			<point x="28" y="333"/>
			<point x="28" y="172" type="curve" smooth="yes"/>
			<point x="28" y="54"/>
			<point x="80" y="-12"/>
		</contour>
		<contour>
			<point x="240" y="118" type="curve" smooth="yes"/>
			<point x="212" y="118"/>
			<point x="194" y="140"/>
			<point x="194" y="192" type="curve" smooth="yes"/>
			<point x="194" y="273"/>
			<point x="243" y="330"/>
			<point x="296" y="330" type="curve" smooth="yes"/>
			<point x="314" y="330"/>
			<point x="338" y="318"/>
			<point x="350" y="292" type="curve"/>
			<point x="328" y="184" type="line"/>
			<point x="300" y="130"/>
			<point x="266" y="118"/>
		</contour>
		<contour>
			<point x="238" y="522" type="line"/>
			<point x="552" y="522" type="line"/>
			<point x="626" y="528" type="line"/>
			<point x="648" y="626" type="line"/>
			<point x="262" y="626" type="line"/>
		</contour>
	</outline>
</glyph>
<glyph name="eogonek" format="2">
	<unicode hex="0119"/>
	<advance width="502"/>
	<outline>
		<contour>
			<point x="256" y="-212" type="curve" smooth="yes"/>
			<point x="292" y="-212"/>
			<point x="340" y="-194"/>
			<point x="370" y="-172" type="curve"/>
			<point x="344" y="-108" type="line"/>
			<point x="334" y="-114"/>
			<point x="324" y="-118"/>
			<point x="314" y="-118" type="curve" smooth="yes"/>
			<point x="296" y="-118"/>
			<point x="280" y="-108"/>
			<point x="280" y="-90" type="curve" smooth="yes"/>
			<point x="280" y="-50"/>
			<point x="314" y="-14"/>
			<point x="420" y="44" type="curve"/>
			<point x="368" y="138" type="line"/>
			<point x="346" y="122"/>
			<point x="308" y="110"/>
			<point x="280" y="110" type="curve" smooth="yes"/>
			<point x="222" y="110"/>
			<point x="176" y="136"/>
			<point x="176" y="202" type="curve"/>
			<point x="448" y="202" type="line"/>
			<point x="456" y="216"/>
			<point x="474" y="272"/>
			<point x="474" y="322" type="curve" smooth="yes"/>
			<point x="474" y="426"/>
			<point x="430" y="512"/>
			<point x="308" y="512" type="curve" smooth="yes"/>
			<point x="174" y="512"/>
			<point x="26" y="388"/>
			<point x="26" y="204" type="curve" smooth="yes"/>
			<point x="26" y="70"/>
			<point x="112" y="-12"/>
			<point x="236" y="-12" type="curve" smooth="yes"/>
			<point x="250" y="-12"/>
			<point x="262" y="-11"/>
			<point x="270" y="-10" type="curve"/>
			<point x="261" y="9" type="line"/>
			<point x="230" y="-22"/>
			<point x="166" y="-70"/>
			<point x="166" y="-136" type="curve" smooth="yes"/>
			<point x="166" y="-186"/>
			<point x="204" y="-212"/>
		</contour>
		<contour>
			<point x="188" y="306" type="line"/>
			<point x="210" y="366"/>
			<point x="250" y="390"/>
			<point x="288" y="390" type="curve" smooth="yes"/>
			<point x="330" y="390"/>
			<point x="344" y="364"/>
			<point x="344" y="330" type="curve" smooth="yes"/>
			<point x="344" y="321"/>
			<point x="342" y="313"/>
			<point x="340" y="306" type="curve"/>
		</contour>
	</outline>
	<anchor name="aboveLC" x="320" y="522"/>
</glyph>
<glyph name="Hbar" format="2">
	<unicode hex="0126"/>
	<advance width="696"/>
	<outline>
		<contour>
			<point x="66" y="474" type="line"/>
			<point x="718" y="474" type="line"/>
			<point x="738" y="576" type="line"/>
			<point x="178" y="576" type="line"/>
			<point x="86" y="570" type="line"/>
		</contour>
		<component base="H" xOffset="16"/>
	</outline>
	<guideline x="46" y="365" angle="79" identifier="3pQ9Y9MY0i"/>
	<guideline x="686" y="302" angle="79" identifier="L7yqoPUWXs"/>
</glyph>
<glyph name="IJ" format="1">
	<unicode hex="0132"/>
	<advance width="624"/>
	<outline>
		<contour>
			<point x="300" y="-182" type="curve" smooth="yes"/>
			<point x="424" y="-182"/>
			<point x="478" y="-96"/>
			<point x="500" y="8" type="curve" smooth="yes"/>
			<point x="628" y="650" type="line"/>
			<point x="468" y="650" type="line"/>
			<point x="342" y="16" type="line" smooth="yes"/>
			<point x="330" y="-36"/>
			<point x="318" y="-56"/>
			<point x="286" y="-56" type="curve" smooth="yes"/>
			<point x="272" y="-56"/>
			<point x="258" y="-52"/>
			<point x="244" y="-44" type="curve"/>
			<point x="196" y="-158" type="line"/>
			<point x="232" y="-176"/>
			<point x="264" y="-182"/>
		</contour>
		<contour>
			<point x="26" y="0" type="line"/>
			<point x="186" y="0" type="line"/>
			<point x="316" y="650" type="line"/>
			<point x="156" y="650" type="line"/>
		</contour>
	</outline>
</glyph>
<glyph name="lslash" format="1">
	<unicode hex="0142"/>
	<advance width="298"/>
	<outline>
		<contour>
			<point x="28" y="246" type="line"/>
			<point x="79" y="272" type="line"/>
			<point x="221" y="332" type="line"/>
			<point x="362" y="406" type="line"/>
			<point x="324" y="500" type="line"/>
			<point x="248" y="456" type="line"/>
			<point x="105" y="396" type="line"/>
			<point x="-8" y="340" type="line"/>
		</contour>
		<component base="l" xOffset="12"/>
	</outline>
</glyph>
<glyph name="Tbar" format="1">
	<unicode hex="0166"/>
	<advance width="540"/>
	<outline>
		<contour>
			<point x="74" y="266" type="line"/>
			<point x="474" y="266" type="line"/>
			<point x="492" y="362" type="line"/>
			<point x="184" y="362" type="line"/>
			<point x="92" y="356" type="line"/>
		</contour>
		<component base="T"/>
		<contour>
			<point name="aboveUC" x="350" y="672" type="move"/>
		</contour>
		<contour>
			<point name="belowLC" x="220" y="-22" type="move"/>
		</contour>
	</outline>
</glyph>
<glyph name="tbar" format="1">
	<unicode hex="0167"/>
	<advance width="384"/>
	<outline>
		<contour>
			<point x="10" y="214" type="line"/>
			<point x="342" y="214" type="line"/>
			<point x="360" y="310" type="line"/>
			<point x="120" y="310" type="line"/>
			<point x="28" y="304" type="line"/>
		</contour>
		<component base="t"/>
		<contour>
			<point name="aboveLC" x="260" y="664" type="move"/>
		</contour>
		<contour>
			<point name="belowLC" x="180" y="-22" type="move"/>
		</contour>
	</outline>
</glyph>
<glyph name="uogonek" format="2">
	<unicode hex="0173"/>
	<advance width="552"/>
	<outline>
		<contour>
			<point x="326" y="-220" type="curve" smooth="yes"/>
			<point x="376" y="-220"/>
			<point x="418" y="-204"/>
			<point x="450" y="-182" type="curve"/>
			<point x="420" y="-110" type="line"/>
			<point x="412" y="-114"/>
			<point x="404" y="-118"/>
			<point x="390" y="-118" type="curve" smooth="yes"/>
			<point x="372" y="-118"/>
			<point x="358" y="-108"/>
			<point x="358" y="-90" type="curve" smooth="yes"/>
			<point x="358" y="-50"/>
			<point x="390" y="-12"/>
			<point x="444" y="0" type="curve"/>
			<point x="542" y="500" type="line"/>
			<point x="382" y="500" type="line"/>
			<point x="320" y="180" type="line"/>
			<point x="288" y="142"/>
			<point x="264" y="124"/>
			<point x="238" y="124" type="curve" smooth="yes"/>
			<point x="212" y="124"/>
			<point x="196" y="138"/>
			<point x="196" y="166" type="curve" smooth="yes"/>
			<point x="196" y="178"/>
			<point x="200" y="192"/>
			<point x="204" y="210" type="curve" smooth="yes"/>
			<point x="262" y="500" type="line"/>
			<point x="102" y="500" type="line"/>
			<point x="40" y="190" type="line" smooth="yes"/>
			<point x="35" y="166"/>
			<point x="32" y="140"/>
			<point x="32" y="118" type="curve" smooth="yes"/>
			<point x="32" y="32"/>
			<point x="68" y="-12"/>
			<point x="150" y="-12" type="curve" smooth="yes"/>
			<point x="210" y="-12"/>
			<point x="268" y="24"/>
			<point x="310" y="64" type="curve"/>
			<point x="314" y="64" type="line"/>
			<point x="314" y="0" type="line"/>
			<point x="274" y="-26"/>
			<point x="230" y="-80"/>
			<point x="230" y="-136" type="curve" smooth="yes"/>
			<point x="230" y="-190"/>
			<point x="270" y="-220"/>
		</contour>
	</outline>
	<anchor name="aboveLC" x="320" y="522"/>
</glyph>
<glyph name="Oopen" format="2">
	<unicode hex="0186"/>
	<advance width="561"/>
	<outline>
		<contour>
			<point x="208" y="-12" type="curve" smooth="yes"/>
			<point x="402" y="-12"/>
			<point x="548" y="144"/>
			<point x="548" y="386" type="curve" smooth="yes"/>
			<point x="548" y="564"/>
			<point x="440" y="662"/>
			<point x="302" y="662" type="curve" smooth="yes"/>
			<point x="228" y="662"/>
			<point x="150" y="636"/>
			<point x="104" y="594" type="curve"/>
			<point x="154" y="484" type="line"/>
			<point x="200" y="514"/>
			<point x="238" y="526"/>
			<point x="280" y="526" type="curve" smooth="yes"/>
			<point x="350" y="526"/>
			<point x="384" y="472"/>
			<point x="384" y="382" type="curve" smooth="yes"/>
			<point x="384" y="232"/>
			<point x="312" y="124"/>
			<point x="216" y="124" type="curve" smooth="yes"/>
			<point x="162" y="124"/>
			<point x="120" y="144"/>
			<point x="88" y="174" type="curve"/>
			<point x="12" y="74" type="line"/>
			<point x="54" y="16"/>
			<point x="134" y="-12"/>
		</contour>
	</outline>
	<anchor name="aboveUC" x="320" y="672"/>
	<anchor name="baseLC" x="220" y="0"/>
	<anchor name="belowLC" x="220" y="-22"/>
	<anchor name="ogonekUC" x="230" y="0"/>
</glyph>
<glyph name="Dhook" format="1">
	<unicode hex="018A"/>
	<advance width="812"/>
	<outline>
		<contour>
			<point x="210" y="0" type="line"/>
			<point x="414" y="0" type="line" smooth="yes"/>
			<point x="608" y="0"/>
			<point x="774" y="130"/>
			<point x="774" y="404" type="curve" smooth="yes"/>
			<point x="774" y="570"/>
			<point x="670" y="662"/>
			<point x="460" y="662" type="curve" smooth="yes"/>
			<point x="155" y="662"/>
			<point x="42" y="530"/>
			<point x="42" y="362" type="curve" smooth="yes"/>
			<point x="42" y="302"/>
			<point x="76" y="242"/>
			<point x="134" y="210" type="curve"/>
			<point x="222" y="320" type="line"/>
			<point x="198" y="336"/>
			<point x="184" y="358"/>
			<point x="184" y="386" type="curve" smooth="yes"/>
			<point x="184" y="459"/>
			<point x="236" y="532"/>
			<point x="374" y="532" type="curve" smooth="yes"/>
			<point x="462" y="532" type="line" smooth="yes"/>
			<point x="554" y="532"/>
			<point x="610" y="502"/>
			<point x="610" y="394" type="curve" smooth="yes"/>
			<point x="610" y="196"/>
			<point x="510" y="128"/>
			<point x="410" y="128" type="curve" smooth="yes"/>
			<point x="396" y="128" type="line"/>
			<point x="484" y="570" type="line"/>
			<point x="324" y="570" type="line"/>
		</contour>
		<contour>
			<point name="aboveUC" x="549" y="672" type="move"/>
		</contour>
		<contour>
			<point name="belowLC" x="430" y="-22" type="move"/>
		</contour>
	</outline>
</glyph>
<glyph name="florin" format="2">
	<unicode hex="0192"/>
	<advance width="344"/>
	<outline>
		<contour>
			<point x="-6" y="-188" type="curve" smooth="yes"/>
			<point x="116" y="-188"/>
			<point x="173" y="-102"/>
			<point x="194" y="2" type="curve" smooth="yes"/>
			<point x="268" y="376" type="line"/>
			<point x="352" y="376" type="line"/>
			<point x="376" y="500" type="line"/>
			<point x="294" y="500" type="line"/>
			<point x="298" y="520" type="line" smooth="yes"/>
			<point x="308" y="574"/>
			<point x="328" y="582"/>
			<point x="360" y="582" type="curve" smooth="yes"/>
			<point x="376" y="582"/>
			<point x="398" y="576"/>
			<point x="408" y="570" type="curve"/>
			<point x="458" y="680" type="line"/>
			<point x="424" y="698"/>
			<point x="384" y="708"/>
			<point x="344" y="708" type="curve" smooth="yes"/>
			<point x="218" y="708"/>
			<point x="158" y="618"/>
			<point x="138" y="514" type="curve" smooth="yes"/>
			<point x="136" y="500" type="line"/>
			<point x="70" y="494" type="line"/>
			<point x="46" y="376" type="line"/>
			<point x="110" y="376" type="line"/>
			<point x="36" y="10" type="line" smooth="yes"/>
			<point x="25" y="-42"/>
			<point x="12" y="-62"/>
			<point x="-20" y="-62" type="curve" smooth="yes"/>
			<point x="-36" y="-62"/>
			<point x="-50" y="-58"/>
			<point x="-64" y="-52" type="curve"/>
			<point x="-106" y="-164" type="line"/>
			<point x="-76" y="-182"/>
			<point x="-41" y="-188"/>
		</contour>
	</outline>
	<anchor name="aboveUC" x="330" y="722"/>
	<anchor name="belowLC" x="10" y="-182"/>
</glyph>
<glyph name="Gammalatin" format="2">
	<unicode hex="0194"/>
	<advance width="576"/>
	<outline>
		<contour>
			<point x="186" y="-206" type="curve" smooth="yes"/>
			<point x="302" y="-206"/>
			<point x="380" y="-118"/>
			<point x="380" y="-14" type="curve" smooth="yes"/>
			<point x="380" y="22"/>
			<point x="375" y="57"/>
			<point x="346" y="132" type="curve"/>
			<point x="346" y="72" type="line"/>
			<point x="660" y="650" type="line"/>
			<point x="484" y="650" type="line"/>
			<point x="356" y="366" type="line" smooth="yes"/>
			<point x="325" y="298"/>
			<point x="298" y="240"/>
			<point x="270" y="170" type="curve"/>
			<point x="266" y="170" type="line"/>
			<point x="266" y="239"/>
			<point x="266" y="298"/>
			<point x="262" y="366" type="curve" smooth="yes"/>
			<point x="246" y="650" type="line"/>
			<point x="78" y="650" type="line"/>
			<point x="156" y="72" type="line"/>
			<point x="168" y="132" type="line"/>
			<point x="88" y="46"/>
			<point x="50" y="-12"/>
			<point x="50" y="-82" type="curve" smooth="yes"/>
			<point x="50" y="-158"/>
			<point x="101" y="-206"/>
		</contour>
		<contour>
			<point x="207" y="-100" type="curve" smooth="yes"/>
			<point x="190" y="-100"/>
			<point x="178" y="-89"/>
			<point x="178" y="-69" type="curve" smooth="yes"/>
			<point x="178" y="-44"/>
			<point x="200" y="-6"/>
			<point x="238" y="34" type="curve"/>
			<point x="242" y="34" type="line"/>
			<point x="249" y="5"/>
			<point x="252" y="-18"/>
			<point x="252" y="-37" type="curve" smooth="yes"/>
			<point x="252" y="-81"/>
			<point x="232" y="-100"/>
		</contour>
	</outline>
	<anchor name="aboveUC" x="310" y="672"/>
	<anchor name="belowLC" x="170" y="-182"/>
</glyph>
<glyph name="lambdastroke" format="2">
	<unicode hex="019B"/>
	<advance width="518"/>
	<outline>
		<contour>
			<point x="122" y="416" type="line"/>
			<point x="516" y="572" type="line"/>
			<point x="486" y="646" type="line"/>
			<point x="92" y="490" type="line"/>
		</contour>
		<component base="lambda.latin"/>
	</outline>
</glyph>
<glyph name="clickalveolar" format="1">
	<unicode hex="01C2"/>
	<advance width="404"/>
	<outline>
		<contour>
			<point x="18" y="310" type="line"/>
			<point x="400" y="310" type="line"/>
			<point x="420" y="410" type="line"/>
			<point x="111" y="410" type="line"/>
			<point x="36" y="404" type="line"/>
		</contour>
		<contour>
			<point x="-19" y="124" type="line"/>
			<point x="363" y="124" type="line"/>
			<point x="383" y="224" type="line"/>
			<point x="73" y="224" type="line"/>
			<point x="-1" y="218" type="line"/>
		</contour>
		<contour>
			<point x="34" y="-176" type="line"/>
			<point x="194" y="-176" type="line"/>
			<point x="370" y="696" type="line"/>
			<point x="210" y="696" type="line"/>
		</contour>
	</outline>
</glyph>
<glyph name="oogonek" format="2">
	<unicode hex="01EB"/>
	<advance width="538"/>
	<outline>
		<contour>
			<point x="182" y="-220" type="curve" smooth="yes"/>
			<point x="232" y="-220"/>
			<point x="274" y="-204"/>
			<point x="306" y="-182" type="curve"/>
			<point x="276" y="-110" type="line"/>
			<point x="268" y="-114"/>
			<point x="260" y="-118"/>
			<point x="246" y="-118" type="curve" smooth="yes"/>
			<point x="228" y="-118"/>
			<point x="214" y="-108"/>
			<point x="214" y="-90" type="curve" smooth="yes"/>
			<point x="214" y="-60"/>
			<point x="236" y="-18"/>
			<point x="282" y="-6" type="curve" smooth="yes"/>
			<point x="426" y="34"/>
			<point x="510" y="156"/>
			<point x="510" y="304" type="curve" smooth="yes"/>
			<point x="510" y="436"/>
			<point x="422" y="512"/>
			<point x="310" y="512" type="curve" smooth="yes"/>
			<point x="172" y="512"/>
			<point x="26" y="390"/>
			<point x="26" y="196" type="curve" smooth="yes"/>
			<point x="26" y="72"/>
			<point x="106" y="-12"/>
			<point x="226" y="-12" type="curve"/>
			<point x="188" y="0" type="line"/>
			<point x="140" y="-26"/>
			<point x="86" y="-78"/>
			<point x="86" y="-136" type="curve" smooth="yes"/>
			<point x="86" y="-190"/>
			<point x="126" y="-220"/>
		</contour>
		<contour>
			<point x="244" y="116" type="curve" smooth="yes"/>
			<point x="206" y="116"/>
			<point x="188" y="148"/>
			<point x="188" y="198" type="curve" smooth="yes"/>
			<point x="188" y="306"/>
			<point x="234" y="384"/>
			<point x="292" y="384" type="curve" smooth="yes"/>
			<point x="330" y="384"/>
			<point x="348" y="352"/>
			<point x="348" y="302" type="curve" smooth="yes"/>
			<point x="348" y="194"/>
			<point x="302" y="116"/>
		</contour>
	</outline>
	<anchor name="aboveLC" x="320" y="522"/>
	<anchor name="belowLC" x="190" y="-182"/>
</glyph>
<glyph name="Cstroke" format="2">
	<unicode hex="023B"/>
	<advance width="574"/>
	<outline>
		<contour>
			<point x="216" y="-46" type="line"/>
			<point x="514" y="686" type="line"/>
			<point x="470" y="696" type="line"/>
			<point x="172" y="-36" type="line"/>
		</contour>
		<component base="C"/>
	</outline>
	<anchor name="aboveUC" x="410" y="672"/>
	<anchor name="belowLC" x="270" y="-22"/>
</glyph>
<glyph name="aturned" format="1">
	<unicode hex="0250"/>
	<advance width="476"/>
	<outline>
		<contour>
			<point x="222" y="-12" type="curve" smooth="yes"/>
			<point x="292" y="-12"/>
			<point x="364" y="12"/>
			<point x="437" y="54" type="curve"/>
			<point x="394" y="154" type="line"/>
			<point x="338" y="126"/>
			<point x="302" y="112"/>
			<point x="260" y="112" type="curve" smooth="yes"/>
			<point x="222" y="112"/>
			<point x="202" y="134"/>
			<point x="202" y="168" type="curve" smooth="yes"/>
			<point x="202" y="170"/>
			<point x="202" y="172"/>
			<point x="202" y="174" type="curve"/>
			<point x="423" y="199"/>
			<point x="502" y="294"/>
			<point x="502" y="408" type="curve" smooth="yes"/>
			<point x="502" y="468"/>
			<point x="467" y="512"/>
			<point x="396" y="512" type="curve" smooth="yes"/>
			<point x="333" y="512"/>
			<point x="283" y="478"/>
			<point x="240" y="436" type="curve"/>
			<point x="236" y="436" type="line"/>
			<point x="236" y="500" type="line"/>
			<point x="106" y="500" type="line"/>
			<point x="51" y="226" type="line" smooth="yes"/>
			<point x="45" y="198"/>
			<point x="44" y="180"/>
			<point x="44" y="158" type="curve" smooth="yes"/>
			<point x="44" y="46"/>
			<point x="109" y="-12"/>
		</contour>
		<contour>
			<point x="222" y="278" type="curve"/>
			<point x="236" y="346" type="line"/>
			<point x="260" y="372"/>
			<point x="285" y="390"/>
			<point x="312" y="390" type="curve" smooth="yes"/>
			<point x="332" y="390"/>
			<point x="346" y="369"/>
			<point x="346" y="352" type="curve" smooth="yes"/>
			<point x="346" y="318"/>
			<point x="317" y="292"/>
		</contour>
		<component base="a.alt" xScale="-1" yScale="-1" xOffset="520" yOffset="500"/>
		<contour>
			<point name="aboveLC" x="334" y="520" type="move"/>
		</contour>
		<contour>
			<point name="belowLC" x="228" y="-20" type="move"/>
		</contour>
	</outline>
</glyph>
<glyph name="alphalatin" format="1">
	<unicode hex="0251"/>
	<advance width="566"/>
	<outline>
		<contour>
			<point x="168" y="-12" type="curve" smooth="yes"/>
			<point x="216" y="-12"/>
			<point x="274" y="16"/>
			<point x="318" y="62" type="curve"/>
			<point x="320" y="62" type="line"/>
			<point x="320" y="62" type="line" smooth="yes"/>
			<point x="334" y="4"/>
			<point x="372" y="-12"/>
			<point x="420" y="-12" type="curve" smooth="yes"/>
			<point x="450" y="-12"/>
			<point x="478" y="-6"/>
			<point x="502" y="0" type="curve"/>
			<point x="508" y="118" type="line"/>
			<point x="500" y="116"/>
			<point x="495" y="116"/>
			<point x="493" y="116" type="curve" smooth="yes"/>
			<point x="484" y="116"/>
			<point x="478" y="121"/>
			<point x="478" y="134" type="curve" smooth="yes"/>
			<point x="478" y="138"/>
			<point x="478" y="142"/>
			<point x="480" y="150" type="curve" smooth="yes"/>
			<point x="550" y="500" type="line"/>
			<point x="422" y="500" type="line"/>
			<point x="400" y="450" type="line"/>
			<point x="398" y="450" type="line"/>
			<point x="380" y="488"/>
			<point x="336" y="512"/>
			<point x="294" y="512" type="curve" smooth="yes"/>
			<point x="156" y="512"/>
			<point x="28" y="362"/>
			<point x="28" y="172" type="curve" smooth="yes"/>
			<point x="28" y="54"/>
			<point x="80" y="-12"/>
		</contour>
		<contour>
			<point x="240" y="118" type="curve" smooth="yes"/>
			<point x="212" y="118"/>
			<point x="194" y="140"/>
			<point x="194" y="192" type="curve" smooth="yes"/>
			<point x="194" y="304"/>
			<point x="248" y="382"/>
			<point x="306" y="382" type="curve" smooth="yes"/>
			<point x="324" y="382"/>
			<point x="348" y="370"/>
			<point x="360" y="344" type="curve"/>
			<point x="328" y="184" type="line"/>
			<point x="302" y="130"/>
			<point x="266" y="118"/>
		</contour>
		<contour>
			<point name="aboveLC" x="330" y="522" type="move"/>
		</contour>
		<contour>
			<point name="belowLC" x="250" y="-22" type="move"/>
		</contour>
	</outline>
</glyph>
<glyph name="oopen" format="1">
	<unicode hex="0254"/>
	<advance width="459"/>
	<outline>
		<contour>
			<point x="140" y="-12" type="curve" smooth="yes"/>
			<point x="296" y="-12"/>
			<point x="439" y="110"/>
			<point x="439" y="304" type="curve" smooth="yes"/>
			<point x="439" y="436"/>
			<point x="358" y="512"/>
			<point x="249" y="512" type="curve" smooth="yes"/>
			<point x="178" y="512"/>
			<point x="115" y="484"/>
			<point x="71" y="450" type="curve"/>
			<point x="124" y="352" type="line"/>
			<point x="157" y="376"/>
			<point x="181" y="384"/>
			<point x="208" y="384" type="curve" smooth="yes"/>
			<point x="248" y="384"/>
			<point x="276" y="353"/>
			<point x="276" y="289" type="curve" smooth="yes"/>
			<point x="276" y="178"/>
			<point x="216" y="116"/>
			<point x="146" y="116" type="curve" smooth="yes"/>
			<point x="115" y="116"/>
			<point x="87" y="132"/>
			<point x="66" y="152" type="curve"/>
			<point x="-16" y="50" type="line"/>
			<point x="15" y="12"/>
			<point x="74" y="-12"/>
		</contour>
		<contour>
			<point name="aboveLC" x="290" y="520" type="move"/>
		</contour>
		<contour>
			<point name="baseLC" x="229" y="0" type="move"/>
		</contour>
		<contour>
			<point name="belowLC" x="160" y="-20" type="move"/>
		</contour>
	</outline>
</glyph>
<glyph name="ccurl" format="2">
	<unicode hex="0255"/>
	<advance width="484"/>
	<outline>
		<contour>
			<point x="74" y="-74" type="line"/>
			<point x="152" y="87"/>
			<point x="250" y="184"/>
			<point x="306" y="184" type="curve" smooth="yes"/>
			<point x="324" y="184"/>
			<point x="332" y="172"/>
			<point x="332" y="160" type="curve" smooth="yes"/>
			<point x="332" y="140"/>
			<point x="310" y="116"/>
			<point x="276" y="116" type="curve" smooth="yes"/>
			<point x="218" y="116"/>
			<point x="190" y="148"/>
			<point x="190" y="198" type="curve" smooth="yes"/>
			<point x="190" y="300"/>
			<point x="244" y="384"/>
			<point x="316" y="384" type="curve" smooth="yes"/>
			<point x="340" y="384"/>
			<point x="356" y="374"/>
			<point x="374" y="356" type="curve"/>
			<point x="462" y="450" type="line"/>
			<point x="438" y="480"/>
			<point x="390" y="512"/>
			<point x="326" y="512" type="curve" smooth="yes"/>
			<point x="154" y="512"/>
			<point x="26" y="364"/>
			<point x="26" y="196" type="curve" smooth="yes"/>
			<point x="26" y="64"/>
			<point x="120" y="-12"/>
			<point x="240" y="-12" type="curve" smooth="yes"/>
			<point x="356" y="-12"/>
			<point x="456" y="76"/>
			<point x="456" y="182" type="curve" smooth="yes"/>
			<point x="456" y="252"/>
			<point x="409" y="296"/>
			<point x="342" y="296" type="curve" smooth="yes"/>
			<point x="232" y="296"/>
			<point x="114" y="184"/>
			<point x="-12" y="-36" type="curve"/>
		</contour>
	</outline>
	<anchor name="aboveLC" x="300" y="522"/>
	<anchor name="belowLC" x="240" y="-22"/>
</glyph>
<glyph name="ereversed" format="1">
	<unicode hex="0258"/>
	<advance width="502"/>
	<outline>
		<contour>
			<point x="170" y="-12" type="curve" smooth="yes"/>
			<point x="348" y="-12"/>
			<point x="472" y="140"/>
			<point x="472" y="318" type="curve" smooth="yes"/>
			<point x="472" y="440"/>
			<point x="397" y="512"/>
			<point x="288" y="512" type="curve" smooth="yes"/>
			<point x="130" y="512"/>
			<point x="24" y="362"/>
			<point x="24" y="206" type="curve"/>
			<point x="296" y="206" type="line"/>
			<point x="267" y="141"/>
			<point x="219" y="108"/>
			<point x="165" y="108" type="curve" smooth="yes"/>
			<point x="132" y="108"/>
			<point x="100" y="118"/>
			<point x="69" y="138" type="curve"/>
			<point x="3" y="46" type="line"/>
			<point x="47" y="8"/>
			<point x="116" y="-12"/>
		</contour>
		<contour>
			<point x="170" y="302" type="line"/>
			<point x="190" y="362"/>
			<point x="232" y="390"/>
			<point x="270" y="390" type="curve" smooth="yes"/>
			<point x="312" y="390"/>
			<point x="326" y="364"/>
			<point x="326" y="330" type="curve" smooth="yes"/>
			<point x="326" y="320"/>
			<point x="324" y="309"/>
			<point x="322" y="302" type="curve"/>
		</contour>
		<contour>
			<point name="aboveLC" x="310" y="522" type="move"/>
		</contour>
		<contour>
			<point name="belowLC" x="200" y="-22" type="move"/>
		</contour>
		<contour>
			<point name="ogonekLC" x="200" y="0" type="move"/>
		</contour>
	</outline>
</glyph>
<glyph name="schwa" format="1">
	<unicode hex="0259"/>
	<advance width="502"/>
	<outline>
		<contour>
			<point x="190" y="-12" type="curve" smooth="yes"/>
			<point x="324" y="-12"/>
			<point x="472" y="112"/>
			<point x="472" y="296" type="curve" smooth="yes"/>
			<point x="472" y="440"/>
			<point x="392" y="512"/>
			<point x="278" y="512" type="curve" smooth="yes"/>
			<point x="216" y="512"/>
			<point x="160" y="496"/>
			<point x="102" y="466" type="curve"/>
			<point x="148" y="364" type="line"/>
			<point x="178" y="380"/>
			<point x="214" y="392"/>
			<point x="238" y="392" type="curve" smooth="yes"/>
			<point x="284" y="392"/>
			<point x="320" y="368"/>
			<point x="322" y="294" type="curve"/>
			<point x="52" y="294" type="line"/>
			<point x="38" y="270"/>
			<point x="24" y="220"/>
			<point x="24" y="178" type="curve" smooth="yes"/>
			<point x="24" y="74"/>
			<point x="68" y="-12"/>
		</contour>
		<contour>
			<point x="210" y="110" type="curve" smooth="yes"/>
			<point x="168" y="110"/>
			<point x="154" y="136"/>
			<point x="154" y="170" type="curve" smooth="yes"/>
			<point x="154" y="180"/>
			<point x="156" y="188"/>
			<point x="158" y="198" type="curve"/>
			<point x="310" y="198" type="line"/>
			<point x="288" y="134"/>
			<point x="248" y="110"/>
		</contour>
		<contour>
			<point name="aboveLC" x="300" y="522" type="move"/>
		</contour>
		<contour>
			<point name="belowLC" x="190" y="-22" type="move"/>
		</contour>
		<contour>
			<point name="ogonekLC" x="190" y="0" type="move"/>
		</contour>
	</outline>
</glyph>
<glyph name="schwahookrhotic" format="1">
	<unicode hex="025A"/>
	<advance width="720"/>
	<outline>
		<contour>
			<point x="196" y="-12" type="curve" smooth="yes"/>
			<point x="334" y="-12"/>
			<point x="472" y="112"/>
			<point x="472" y="296" type="curve" smooth="yes"/>
			<point x="472" y="440"/>
			<point x="390" y="512"/>
			<point x="274" y="512" type="curve" smooth="yes"/>
			<point x="206" y="512"/>
			<point x="154" y="495"/>
			<point x="94" y="464" type="curve"/>
			<point x="142" y="358" type="line"/>
			<point x="176" y="376"/>
			<point x="210" y="388"/>
			<point x="238" y="388" type="curve" smooth="yes"/>
			<point x="282" y="388"/>
			<point x="322" y="365"/>
			<point x="322" y="294" type="curve" smooth="yes"/>
			<point x="322" y="159"/>
			<point x="254" y="110"/>
			<point x="212" y="110" type="curve" smooth="yes"/>
			<point x="174" y="110"/>
			<point x="150" y="128"/>
			<point x="150" y="168" type="curve"/>
			<point x="540" y="324" type="line"/>
			<point x="536" y="308"/>
			<point x="534" y="292"/>
			<point x="534" y="280" type="curve" smooth="yes"/>
			<point x="534" y="219"/>
			<point x="579" y="194"/>
			<point x="624" y="194" type="curve" smooth="yes"/>
			<point x="667" y="194"/>
			<point x="695" y="206"/>
			<point x="720" y="220" type="curve"/>
			<point x="703" y="300" type="line"/>
			<point x="692" y="294"/>
			<point x="680" y="290"/>
			<point x="662" y="290" type="curve" smooth="yes"/>
			<point x="640" y="290"/>
			<point x="628" y="304"/>
			<point x="628" y="340" type="curve" smooth="yes"/>
			<point x="628" y="370"/>
			<point x="634" y="410"/>
			<point x="650" y="466" type="curve"/>
			<point x="24" y="222" type="line"/>
			<point x="22" y="212"/>
			<point x="20" y="193"/>
			<point x="20" y="178" type="curve" smooth="yes"/>
			<point x="20" y="74"/>
			<point x="76" y="-12"/>
		</contour>
		<contour>
			<point name="aboveLC" x="290" y="520" type="move"/>
		</contour>
		<contour>
			<point name="belowLC" x="230" y="-20" type="move"/>
		</contour>
	</outline>
</glyph>
<glyph name="eopen" format="1">
	<unicode hex="025B"/>
	<advance width="454"/>
	<outline>
		<contour>
			<point x="214" y="-12" type="curve" smooth="yes"/>
			<point x="272" y="-12"/>
			<point x="325" y="-2"/>
			<point x="392" y="36" type="curve"/>
			<point x="354" y="134" type="line"/>
			<point x="317" y="115"/>
			<point x="279" y="108"/>
			<point x="255" y="108" type="curve" smooth="yes"/>
			<point x="212" y="108"/>
			<point x="182" y="125"/>
			<point x="182" y="155" type="curve" smooth="yes"/>
			<point x="182" y="186"/>
			<point x="202" y="206"/>
			<point x="252" y="206" type="curve" smooth="yes"/>
			<point x="336" y="206" type="line"/>
			<point x="356" y="302" type="line"/>
			<point x="286" y="302" type="line" smooth="yes"/>
			<point x="258" y="302"/>
			<point x="238" y="314"/>
			<point x="238" y="340" type="curve" smooth="yes"/>
			<point x="238" y="366"/>
			<point x="260" y="390"/>
			<point x="299" y="390" type="curve" smooth="yes"/>
			<point x="333" y="390"/>
			<point x="360" y="383"/>
			<point x="388" y="366" type="curve"/>
			<point x="464" y="468" type="line"/>
			<point x="420" y="498"/>
			<point x="371" y="512"/>
			<point x="312" y="512" type="curve" smooth="yes"/>
			<point x="166" y="512"/>
			<point x="80" y="438"/>
			<point x="80" y="348" type="curve" smooth="yes"/>
			<point x="80" y="313"/>
			<point x="104" y="278"/>
			<point x="148" y="264" type="curve"/>
			<point x="148" y="260" type="line"/>
			<point x="60" y="240"/>
			<point x="18" y="184"/>
			<point x="18" y="118" type="curve" smooth="yes"/>
			<point x="18" y="28"/>
			<point x="112" y="-12"/>
		</contour>
		<contour>
			<point name="aboveLC" x="300" y="520" type="move"/>
		</contour>
		<contour>
			<point name="baseLC" x="200" y="0" type="move"/>
		</contour>
		<contour>
			<point name="belowLC" x="200" y="-20" type="move"/>
		</contour>
	</outline>
</glyph>
<glyph name="eopenreversedrhotic" format="2">
	<unicode hex="025D"/>
	<advance width="640"/>
	<outline>
		<contour>
			<point x="168" y="-12" type="curve" smooth="yes"/>
			<point x="284" y="-12"/>
			<point x="402" y="58"/>
			<point x="402" y="162" type="curve" smooth="yes"/>
			<point x="402" y="210"/>
			<point x="378" y="242"/>
			<point x="318" y="258" type="curve"/>
			<point x="318" y="262" type="line"/>
			<point x="460" y="324" type="line"/>
			<point x="456" y="308"/>
			<point x="454" y="292"/>
			<point x="454" y="280" type="curve" smooth="yes"/>
			<point x="454" y="220"/>
			<point x="504" y="194"/>
			<point x="552" y="194" type="curve" smooth="yes"/>
			<point x="592" y="194"/>
			<point x="618" y="206"/>
			<point x="642" y="220" type="curve"/>
			<point x="620" y="300" type="line"/>
			<point x="610" y="294"/>
			<point x="598" y="290"/>
			<point x="586" y="290" type="curve" smooth="yes"/>
			<point x="560" y="290"/>
			<point x="548" y="304"/>
			<point x="548" y="340" type="curve" smooth="yes"/>
			<point x="548" y="368"/>
			<point x="552" y="402"/>
			<point x="566" y="452" type="curve"/>
			<point x="558" y="462" type="line"/>
			<point x="396" y="394" type="line"/>
			<point x="376" y="290" type="line"/>
			<point x="410" y="320"/>
			<point x="420" y="354"/>
			<point x="420" y="388" type="curve" smooth="yes"/>
			<point x="420" y="468"/>
			<point x="348" y="512"/>
			<point x="258" y="512" type="curve" smooth="yes"/>
			<point x="197" y="512"/>
			<point x="139" y="499"/>
			<point x="80" y="468" type="curve"/>
			<point x="122" y="366" type="line"/>
			<point x="155" y="381"/>
			<point x="181" y="390"/>
			<point x="214" y="390" type="curve" smooth="yes"/>
			<point x="244" y="390"/>
			<point x="264" y="376"/>
			<point x="264" y="354" type="curve" smooth="yes"/>
			<point x="264" y="326"/>
			<point x="240" y="306"/>
			<point x="200" y="306" type="curve" smooth="yes"/>
			<point x="142" y="306" type="line"/>
			<point x="120" y="202" type="line"/>
			<point x="182" y="202" type="line" smooth="yes"/>
			<point x="222" y="202"/>
			<point x="242" y="190"/>
			<point x="242" y="164" type="curve" smooth="yes"/>
			<point x="242" y="130"/>
			<point x="209" y="110"/>
			<point x="162" y="110" type="curve" smooth="yes"/>
			<point x="130" y="110"/>
			<point x="90" y="116"/>
			<point x="56" y="136" type="curve"/>
			<point x="4" y="36" type="line"/>
			<point x="54" y="-2"/>
			<point x="116" y="-12"/>
		</contour>
	</outline>
	<anchor name="aboveLC" x="270" y="522"/>
	<anchor name="belowLC" x="170" y="-22"/>
</glyph>
<glyph name="dotlessjstroke" format="2">
	<unicode hex="025F"/>
	<advance width="326"/>
	<outline>
		<contour>
			<point x="-14" y="202" type="line"/>
			<point x="316" y="202" type="line"/>
			<point x="336" y="306" type="line"/>
			<point x="98" y="306" type="line"/>
			<point x="6" y="300" type="line"/>
		</contour>
		<component base="dotlessj" xOffset="24"/>
	</outline>
	<anchor name="aboveLC" x="210" y="522"/>
	<anchor name="belowLC" x="30" y="-202"/>
</glyph>
<glyph name="ghook" format="1">
	<unicode hex="0260"/>
	<advance width="568"/>
	<outline>
		<contour>
			<point x="180" y="-196" type="curve" smooth="yes"/>
			<point x="322" y="-196"/>
			<point x="417" y="-130"/>
			<point x="448" y="20" type="curve" smooth="yes"/>
			<point x="540" y="472" type="line" smooth="yes"/>
			<point x="550" y="520"/>
			<point x="572" y="536"/>
			<point x="602" y="536" type="curve" smooth="yes"/>
			<point x="608" y="536"/>
			<point x="618" y="534"/>
			<point x="622" y="532" type="curve"/>
			<point x="668" y="650" type="line"/>
			<point x="654" y="656"/>
			<point x="630" y="662"/>
			<point x="606" y="662" type="curve" smooth="yes"/>
			<point x="474" y="662"/>
			<point x="412" y="582"/>
			<point x="394" y="494" type="curve" smooth="yes"/>
			<point x="386" y="456" type="line"/>
			<point x="384" y="456" type="line"/>
			<point x="366" y="490"/>
			<point x="330" y="512"/>
			<point x="288" y="512" type="curve" smooth="yes"/>
			<point x="150" y="512"/>
			<point x="28" y="372"/>
			<point x="28" y="194" type="curve" smooth="yes"/>
			<point x="28" y="76"/>
			<point x="90" y="20"/>
			<point x="174" y="20" type="curve" smooth="yes"/>
			<point x="226" y="20"/>
			<point x="278" y="44"/>
			<point x="320" y="88" type="curve"/>
			<point x="294" y="6" type="line" smooth="yes"/>
			<point x="278" y="-44"/>
			<point x="238" y="-70"/>
			<point x="184" y="-70" type="curve" smooth="yes"/>
			<point x="140" y="-70"/>
			<point x="98" y="-48"/>
			<point x="60" y="-20" type="curve"/>
			<point x="-8" y="-126" type="line"/>
			<point x="52" y="-174"/>
			<point x="124" y="-196"/>
		</contour>
		<contour>
			<point x="238" y="150" type="curve" smooth="yes"/>
			<point x="212" y="150"/>
			<point x="194" y="170"/>
			<point x="194" y="214" type="curve" smooth="yes"/>
			<point x="194" y="314"/>
			<point x="242" y="382"/>
			<point x="300" y="382" type="curve" smooth="yes"/>
			<point x="318" y="382"/>
			<point x="340" y="370"/>
			<point x="352" y="344" type="curve"/>
			<point x="326" y="206" type="line"/>
			<point x="300" y="160"/>
			<point x="266" y="150"/>
		</contour>
		<contour>
			<point name="aboveLC" x="298" y="522" type="move"/>
		</contour>
		<contour>
			<point name="belowLC" x="200" y="-198" type="move"/>
		</contour>
	</outline>
</glyph>
<glyph name="gscript" format="1">
	<unicode hex="0261"/>
	<advance width="552"/>
	<outline>
		<component base="g"/>
		<contour>
			<point name="aboveLC" x="310" y="522" type="move"/>
		</contour>
		<contour>
			<point name="belowLC" x="200" y="-198" type="move"/>
		</contour>
	</outline>
</glyph>
<glyph name="gsmall" format="2">
	<unicode hex="0262"/>
	<advance width="503"/>
	<outline>
		<contour>
			<point x="235" y="-12" type="curve" smooth="yes"/>
			<point x="306" y="-12"/>
			<point x="378" y="14"/>
			<point x="424" y="50" type="curve"/>
			<point x="474" y="302" type="line"/>
			<point x="270" y="302" type="line"/>
			<point x="250" y="206" type="line"/>
			<point x="320" y="206" type="line"/>
			<point x="302" y="116" type="line"/>
			<point x="290" y="109"/>
			<point x="278" y="108"/>
			<point x="263" y="108" type="curve" smooth="yes"/>
			<point x="217" y="108"/>
			<point x="190" y="143"/>
			<point x="190" y="205" type="curve" smooth="yes"/>
			<point x="190" y="312"/>
			<point x="250" y="390"/>
			<point x="324" y="390" type="curve" smooth="yes"/>
			<point x="360" y="390"/>
			<point x="382" y="380"/>
			<point x="406" y="358" type="curve"/>
			<point x="492" y="450" type="line"/>
			<point x="456" y="486"/>
			<point x="410" y="512"/>
			<point x="332" y="512" type="curve" smooth="yes"/>
			<point x="175" y="512"/>
			<point x="26" y="379"/>
			<point x="26" y="200" type="curve" smooth="yes"/>
			<point x="26" y="53"/>
			<point x="124" y="-12"/>
		</contour>
	</outline>
	<anchor name="aboveLC" x="330" y="522"/>
	<anchor name="belowLC" x="230" y="-22"/>
</glyph>
<glyph name="henghook" format="1">
	<unicode hex="0267"/>
	<advance width="559"/>
	<outline>
		<contour>
			<point x="283" y="-188" type="curve" smooth="yes"/>
			<point x="427" y="-188"/>
			<point x="490" y="-86"/>
			<point x="512" y="26" type="curve" smooth="yes"/>
			<point x="564" y="288" type="line" smooth="yes"/>
			<point x="589" y="412"/>
			<point x="561" y="492"/>
			<point x="455" y="492" type="curve" smooth="yes"/>
			<point x="390" y="492"/>
			<point x="337" y="458"/>
			<point x="299" y="428" type="curve"/>
			<point x="317" y="492" type="line" smooth="yes"/>
			<point x="335" y="554"/>
			<point x="362" y="574"/>
			<point x="405" y="574" type="curve" smooth="yes"/>
			<point x="420" y="574"/>
			<point x="436" y="570"/>
			<point x="451" y="564" type="curve"/>
			<point x="505" y="690" type="line"/>
			<point x="485" y="698"/>
			<point x="451" y="708"/>
			<point x="406" y="708" type="curve" smooth="yes"/>
			<point x="251" y="708"/>
			<point x="176" y="603"/>
			<point x="153" y="486" type="curve" smooth="yes"/>
			<point x="56" y="0" type="line"/>
			<point x="221" y="0" type="line"/>
			<point x="282" y="308" type="line"/>
			<point x="312" y="332"/>
			<point x="332" y="346"/>
			<point x="363" y="346" type="curve" smooth="yes"/>
			<point x="396" y="346"/>
			<point x="408" y="330"/>
			<point x="395" y="266" type="curve" smooth="yes"/>
			<point x="346" y="20" type="line"/>
			<point x="335" y="-34"/>
			<point x="318" y="-54"/>
			<point x="283" y="-54" type="curve" smooth="yes"/>
			<point x="271" y="-54"/>
			<point x="262" y="-52"/>
			<point x="250" y="-48" type="curve"/>
			<point x="196" y="-174" type="line"/>
			<point x="215" y="-182"/>
			<point x="239" y="-188"/>
		</contour>
		<contour>
			<point name="aboveUC" x="279" y="730" type="move"/>
		</contour>
		<contour>
			<point name="belowLC" x="279" y="-119" type="move"/>
		</contour>
	</outline>
</glyph>
<glyph name="iotalatin" format="2">
	<unicode hex="0269"/>
	<advance width="286"/>
	<outline>
		<contour>
			<point x="148" y="-12" type="curve" smooth="yes"/>
			<point x="184" y="-12"/>
			<point x="212" y="-6"/>
			<point x="230" y="0" type="curve"/>
			<point x="236" y="118" type="line"/>
			<point x="228" y="116"/>
			<point x="224" y="116"/>
			<point x="218" y="116" type="curve" smooth="yes"/>
			<point x="208" y="116"/>
			<point x="198" y="122"/>
			<point x="198" y="141" type="curve" smooth="yes"/>
			<point x="198" y="146"/>
			<point x="198" y="150"/>
			<point x="200" y="160" type="curve" smooth="yes"/>
			<point x="270" y="500" type="line"/>
			<point x="110" y="500" type="line"/>
			<point x="42" y="166" type="line" smooth="yes"/>
			<point x="36" y="138"/>
			<point x="34" y="118"/>
			<point x="34" y="98" type="curve" smooth="yes"/>
			<point x="34" y="30"/>
			<point x="66" y="-12"/>
		</contour>
	</outline>
	<anchor name="aboveLC" x="190" y="522"/>
	<anchor name="belowLC" x="120" y="-22"/>
</glyph>
<glyph name="Ismall" format="1">
	<unicode hex="026A"/>
	<unicode hex="A7AE"/>
	<advance width="399"/>
	<outline>
		<contour>
			<point x="12" y="0" type="line"/>
			<point x="306" y="0" type="line"/>
			<point x="330" y="124" type="line"/>
			<point x="264" y="124" type="line"/>
			<point x="314" y="376" type="line"/>
			<point x="380" y="376" type="line"/>
			<point x="404" y="500" type="line"/>
			<point x="112" y="500" type="line"/>
			<point x="88" y="376" type="line"/>
			<point x="154" y="376" type="line"/>
			<point x="104" y="124" type="line"/>
			<point x="38" y="124" type="line"/>
		</contour>
		<contour>
			<point name="aboveLC" x="260" y="522" type="move"/>
		</contour>
		<contour>
			<point name="belowLC" x="160" y="-22" type="move"/>
		</contour>
		<contour>
			<point name="ogonekLC" x="160" y="0" type="move"/>
		</contour>
	</outline>
</glyph>
<glyph name="lretroflex" format="1">
	<unicode hex="026D"/>
	<advance width="286"/>
	<outline>
		<contour>
			<point x="124" y="-188" type="curve" smooth="yes"/>
			<point x="169" y="-188"/>
			<point x="212" y="-176"/>
			<point x="236" y="-168" type="curve"/>
			<point x="212" y="-54" type="line"/>
			<point x="202" y="-58"/>
			<point x="194" y="-60"/>
			<point x="184" y="-60" type="curve" smooth="yes"/>
			<point x="170" y="-60"/>
			<point x="162" y="-54"/>
			<point x="162" y="-35" type="curve" smooth="yes"/>
			<point x="162" y="-30"/>
			<point x="162" y="-26"/>
			<point x="164" y="-16" type="curve" smooth="yes"/>
			<point x="308" y="696" type="line"/>
			<point x="148" y="696" type="line"/>
			<point x="6" y="-10" type="line" smooth="yes"/>
			<point x="0" y="-38"/>
			<point x="-2" y="-58"/>
			<point x="-2" y="-82" type="curve" smooth="yes"/>
			<point x="-2" y="-146"/>
			<point x="34" y="-188"/>
		</contour>
		<contour>
			<point name="aboveUC" x="240" y="720" type="move"/>
		</contour>
		<contour>
			<point name="belowLC" x="90" y="-198" type="move"/>
		</contour>
	</outline>
</glyph>
<glyph name="mturned" format="2">
	<unicode hex="026F"/>
	<advance width="834"/>
	<outline>
		<contour>
			<point x="150" y="-12" type="curve" smooth="yes"/>
			<point x="208" y="-12"/>
			<point x="264" y="24"/>
			<point x="316" y="72" type="curve"/>
			<point x="332" y="20"/>
			<point x="360" y="-12"/>
			<point x="432" y="-12" type="curve" smooth="yes"/>
			<point x="490" y="-12"/>
			<point x="544" y="24"/>
			<point x="590" y="64" type="curve"/>
			<point x="594" y="64" type="line"/>
			<point x="594" y="0" type="line"/>
			<point x="724" y="0" type="line"/>
			<point x="824" y="500" type="line"/>
			<point x="664" y="500" type="line"/>
			<point x="602" y="180" type="line"/>
			<point x="566" y="142"/>
			<point x="540" y="124"/>
			<point x="518" y="124" type="curve" smooth="yes"/>
			<point x="494" y="124"/>
			<point x="478" y="138"/>
			<point x="478" y="166" type="curve" smooth="yes"/>
			<point x="478" y="178"/>
			<point x="482" y="192"/>
			<point x="486" y="210" type="curve" smooth="yes"/>
			<point x="544" y="500" type="line"/>
			<point x="384" y="500" type="line"/>
			<point x="320" y="180" type="line"/>
			<point x="284" y="142"/>
			<point x="258" y="124"/>
			<point x="238" y="124" type="curve" smooth="yes"/>
			<point x="212" y="124"/>
			<point x="196" y="138"/>
			<point x="196" y="166" type="curve" smooth="yes"/>
			<point x="196" y="178"/>
			<point x="200" y="192"/>
			<point x="204" y="210" type="curve" smooth="yes"/>
			<point x="262" y="500" type="line"/>
			<point x="102" y="500" type="line"/>
			<point x="40" y="190" type="line" smooth="yes"/>
			<point x="35" y="166"/>
			<point x="32" y="140"/>
			<point x="32" y="118" type="curve" smooth="yes"/>
			<point x="32" y="32"/>
			<point x="68" y="-12"/>
		</contour>
	</outline>
	<anchor name="aboveLC" x="470" y="522"/>
	<anchor name="belowLC" x="370" y="-22"/>
</glyph>
<glyph name="nretroflex" format="2">
	<unicode hex="0273"/>
	<advance width="562"/>
	<outline>
		<contour>
			<point x="410" y="-188" type="curve" smooth="yes"/>
			<point x="452" y="-188"/>
			<point x="496" y="-176"/>
			<point x="524" y="-160" type="curve"/>
			<point x="498" y="-56" type="line"/>
			<point x="486" y="-60"/>
			<point x="480" y="-60"/>
			<point x="470" y="-60" type="curve" smooth="yes"/>
			<point x="456" y="-60"/>
			<point x="448" y="-54"/>
			<point x="448" y="-35" type="curve" smooth="yes"/>
			<point x="448" y="-30"/>
			<point x="448" y="-26"/>
			<point x="450" y="-16" type="curve" smooth="yes"/>
			<point x="516" y="310" type="line" smooth="yes"/>
			<point x="521" y="334"/>
			<point x="524" y="360"/>
			<point x="524" y="382" type="curve" smooth="yes"/>
			<point x="524" y="468"/>
			<point x="488" y="512"/>
			<point x="406" y="512" type="curve" smooth="yes"/>
			<point x="342" y="512"/>
			<point x="288" y="476"/>
			<point x="242" y="436" type="curve"/>
			<point x="238" y="436" type="line"/>
			<point x="238" y="500" type="line"/>
			<point x="108" y="500" type="line"/>
			<point x="8" y="0" type="line"/>
			<point x="168" y="0" type="line"/>
			<point x="230" y="320" type="line"/>
			<point x="266" y="358"/>
			<point x="290" y="376"/>
			<point x="318" y="376" type="curve" smooth="yes"/>
			<point x="344" y="376"/>
			<point x="360" y="362"/>
			<point x="360" y="334" type="curve" smooth="yes"/>
			<point x="360" y="322"/>
			<point x="356" y="308"/>
			<point x="352" y="290" type="curve" smooth="yes"/>
			<point x="292" y="-10" type="line" smooth="yes"/>
			<point x="286" y="-38"/>
			<point x="286" y="-54"/>
			<point x="286" y="-78" type="curve" smooth="yes"/>
			<point x="286" y="-144"/>
			<point x="328" y="-188"/>
		</contour>
	</outline>
	<anchor name="aboveLC" x="360" y="522"/>
	<anchor name="belowLC" x="209" y="-182"/>
</glyph>
<glyph name="obar" format="2">
	<unicode hex="0275"/>
	<advance width="538"/>
	<outline>
		<contour>
			<point x="226" y="-12" type="curve" smooth="yes"/>
			<point x="364" y="-12"/>
			<point x="510" y="110"/>
			<point x="510" y="304" type="curve" smooth="yes"/>
			<point x="510" y="428"/>
			<point x="430" y="512"/>
			<point x="310" y="512" type="curve" smooth="yes"/>
			<point x="172" y="512"/>
			<point x="26" y="390"/>
			<point x="26" y="196" type="curve" smooth="yes"/>
			<point x="26" y="72"/>
			<point x="106" y="-12"/>
		</contour>
		<contour>
			<point x="242" y="110" type="curve" smooth="yes"/>
			<point x="194" y="110"/>
			<point x="176" y="146"/>
			<point x="176" y="198" type="curve" smooth="yes"/>
			<point x="176" y="306"/>
			<point x="222" y="390"/>
			<point x="294" y="390" type="curve" smooth="yes"/>
			<point x="342" y="390"/>
			<point x="360" y="354"/>
			<point x="360" y="302" type="curve" smooth="yes"/>
			<point x="360" y="194"/>
			<point x="314" y="110"/>
		</contour>
		<contour>
			<point x="158" y="202" type="line"/>
			<point x="357" y="202" type="line"/>
			<point x="378" y="306" type="line"/>
			<point x="179" y="306" type="line"/>
		</contour>
	</outline>
	<anchor name="aboveLC" x="320" y="522"/>
	<anchor name="belowLC" x="200" y="-22"/>
	<anchor name="ogonekLC" x="210" y="0"/>
</glyph>
<glyph name="omegalatinclosed" format="1">
	<unicode hex="0277"/>
	<advance width="740"/>
	<outline>
		<contour>
			<point x="202" y="-12" type="curve" smooth="yes"/>
			<point x="252" y="-12"/>
			<point x="306" y="18"/>
			<point x="336" y="86" type="curve"/>
			<point x="340" y="86" type="line"/>
			<point x="356" y="14"/>
			<point x="416" y="-12"/>
			<point x="485" y="-12" type="curve" smooth="yes"/>
			<point x="630" y="-12"/>
			<point x="706" y="126"/>
			<point x="706" y="258" type="curve" smooth="yes"/>
			<point x="706" y="436"/>
			<point x="562" y="510"/>
			<point x="402" y="510" type="curve" smooth="yes"/>
			<point x="170" y="510"/>
			<point x="24" y="346"/>
			<point x="24" y="165" type="curve" smooth="yes"/>
			<point x="24" y="38"/>
			<point x="109" y="-12"/>
		</contour>
		<contour>
			<point x="227" y="116" type="curve" smooth="yes"/>
			<point x="203" y="116"/>
			<point x="186" y="131"/>
			<point x="186" y="178" type="curve" smooth="yes"/>
			<point x="186" y="282"/>
			<point x="257" y="382"/>
			<point x="384" y="382" type="curve" smooth="yes"/>
			<point x="477" y="382"/>
			<point x="544" y="342"/>
			<point x="544" y="254" type="curve" smooth="yes"/>
			<point x="544" y="173"/>
			<point x="507" y="120"/>
			<point x="468" y="120" type="curve" smooth="yes"/>
			<point x="445" y="120"/>
			<point x="430" y="130"/>
			<point x="430" y="158" type="curve" smooth="yes"/>
			<point x="430" y="170"/>
			<point x="433" y="184"/>
			<point x="436" y="201" type="curve" smooth="yes"/>
			<point x="458" y="310" type="line"/>
			<point x="310" y="310" type="line"/>
			<point x="288" y="216" type="line" smooth="yes"/>
			<point x="273" y="153"/>
			<point x="258" y="116"/>
		</contour>
		<contour>
			<point name="belowLC" x="330" y="-22" type="move"/>
		</contour>
		<contour>
			<point name="aboveLC" x="390" y="522" type="move"/>
		</contour>
	</outline>
</glyph>
<glyph name="rsmall" format="2">
	<unicode hex="0280"/>
	<advance width="524"/>
	<outline>
		<contour>
			<point x="8" y="0" type="line"/>
			<point x="168" y="0" type="line"/>
			<point x="200" y="160" type="line"/>
			<point x="242" y="160" type="line" smooth="yes"/>
			<point x="383" y="160"/>
			<point x="488" y="236"/>
			<point x="488" y="362" type="curve" smooth="yes"/>
			<point x="488" y="466"/>
			<point x="412" y="500"/>
			<point x="314" y="500" type="curve" smooth="yes"/>
			<point x="108" y="500" type="line"/>
		</contour>
		<contour>
			<point x="218" y="258" type="line"/>
			<point x="242" y="378" type="line"/>
			<point x="270" y="378" type="line" smooth="yes"/>
			<point x="306" y="378"/>
			<point x="324" y="362"/>
			<point x="324" y="330" type="curve" smooth="yes"/>
			<point x="324" y="291"/>
			<point x="293" y="258"/>
			<point x="246" y="258" type="curve" smooth="yes"/>
		</contour>
		<contour>
			<point x="288" y="0" type="line"/>
			<point x="462" y="0" type="line"/>
			<point x="364" y="242" type="line"/>
			<point x="228" y="196" type="line"/>
		</contour>
	</outline>
	<anchor name="aboveLC" x="310" y="522"/>
	<anchor name="belowLC" x="240" y="-22"/>
</glyph>
<glyph name="Rsmallinverted" format="1">
	<unicode hex="0281"/>
	<advance width="524"/>
	<outline>
		<contour>
			<point x="208" y="0" type="curve" smooth="yes"/>
			<point x="414" y="0" type="line"/>
			<point x="514" y="500" type="line"/>
			<point x="354" y="500" type="line"/>
			<point x="322" y="340" type="line"/>
			<point x="280" y="340" type="line" smooth="yes"/>
			<point x="139" y="340"/>
			<point x="34" y="264"/>
			<point x="34" y="138" type="curve" smooth="yes"/>
			<point x="34" y="34"/>
			<point x="110" y="0"/>
		</contour>
		<contour>
			<point x="252" y="126" type="line" smooth="yes"/>
			<point x="216" y="126"/>
			<point x="198" y="142"/>
			<point x="198" y="174" type="curve" smooth="yes"/>
			<point x="198" y="212"/>
			<point x="229" y="244"/>
			<point x="276" y="244" type="curve" smooth="yes"/>
			<point x="304" y="244" type="line"/>
			<point x="280" y="126" type="line"/>
		</contour>
		<contour>
			<point x="158" y="258" type="line"/>
			<point x="294" y="304" type="line"/>
			<point x="234" y="500" type="line"/>
			<point x="60" y="500" type="line"/>
		</contour>
		<contour>
			<point name="aboveLC" x="300" y="522" type="move"/>
		</contour>
		<contour>
			<point name="belowLC" x="230" y="-22" type="move"/>
		</contour>
	</outline>
</glyph>
<glyph name="rsmallinverted" format="2">
	<unicode hex="0281"/>
	<advance width="524"/>
	<outline>
		<contour>
			<point x="208" y="0" type="curve" smooth="yes"/>
			<point x="414" y="0" type="line"/>
			<point x="514" y="500" type="line"/>
			<point x="354" y="500" type="line"/>
			<point x="322" y="340" type="line"/>
			<point x="280" y="340" type="line" smooth="yes"/>
			<point x="139" y="340"/>
			<point x="34" y="264"/>
			<point x="34" y="138" type="curve" smooth="yes"/>
			<point x="34" y="34"/>
			<point x="110" y="0"/>
		</contour>
		<contour>
			<point x="252" y="122" type="line" smooth="yes"/>
			<point x="216" y="122"/>
			<point x="198" y="138"/>
			<point x="198" y="170" type="curve" smooth="yes"/>
			<point x="198" y="209"/>
			<point x="229" y="242"/>
			<point x="276" y="242" type="curve" smooth="yes"/>
			<point x="304" y="242" type="line"/>
			<point x="280" y="122" type="line"/>
		</contour>
		<contour>
			<point x="158" y="258" type="line"/>
			<point x="294" y="304" type="line"/>
			<point x="234" y="500" type="line"/>
			<point x="60" y="500" type="line"/>
		</contour>
	</outline>
	<anchor name="aboveLC" x="300" y="522"/>
	<anchor name="belowLC" x="230" y="-22"/>
</glyph>
<glyph name="shook" format="1">
	<unicode hex="0282"/>
	<advance width="432"/>
	<outline>
		<contour>
			<point x="104" y="-188" type="curve" smooth="yes"/>
			<point x="140" y="-188"/>
			<point x="164" y="-182"/>
			<point x="184" y="-174" type="curve"/>
			<point x="170" y="-58" type="line"/>
			<point x="158" y="-62"/>
			<point x="154" y="-62"/>
			<point x="144" y="-62" type="curve" smooth="yes"/>
			<point x="118" y="-62"/>
			<point x="105" y="-44"/>
			<point x="105" y="-15" type="curve" smooth="yes"/>
			<point x="105" y="-5"/>
			<point x="106" y="7"/>
			<point x="109" y="20" type="curve"/>
			<point x="-10" y="86" type="line"/>
			<point x="-27" y="10"/>
			<point x="-30" y="-25"/>
			<point x="-30" y="-48" type="curve" smooth="yes"/>
			<point x="-30" y="-126"/>
			<point x="6" y="-188"/>
		</contour>
		<component base="s"/>
		<contour>
			<point name="aboveLC" x="270" y="520" type="move"/>
		</contour>
		<contour>
			<point name="belowLC" x="180" y="-198" type="move"/>
		</contour>
	</outline>
</glyph>
<glyph name="esh" format="2">
	<unicode hex="0283"/>
	<advance width="278"/>
	<outline>
		<contour>
			<point x="-30" y="-188" type="curve" smooth="yes"/>
			<point x="90" y="-188"/>
			<point x="149" y="-106"/>
			<point x="170" y="2" type="curve" smooth="yes"/>
			<point x="268" y="500" type="line" smooth="yes"/>
			<point x="280" y="560"/>
			<point x="300" y="582"/>
			<point x="340" y="582" type="curve" smooth="yes"/>
			<point x="350" y="582"/>
			<point x="362" y="580"/>
			<point x="370" y="576" type="curve"/>
			<point x="424" y="690" type="line"/>
			<point x="408" y="698"/>
			<point x="372" y="708"/>
			<point x="344" y="708" type="curve" smooth="yes"/>
			<point x="192" y="708"/>
			<point x="132" y="616"/>
			<point x="108" y="494" type="curve" smooth="yes"/>
			<point x="12" y="10" type="line" smooth="yes"/>
			<point x="2" y="-42"/>
			<point x="-12" y="-62"/>
			<point x="-44" y="-62" type="curve" smooth="yes"/>
			<point x="-58" y="-62"/>
			<point x="-72" y="-58"/>
			<point x="-86" y="-50" type="curve"/>
			<point x="-134" y="-164" type="line"/>
			<point x="-98" y="-182"/>
			<point x="-66" y="-188"/>
		</contour>
	</outline>
	<anchor name="aboveUC" x="300" y="722"/>
	<anchor name="belowLC" x="10" y="-182"/>
</glyph>
<glyph name="vhook" format="2">
	<unicode hex="028B"/>
	<advance width="546"/>
	<outline>
		<contour>
			<point x="214" y="-12" type="curve" smooth="yes"/>
			<point x="404" y="-12"/>
			<point x="522" y="184"/>
			<point x="522" y="368" type="curve" smooth="yes"/>
			<point x="522" y="468"/>
			<point x="464" y="512"/>
			<point x="384" y="512" type="curve" smooth="yes"/>
			<point x="352" y="512"/>
			<point x="332" y="510"/>
			<point x="312" y="504" type="curve"/>
			<point x="306" y="382" type="line"/>
			<point x="311" y="383"/>
			<point x="316" y="384"/>
			<point x="321" y="384" type="curve" smooth="yes"/>
			<point x="347" y="384"/>
			<point x="358" y="371"/>
			<point x="358" y="348" type="curve" smooth="yes"/>
			<point x="358" y="227"/>
			<point x="292" y="124"/>
			<point x="242" y="124" type="curve" smooth="yes"/>
			<point x="215" y="124"/>
			<point x="198" y="138"/>
			<point x="198" y="166" type="curve" smooth="yes"/>
			<point x="198" y="180"/>
			<point x="204" y="206"/>
			<point x="208" y="224" type="curve" smooth="yes"/>
			<point x="262" y="500" type="line"/>
			<point x="102" y="500" type="line"/>
			<point x="46" y="222" type="line" smooth="yes"/>
			<point x="41" y="197"/>
			<point x="38" y="175"/>
			<point x="38" y="154" type="curve" smooth="yes"/>
			<point x="38" y="46"/>
			<point x="102" y="-12"/>
		</contour>
	</outline>
	<anchor name="aboveLC" x="320" y="522"/>
	<anchor name="belowLC" x="210" y="-22"/>
</glyph>
<glyph name="vturned" format="1">
	<unicode hex="028C"/>
	<advance width="518"/>
	<outline>
		<component base="v" xScale="-1" yScale="-1" xOffset="522" yOffset="500"/>
		<contour>
			<point name="aboveLC" x="310" y="522" type="move"/>
		</contour>
		<contour>
			<point name="belowLC" x="210" y="-22" type="move"/>
		</contour>
	</outline>
</glyph>
<glyph name="zcurl" format="2">
	<unicode hex="0291"/>
	<advance width="498"/>
	<outline>
		<contour>
			<point x="240" y="-82" type="line"/>
			<point x="308" y="100"/>
			<point x="350" y="174"/>
			<point x="388" y="174" type="curve" smooth="yes"/>
			<point x="404" y="174"/>
			<point x="412" y="166"/>
			<point x="412" y="152" type="curve" smooth="yes"/>
			<point x="412" y="133"/>
			<point x="388" y="114"/>
			<point x="352" y="114" type="curve" smooth="yes"/>
			<point x="299" y="114"/>
			<point x="253" y="118"/>
			<point x="202" y="124" type="curve"/>
			<point x="442" y="408" type="line"/>
			<point x="460" y="500" type="line"/>
			<point x="108" y="500" type="line"/>
			<point x="84" y="376" type="line"/>
			<point x="248" y="376" type="line"/>
			<point x="8" y="90" type="line"/>
			<point x="-10" y="0" type="line"/>
			<point x="84" y="0"/>
			<point x="178" y="-10"/>
			<point x="272" y="-10" type="curve" smooth="yes"/>
			<point x="436" y="-10"/>
			<point x="496" y="97"/>
			<point x="496" y="178" type="curve" smooth="yes"/>
			<point x="496" y="229"/>
			<point x="463" y="256"/>
			<point x="408" y="256" type="curve" smooth="yes"/>
			<point x="320" y="256"/>
			<point x="238" y="114"/>
			<point x="164" y="-66" type="curve"/>
		</contour>
	</outline>
	<anchor name="aboveLC" x="300" y="522"/>
	<anchor name="belowLC" x="200" y="-62"/>
</glyph>
<glyph name="clickbilabial" format="2">
	<unicode hex="0298"/>
	<advance width="516"/>
	<outline>
		<contour>
			<point x="198" y="-12" type="curve" smooth="yes"/>
			<point x="388" y="-12"/>
			<point x="516" y="220"/>
			<point x="516" y="482" type="curve" smooth="yes"/>
			<point x="516" y="632"/>
			<point x="452" y="708"/>
			<point x="344" y="708" type="curve" smooth="yes"/>
			<point x="154" y="708"/>
			<point x="26" y="476"/>
			<point x="26" y="214" type="curve" smooth="yes"/>
			<point x="26" y="64"/>
			<point x="90" y="-12"/>
		</contour>
		<contour>
			<point x="226" y="126" type="curve" smooth="yes"/>
			<point x="200" y="126"/>
			<point x="176" y="149"/>
			<point x="176" y="223" type="curve" smooth="yes"/>
			<point x="176" y="390"/>
			<point x="244" y="570"/>
			<point x="316" y="570" type="curve" smooth="yes"/>
			<point x="342" y="570"/>
			<point x="366" y="547"/>
			<point x="366" y="473" type="curve" smooth="yes"/>
			<point x="366" y="306"/>
			<point x="298" y="126"/>
		</contour>
		<contour>
			<point x="258" y="282" type="curve" smooth="yes"/>
			<point x="300" y="282"/>
			<point x="340" y="318"/>
			<point x="340" y="365" type="curve" smooth="yes"/>
			<point x="340" y="396"/>
			<point x="317" y="420"/>
			<point x="286" y="420" type="curve" smooth="yes"/>
			<point x="242" y="420"/>
			<point x="204" y="384"/>
			<point x="204" y="337" type="curve" smooth="yes"/>
			<point x="204" y="306"/>
			<point x="227" y="282"/>
		</contour>
	</outline>
	<anchor name="aboveUC" x="360" y="722"/>
	<anchor name="belowLC" x="190" y="-22"/>
</glyph>
<glyph name="gsmallhook" format="2">
	<unicode hex="029B"/>
	<advance width="503"/>
	<outline>
		<contour>
			<point x="235" y="-12" type="curve" smooth="yes"/>
			<point x="306" y="-12"/>
			<point x="378" y="14"/>
			<point x="424" y="50" type="curve"/>
			<point x="474" y="302" type="line"/>
			<point x="270" y="302" type="line"/>
			<point x="250" y="206" type="line"/>
			<point x="320" y="206" type="line"/>
			<point x="302" y="116" type="line"/>
			<point x="290" y="109"/>
			<point x="278" y="108"/>
			<point x="263" y="108" type="curve" smooth="yes"/>
			<point x="217" y="108"/>
			<point x="190" y="143"/>
			<point x="190" y="205" type="curve" smooth="yes"/>
			<point x="190" y="312"/>
			<point x="250" y="390"/>
			<point x="324" y="390" type="curve" smooth="yes"/>
			<point x="360" y="390"/>
			<point x="382" y="380"/>
			<point x="406" y="358" type="curve"/>
			<point x="492" y="450" type="line"/>
			<point x="483" y="472"/>
			<point x="476" y="494"/>
			<point x="476" y="516" type="curve" smooth="yes"/>
			<point x="476" y="563"/>
			<point x="494" y="584"/>
			<point x="528" y="584" type="curve" smooth="yes"/>
			<point x="540" y="584"/>
			<point x="548" y="582"/>
			<point x="560" y="574" type="curve"/>
			<point x="610" y="683" type="line"/>
			<point x="584" y="698"/>
			<point x="548" y="708"/>
			<point x="508" y="708" type="curve" smooth="yes"/>
			<point x="414" y="708"/>
			<point x="354" y="638"/>
			<point x="354" y="572" type="curve" smooth="yes"/>
			<point x="354" y="548"/>
			<point x="356" y="530"/>
			<point x="360" y="510" type="curve"/>
			<point x="404" y="502" type="line"/>
			<point x="382" y="508"/>
			<point x="360" y="512"/>
			<point x="332" y="512" type="curve" smooth="yes"/>
			<point x="175" y="512"/>
			<point x="26" y="379"/>
			<point x="26" y="200" type="curve" smooth="yes"/>
			<point x="26" y="53"/>
			<point x="124" y="-12"/>
		</contour>
	</outline>
	<anchor name="aboveLC" x="350" y="722"/>
	<anchor name="belowLC" x="230" y="-22"/>
</glyph>
<glyph name="kturned" format="2">
	<unicode hex="029E"/>
	<advance width="544"/>
	<outline>
		<contour>
			<point x="231" y="-176" type="line"/>
			<point x="391" y="-176" type="line"/>
			<point x="526" y="500" type="line"/>
			<point x="366" y="500" type="line"/>
			<point x="342" y="382" type="line"/>
			<point x="-58" y="0" type="line"/>
			<point x="134" y="0" type="line"/>
			<point x="298" y="180" type="line"/>
			<point x="302" y="180" type="line"/>
		</contour>
		<contour>
			<point x="184" y="212" type="line"/>
			<point x="286" y="308" type="line"/>
			<point x="206" y="500" type="line"/>
			<point x="58" y="500" type="line"/>
		</contour>
	</outline>
	<anchor name="aboveLC" x="300" y="522"/>
	<anchor name="belowLC" x="310" y="-200"/>
</glyph>
<glyph name="ts" format="1">
	<unicode hex="02A6"/>
	<advance width="672"/>
	<outline>
		<contour>
			<point x="352" y="-12" type="curve" smooth="yes"/>
			<point x="551" y="-12"/>
			<point x="628" y="58"/>
			<point x="628" y="166" type="curve" smooth="yes"/>
			<point x="628" y="305"/>
			<point x="468" y="292"/>
			<point x="468" y="358" type="curve" smooth="yes"/>
			<point x="468" y="378"/>
			<point x="488" y="394"/>
			<point x="520" y="394" type="curve" smooth="yes"/>
			<point x="544" y="394"/>
			<point x="566" y="378"/>
			<point x="584" y="358" type="curve"/>
			<point x="670" y="440" type="line"/>
			<point x="634" y="480"/>
			<point x="584" y="512"/>
			<point x="520" y="512" type="curve" smooth="yes"/>
			<point x="408" y="512"/>
			<point x="318" y="440"/>
			<point x="318" y="344" type="curve" smooth="yes"/>
			<point x="318" y="216"/>
			<point x="478" y="208"/>
			<point x="478" y="148" type="curve" smooth="yes"/>
			<point x="478" y="118"/>
			<point x="458" y="104"/>
			<point x="362" y="104" type="curve" smooth="yes"/>
			<point x="273" y="104"/>
			<point x="230" y="132"/>
			<point x="230" y="186" type="curve" smooth="yes"/>
			<point x="230" y="199"/>
			<point x="231" y="212"/>
			<point x="234" y="228" type="curve" smooth="yes"/>
			<point x="264" y="376" type="line"/>
			<point x="436" y="376" type="line"/>
			<point x="460" y="500" type="line"/>
			<point x="292" y="500" type="line"/>
			<point x="320" y="648" type="line"/>
			<point x="186" y="648" type="line"/>
			<point x="138" y="500" type="line"/>
			<point x="66" y="494" type="line"/>
			<point x="42" y="376" type="line"/>
			<point x="106" y="376" type="line"/>
			<point x="76" y="234" type="line" smooth="yes"/>
			<point x="71" y="212"/>
			<point x="68" y="190"/>
			<point x="68" y="168" type="curve" smooth="yes"/>
			<point x="68" y="62"/>
			<point x="151" y="-12"/>
		</contour>
	</outline>
</glyph>
<glyph name="tesh" format="1">
	<unicode hex="02A7"/>
	<advance width="580"/>
	<outline>
		<contour>
			<point x="272" y="-188" type="curve" smooth="yes"/>
			<point x="392" y="-188"/>
			<point x="451" y="-106"/>
			<point x="472" y="2" type="curve" smooth="yes"/>
			<point x="570" y="500" type="line" smooth="yes"/>
			<point x="582" y="560"/>
			<point x="602" y="582"/>
			<point x="642" y="582" type="curve" smooth="yes"/>
			<point x="652" y="582"/>
			<point x="664" y="580"/>
			<point x="672" y="576" type="curve"/>
			<point x="726" y="690" type="line"/>
			<point x="710" y="698"/>
			<point x="674" y="708"/>
			<point x="646" y="708" type="curve" smooth="yes"/>
			<point x="494" y="708"/>
			<point x="434" y="616"/>
			<point x="410" y="494" type="curve" smooth="yes"/>
			<point x="348" y="184" type="line"/>
			<point x="316" y="146"/>
			<point x="292" y="128"/>
			<point x="266" y="128" type="curve" smooth="yes"/>
			<point x="240" y="128"/>
			<point x="224" y="142"/>
			<point x="224" y="170" type="curve" smooth="yes"/>
			<point x="224" y="182"/>
			<point x="228" y="196"/>
			<point x="232" y="214" type="curve" smooth="yes"/>
			<point x="264" y="376" type="line"/>
			<point x="396" y="376" type="line"/>
			<point x="420" y="500" type="line"/>
			<point x="292" y="500" type="line"/>
			<point x="316" y="628" type="line"/>
			<point x="182" y="628" type="line"/>
			<point x="138" y="500" type="line"/>
			<point x="66" y="494" type="line"/>
			<point x="42" y="376" type="line"/>
			<point x="106" y="376" type="line"/>
			<point x="68" y="194" type="line" smooth="yes"/>
			<point x="63" y="170"/>
			<point x="60" y="144"/>
			<point x="60" y="122" type="curve" smooth="yes"/>
			<point x="60" y="36"/>
			<point x="96" y="-8"/>
			<point x="178" y="-8" type="curve" smooth="yes"/>
			<point x="231" y="-8"/>
			<point x="283" y="19"/>
			<point x="318" y="52" type="curve"/>
			<point x="322" y="52" type="line"/>
			<point x="314" y="10" type="line" smooth="yes"/>
			<point x="304" y="-42"/>
			<point x="290" y="-62"/>
			<point x="258" y="-62" type="curve" smooth="yes"/>
			<point x="244" y="-62"/>
			<point x="230" y="-58"/>
			<point x="216" y="-50" type="curve"/>
			<point x="168" y="-164" type="line"/>
			<point x="204" y="-182"/>
			<point x="236" y="-188"/>
		</contour>
		<contour>
			<point name="aboveUC" x="420" y="720" type="move"/>
		</contour>
		<contour>
			<point name="belowLC" x="210" y="-198" type="move"/>
		</contour>
	</outline>
</glyph>
<glyph name="h.sups" format="1">
	<unicode hex="02B0"/>
	<advance width="375"/>
	<outline>
		<contour>
			<point x="38" y="368" type="line"/>
			<point x="150" y="368" type="line"/>
			<point x="191" y="578" type="line"/>
			<point x="213" y="602"/>
			<point x="229" y="614"/>
			<point x="247" y="614" type="curve" smooth="yes"/>
			<point x="263" y="614"/>
			<point x="273" y="605"/>
			<point x="273" y="587" type="curve" smooth="yes"/>
			<point x="273" y="580"/>
			<point x="271" y="572"/>
			<point x="268" y="559" type="curve" smooth="yes"/>
			<point x="230" y="368" type="line"/>
			<point x="342" y="368" type="line"/>
			<point x="383" y="573" type="line" smooth="yes"/>
			<point x="386" y="587"/>
			<point x="389" y="604"/>
			<point x="389" y="619" type="curve" smooth="yes"/>
			<point x="389" y="676"/>
			<point x="363" y="708"/>
			<point x="308" y="708" type="curve" smooth="yes"/>
			<point x="268" y="708"/>
			<point x="233" y="687"/>
			<point x="207" y="664" type="curve"/>
			<point x="204" y="664" type="line"/>
			<point x="223" y="732" type="line"/>
			<point x="242" y="828" type="line"/>
			<point x="130" y="828" type="line"/>
		</contour>
	</outline>
</glyph>
<glyph name="r.sups" format="1">
	<unicode hex="02B3"/>
	<advance width="264"/>
	<outline>
		<contour>
			<point x="38" y="368" type="line"/>
			<point x="149" y="368" type="line"/>
			<point x="187" y="565" type="line"/>
			<point x="211" y="598"/>
			<point x="233" y="611"/>
			<point x="264" y="611" type="curve" smooth="yes"/>
			<point x="275" y="611"/>
			<point x="283" y="611"/>
			<point x="292" y="606" type="curve"/>
			<point x="328" y="700" type="line"/>
			<point x="321" y="704"/>
			<point x="310" y="707"/>
			<point x="291" y="707" type="curve" smooth="yes"/>
			<point x="254" y="707"/>
			<point x="220" y="681"/>
			<point x="195" y="647" type="curve"/>
			<point x="192" y="647" type="line"/>
			<point x="193" y="700" type="line"/>
			<point x="103" y="700" type="line"/>
		</contour>
	</outline>
</glyph>
<glyph name="w.sups" format="2">
	<unicode hex="02B7"/>
	<advance width="514"/>
	<outline>
		<contour>
			<point x="120" y="368" type="line"/>
			<point x="245" y="368" type="line"/>
			<point x="292" y="487" type="line"/>
			<point x="322" y="578" type="line"/>
			<point x="325" y="578" type="line"/>
			<point x="322" y="487" type="line"/>
			<point x="323" y="368" type="line"/>
			<point x="452" y="368" type="line"/>
			<point x="589" y="700" type="line"/>
			<point x="487" y="700" type="line"/>
			<point x="434" y="555" type="line"/>
			<point x="403" y="455" type="line"/>
			<point x="400" y="455" type="line"/>
			<point x="404" y="555" type="line"/>
			<point x="395" y="700" type="line"/>
			<point x="305" y="700" type="line"/>
			<point x="243" y="555" type="line"/>
			<point x="209" y="455" type="line"/>
			<point x="206" y="455" type="line"/>
			<point x="213" y="555" type="line"/>
			<point x="216" y="700" type="line"/>
			<point x="107" y="700" type="line"/>
		</contour>
	</outline>
	<anchor name="belowLC" x="240" y="-22"/>
</glyph>
<glyph name="y.sups" format="2">
	<unicode hex="02B8"/>
	<advance width="350"/>
	<outline>
		<contour>
			<point x="100" y="236" type="curve" smooth="yes"/>
			<point x="172" y="236"/>
			<point x="216" y="279"/>
			<point x="258" y="353" type="curve" smooth="yes"/>
			<point x="434" y="700" type="line"/>
			<point x="328" y="700" type="line"/>
			<point x="264" y="549" type="line"/>
			<point x="223" y="448" type="line"/>
			<point x="221" y="448" type="line"/>
			<point x="220" y="549" type="line"/>
			<point x="209" y="700" type="line"/>
			<point x="101" y="700" type="line"/>
			<point x="156" y="361" type="line"/>
			<point x="150" y="348" type="line"/>
			<point x="141" y="332"/>
			<point x="124" y="322"/>
			<point x="97" y="322" type="curve" smooth="yes"/>
			<point x="88" y="322"/>
			<point x="78" y="324"/>
			<point x="68" y="328" type="curve"/>
			<point x="36" y="250" type="line"/>
			<point x="58" y="238"/>
			<point x="77" y="236"/>
		</contour>
	</outline>
</glyph>
<glyph name="colontriangularhalfmod" format="2">
	<unicode hex="02D1"/>
	<advance width="270"/>
	<outline>
		<contour>
			<point x="136" y="300" type="line"/>
			<point x="151" y="300" type="line"/>
			<point x="295" y="500" type="line"/>
			<point x="72" y="500" type="line"/>
		</contour>
	</outline>
</glyph>
<glyph name="hookrhoticmod" format="1">
	<unicode hex="02DE"/>
	<advance width="196"/>
	<outline>
		<contour>
			<point x="178" y="225" type="curve" smooth="yes"/>
			<point x="213" y="225"/>
			<point x="241" y="236"/>
			<point x="265" y="250" type="curve"/>
			<point x="249" y="329" type="line"/>
			<point x="238" y="324"/>
			<point x="224" y="319"/>
			<point x="208" y="319" type="curve" smooth="yes"/>
			<point x="184" y="319"/>
			<point x="168" y="352"/>
			<point x="173" y="472" type="curve"/>
			<point x="-40" y="384" type="line"/>
			<point x="-65" y="262" type="line"/>
			<point x="78" y="322" type="line"/>
			<point x="89" y="246"/>
			<point x="131" y="225"/>
		</contour>
	</outline>
</glyph>
<glyph name="l.sups" format="1">
	<unicode hex="02E1"/>
	<advance width="186"/>
	<outline>
		<contour>
			<point x="61" y="481" type="line" smooth="yes"/>
			<point x="57" y="462"/>
			<point x="56" y="449"/>
			<point x="56" y="435" type="curve" smooth="yes"/>
			<point x="56" y="389"/>
			<point x="78" y="360"/>
			<point x="135" y="360" type="curve" smooth="yes"/>
			<point x="159" y="360"/>
			<point x="179" y="364"/>
			<point x="191" y="368" type="curve"/>
			<point x="193" y="449" type="line"/>
			<point x="188" y="447"/>
			<point x="187" y="447"/>
			<point x="183" y="447" type="curve" smooth="yes"/>
			<point x="176" y="447"/>
			<point x="169" y="449"/>
			<point x="169" y="463" type="curve" smooth="yes"/>
			<point x="169" y="466"/>
			<point x="170" y="472"/>
			<point x="171" y="475" type="curve" smooth="yes"/>
			<point x="242" y="828" type="line"/>
			<point x="130" y="828" type="line"/>
		</contour>
	</outline>
</glyph>
<glyph name="gravecmb" format="1">
	<unicode hex="0300"/>
	<outline>
		<contour>
			<point x="146" y="569" type="line"/>
			<point x="244" y="645" type="line"/>
			<point x="120" y="844" type="line"/>
			<point x="-16" y="742" type="line"/>
		</contour>
		<contour>
			<point name="_aboveLC" x="100" y="522" type="move"/>
		</contour>
	</outline>
</glyph>
<glyph name="acutecmb" format="2">
	<unicode hex="0301"/>
	<outline>
		<contour>
			<point x="10" y="570" type="line"/>
			<point x="140" y="570" type="line"/>
			<point x="350" y="742" type="line"/>
			<point x="340" y="760" type="line"/>
			<point x="160" y="760" type="line"/>
		</contour>
	</outline>
	<anchor name="_aboveLC" x="100" y="522"/>
</glyph>
<glyph name="circumflexcmb" format="2">
	<unicode hex="0302"/>
	<outline>
		<contour>
			<point x="-24" y="558" type="line"/>
			<point x="126" y="646" type="line"/>
			<point x="130" y="646" type="line"/>
			<point x="240" y="558" type="line"/>
			<point x="310" y="618" type="line"/>
			<point x="226" y="746" type="line"/>
			<point x="50" y="746" type="line"/>
			<point x="-78" y="622" type="line"/>
		</contour>
	</outline>
	<anchor name="_aboveLC" x="100" y="522"/>
	<anchor name="aboveLC" x="144" y="740"/>
</glyph>
<glyph name="tildecmb" format="2">
	<unicode hex="0303"/>
	<outline>
		<contour>
			<point x="196" y="572" type="curve" smooth="yes"/>
			<point x="265" y="572"/>
			<point x="318" y="618"/>
			<point x="336" y="730" type="curve"/>
			<point x="232" y="736" type="line"/>
			<point x="226" y="700"/>
			<point x="210" y="690"/>
			<point x="194" y="690" type="curve" smooth="yes"/>
			<point x="156" y="690"/>
			<point x="132" y="746"/>
			<point x="60" y="746" type="curve" smooth="yes"/>
			<point x="-8" y="746"/>
			<point x="-62" y="700"/>
			<point x="-80" y="588" type="curve"/>
			<point x="24" y="582" type="line"/>
			<point x="30" y="618"/>
			<point x="46" y="628"/>
			<point x="62" y="628" type="curve" smooth="yes"/>
			<point x="100" y="628"/>
			<point x="124" y="572"/>
		</contour>
	</outline>
	<anchor name="_aboveLC" x="100" y="522"/>
</glyph>
<glyph name="macroncmb" format="1">
	<unicode hex="0304"/>
	<outline>
		<contour>
			<point x="-32" y="590" type="line"/>
			<point x="262" y="590" type="line"/>
			<point x="282" y="690" type="line"/>
			<point x="-12" y="690" type="line"/>
		</contour>
		<contour>
			<point name="_aboveLC" x="114" y="522" type="move"/>
		</contour>
	</outline>
</glyph>
<glyph name="overlinecmb" format="1">
	<unicode hex="0305"/>
	<outline>
		<component base="macroncmb"/>
		<contour>
			<point name="_aboveLC" x="100" y="522" type="move"/>
		</contour>
		<contour>
			<point name="aboveLC" x="140" y="702" type="move"/>
		</contour>
	</outline>
</glyph>
<glyph name="brevecmb" format="1">
	<unicode hex="0306"/>
	<outline>
		<contour>
			<point x="112" y="572" type="curve" smooth="yes"/>
			<point x="230" y="572"/>
			<point x="296" y="638"/>
			<point x="314" y="732" type="curve"/>
			<point x="222" y="748" type="line"/>
			<point x="208" y="708"/>
			<point x="180" y="678"/>
			<point x="132" y="678" type="curve" smooth="yes"/>
			<point x="84" y="678"/>
			<point x="64" y="708"/>
			<point x="66" y="748" type="curve"/>
			<point x="-34" y="732" type="line"/>
			<point x="-48" y="638"/>
			<point x="-5" y="572"/>
		</contour>
		<contour>
			<point name="_aboveLC" x="100" y="522" type="move"/>
		</contour>
	</outline>
</glyph>
<glyph name="dotaccentcmb" format="1">
	<unicode hex="0307"/>
	<outline>
		<contour>
			<point x="120" y="564" type="curve" smooth="yes"/>
			<point x="174" y="564"/>
			<point x="216" y="602"/>
			<point x="216" y="654" type="curve" smooth="yes"/>
			<point x="216" y="702"/>
			<point x="174" y="728"/>
			<point x="132" y="728" type="curve" smooth="yes"/>
			<point x="78" y="728"/>
			<point x="36" y="686"/>
			<point x="36" y="638" type="curve" smooth="yes"/>
			<point x="36" y="588"/>
			<point x="78" y="564"/>
		</contour>
		<contour>
			<point name="_aboveLC" x="114" y="522" type="move"/>
		</contour>
		<contour>
			<point name="aboveLC" x="146" y="730" type="move"/>
		</contour>
	</outline>
</glyph>
<glyph name="hungarumlautcmb" format="2">
	<unicode hex="030B"/>
	<outline>
		<contour>
			<point x="-20" y="570" type="line"/>
			<point x="70" y="570" type="line"/>
			<point x="230" y="742" type="line"/>
			<point x="220" y="760" type="line"/>
			<point x="90" y="760" type="line"/>
		</contour>
		<contour>
			<point x="160" y="570" type="line"/>
			<point x="250" y="570" type="line"/>
			<point x="410" y="742" type="line"/>
			<point x="400" y="760" type="line"/>
			<point x="270" y="760" type="line"/>
		</contour>
	</outline>
	<anchor name="_aboveLC" x="100" y="522"/>
</glyph>
<glyph name="caroncmb" format="2">
	<unicode hex="030C"/>
	<outline>
		<contour>
			<point x="32" y="580" type="line"/>
			<point x="208" y="580" type="line"/>
			<point x="336" y="704" type="line"/>
			<point x="282" y="768" type="line"/>
			<point x="132" y="680" type="line"/>
			<point x="128" y="680" type="line"/>
			<point x="18" y="768" type="line"/>
			<point x="-52" y="708" type="line"/>
		</contour>
	</outline>
	<anchor name="_aboveLC" x="100" y="522"/>
</glyph>
<glyph name="candrabinducmb" format="2">
	<unicode hex="0310"/>
	<outline>
		<contour>
			<point x="112" y="572" type="curve" smooth="yes"/>
			<point x="242" y="572"/>
			<point x="316" y="638"/>
			<point x="336" y="732" type="curve"/>
			<point x="254" y="748" type="line"/>
			<point x="238" y="702"/>
			<point x="194" y="668"/>
			<point x="130" y="668" type="curve" smooth="yes"/>
			<point x="68" y="668"/>
			<point x="46" y="702"/>
			<point x="48" y="748" type="curve"/>
			<point x="-40" y="732" type="line"/>
			<point x="-56" y="638"/>
			<point x="-12" y="572"/>
		</contour>
		<contour>
			<point x="144" y="702" type="curve" smooth="yes"/>
			<point x="194" y="702"/>
			<point x="240" y="746"/>
			<point x="240" y="798" type="curve" smooth="yes"/>
			<point x="240" y="844"/>
			<point x="206" y="864"/>
			<point x="168" y="864" type="curve" smooth="yes"/>
			<point x="118" y="864"/>
			<point x="72" y="820"/>
			<point x="72" y="768" type="curve" smooth="yes"/>
			<point x="72" y="722"/>
			<point x="106" y="702"/>
		</contour>
	</outline>
	<anchor name="_aboveLC" x="100" y="522"/>
</glyph>
<glyph name="commaturnedabovecmb" format="1">
	<unicode hex="0312"/>
	<outline>
		<contour>
			<point x="110" y="544" type="curve" smooth="yes"/>
			<point x="144" y="544"/>
			<point x="174" y="570"/>
			<point x="174" y="610" type="curve" smooth="yes"/>
			<point x="174" y="638"/>
			<point x="150" y="658"/>
			<point x="126" y="658" type="curve" smooth="yes"/>
			<point x="110" y="658"/>
			<point x="98" y="652"/>
			<point x="86" y="642" type="curve"/>
			<point x="110" y="594" type="line"/>
			<point x="120" y="648" type="line"/>
			<point x="128" y="680"/>
			<point x="152" y="694"/>
			<point x="194" y="708" type="curve"/>
			<point x="182" y="758" type="line"/>
			<point x="92" y="732"/>
			<point x="52" y="674"/>
			<point x="52" y="606" type="curve" smooth="yes"/>
			<point x="52" y="568"/>
			<point x="74" y="544"/>
		</contour>
		<contour>
			<point name="_aboveLC" x="100" y="522" type="move"/>
		</contour>
	</outline>
</glyph>
<glyph name="righttackbelowcmb" format="2">
	<unicode hex="0319"/>
	<outline>
		<contour>
			<point x="-130" y="-250" type="line"/>
			<point x="-46" y="-250" type="line"/>
			<point x="-34" y="-184" type="line"/>
			<point x="72" y="-184" type="line"/>
			<point x="88" y="-108" type="line"/>
			<point x="-18" y="-108" type="line"/>
			<point x="-4" y="-42" type="line"/>
			<point x="-88" y="-42" type="line"/>
		</contour>
	</outline>
	<anchor name="_belowLC" x="0" y="-22"/>
</glyph>
<glyph name="leftangleabovecmb" format="1">
	<unicode hex="031A"/>
	<outline>
		<contour>
			<point x="140" y="574" type="line"/>
			<point x="225" y="574" type="line"/>
			<point x="255" y="728" type="line"/>
			<point x="67" y="728" type="line"/>
			<point x="51" y="648" type="line"/>
			<point x="155" y="648" type="line"/>
		</contour>
		<contour>
			<point name="_aboverightLC" x="100" y="520" type="move"/>
		</contour>
	</outline>
</glyph>
<glyph name="ringhalfleftbelowcmb" format="2">
	<unicode hex="031C"/>
	<outline>
		<contour>
			<point x="18" y="-260" type="curve"/>
			<point x="30" y="-202" type="line"/>
			<point x="-2" y="-202"/>
			<point x="-16" y="-190"/>
			<point x="-16" y="-166" type="curve" smooth="yes"/>
			<point x="-16" y="-136"/>
			<point x="4" y="-116"/>
			<point x="48" y="-114" type="curve"/>
			<point x="60" y="-54" type="line"/>
			<point x="-66" y="-54"/>
			<point x="-126" y="-102"/>
			<point x="-126" y="-170" type="curve" smooth="yes"/>
			<point x="-126" y="-226"/>
			<point x="-78" y="-266"/>
		</contour>
	</outline>
	<anchor name="_belowLC" x="0" y="-22"/>
</glyph>
<glyph name="downtackbelowcmb" format="1">
	<unicode hex="031E"/>
	<outline>
		<contour>
			<point x="-92" y="-250" type="line"/>
			<point x="-8" y="-250" type="line"/>
			<point x="14" y="-142" type="line"/>
			<point x="80" y="-142" type="line"/>
			<point x="96" y="-66" type="line"/>
			<point x="-120" y="-66" type="line"/>
			<point x="-136" y="-142" type="line"/>
			<point x="-70" y="-142" type="line"/>
		</contour>
		<contour>
			<point name="_belowLC" x="0" y="-22" type="move"/>
		</contour>
	</outline>
</glyph>
<glyph name="minusbelowcmb" format="1">
	<unicode hex="0320"/>
	<outline>
		<contour>
			<point x="-146" y="-194" type="line"/>
			<point x="70" y="-194" type="line"/>
			<point x="86" y="-118" type="line"/>
			<point x="-130" y="-118" type="line"/>
		</contour>
		<contour>
			<point name="_belowLC" x="0" y="-22" type="move"/>
		</contour>
	</outline>
</glyph>
<glyph name="dotbelowcmb" format="1">
	<unicode hex="0323"/>
	<outline>
		<component base="dotaccentcmb" xOffset="-162" yOffset="-800"/>
		<contour>
			<point name="_belowLC" x="-6" y="-30" type="move"/>
		</contour>
	</outline>
</glyph>
<glyph name="ringbelowcmb" format="1">
	<unicode hex="0325"/>
	<outline>
		<component base="ringcmb" xOffset="-162" yOffset="-830"/>
		<contour>
			<point name="_belowLC" x="0" y="-22" type="move"/>
		</contour>
	</outline>
</glyph>
<glyph name="commabelowcmb" format="2">
	<unicode hex="0326"/>
	<outline>
		<contour>
			<point x="-148" y="-244" type="line"/>
			<point x="-17" y="-240"/>
			<point x="82" y="-206"/>
			<point x="82" y="-124" type="curve" smooth="yes"/>
			<point x="82" y="-85"/>
			<point x="58" y="-54"/>
			<point x="-53" y="-50" type="curve"/>
			<point x="-97" y="-110" type="line"/>
			<point x="-54" y="-110"/>
			<point x="-43" y="-126"/>
			<point x="-43" y="-138" type="curve" smooth="yes"/>
			<point x="-43" y="-160"/>
			<point x="-71" y="-174"/>
			<point x="-148" y="-178" type="curve"/>
		</contour>
	</outline>
	<anchor name="_belowLC" x="0" y="-22"/>
</glyph>
<glyph name="ogonekcmb" format="2">
	<unicode hex="0328"/>
	<outline>
		<contour>
			<point x="-34" y="-220" type="curve" smooth="yes"/>
			<point x="16" y="-220"/>
			<point x="58" y="-204"/>
			<point x="90" y="-182" type="curve"/>
			<point x="60" y="-110" type="line"/>
			<point x="52" y="-114"/>
			<point x="44" y="-118"/>
			<point x="30" y="-118" type="curve" smooth="yes"/>
			<point x="12" y="-118"/>
			<point x="-2" y="-108"/>
			<point x="-2" y="-90" type="curve" smooth="yes"/>
			<point x="-2" y="-56"/>
			<point x="26" y="-18"/>
			<point x="64" y="2" type="curve"/>
			<point x="-30" y="2" type="line"/>
			<point x="-88" y="-36"/>
			<point x="-130" y="-84"/>
			<point x="-130" y="-136" type="curve" smooth="yes"/>
			<point x="-130" y="-190"/>
			<point x="-90" y="-220"/>
		</contour>
	</outline>
	<anchor name="_ogonekLC" x="0" y="0"/>
</glyph>
<glyph name="verticallinebelowcmb" format="1">
	<unicode hex="0329"/>
	<outline>
		<contour>
			<point x="-116" y="-260" type="line"/>
			<point x="12" y="-260" type="line"/>
			<point x="42" y="-52" type="line"/>
			<point x="-66" y="-52" type="line"/>
		</contour>
		<contour>
			<point name="_belowLC" x="0" y="-22" type="move"/>
		</contour>
	</outline>
</glyph>
<glyph name="brevebelowcmb" format="1">
	<unicode hex="032E"/>
	<outline>
		<component base="brevecmb" xOffset="-160" yOffset="-790"/>
		<contour>
			<point name="_belowLC" x="-6" y="-30" type="move"/>
		</contour>
	</outline>
</glyph>
<glyph name="macronbelowcmb" format="1">
	<unicode hex="0331"/>
	<outline>
		<component base="macroncmb" xOffset="-160" yOffset="-780"/>
		<contour>
			<point name="_belowLC" x="-6" y="-30" type="move"/>
		</contour>
	</outline>
</glyph>
<glyph name="bridgeinvertedbelowcmb" format="2">
	<unicode hex="033A"/>
	<outline>
		<contour>
			<point x="-165" y="-210" type="line"/>
			<point x="85" y="-210" type="line"/>
			<point x="113" y="-68" type="line"/>
			<point x="34" y="-68" type="line"/>
			<point x="22" y="-130" type="line"/>
			<point x="-70" y="-130" type="line"/>
			<point x="-58" y="-68" type="line"/>
			<point x="-136" y="-68" type="line"/>
		</contour>
	</outline>
	<anchor name="_belowLC" x="0" y="-22"/>
</glyph>
<glyph name="variacmb" format="1">
	<unicode hex="0340"/>
	<outline>
		<contour>
			<point x="62" y="560" type="line"/>
			<point x="172" y="568" type="line"/>
			<point x="180" y="798" type="line"/>
			<point x="18" y="782" type="line"/>
		</contour>
		<contour>
			<point name="_aboveLC" x="100" y="522" type="move"/>
		</contour>
	</outline>
</glyph>
<glyph name="Lambda" format="2">
	<unicode hex="039B"/>
	<advance width="550"/>
	<outline>
		<contour>
			<point x="-66" y="0" type="line"/>
			<point x="110" y="0" type="line"/>
			<point x="242" y="304" type="line"/>
			<point x="271" y="373"/>
			<point x="299" y="441"/>
			<point x="328" y="510" type="curve"/>
			<point x="332" y="510" type="line"/>
			<point x="332" y="441"/>
			<point x="334" y="372"/>
			<point x="336" y="304" type="curve"/>
			<point x="348" y="0" type="line"/>
			<point x="516" y="0" type="line"/>
			<point x="462" y="650" type="line"/>
			<point x="268" y="650" type="line"/>
		</contour>
	</outline>
</glyph>
<glyph name="Phi" format="1">
	<unicode hex="03A6"/>
	<advance width="773"/>
	<outline>
		<contour>
			<point x="356" y="62" type="curve" smooth="yes"/>
			<point x="392" y="62" type="line" smooth="yes"/>
			<point x="584" y="62"/>
			<point x="734" y="175"/>
			<point x="734" y="364" type="curve" smooth="yes"/>
			<point x="734" y="509"/>
			<point x="624" y="590"/>
			<point x="458" y="590" type="curve" smooth="yes"/>
			<point x="422" y="590" type="line" smooth="yes"/>
			<point x="229" y="590"/>
			<point x="80" y="482"/>
			<point x="80" y="292" type="curve" smooth="yes"/>
			<point x="80" y="146"/>
			<point x="189" y="62"/>
		</contour>
		<contour>
			<point x="371" y="186" type="line" smooth="yes"/>
			<point x="287" y="186"/>
			<point x="236" y="234"/>
			<point x="236" y="312" type="curve" smooth="yes"/>
			<point x="236" y="408"/>
			<point x="300" y="466"/>
			<point x="388" y="466" type="curve" smooth="yes"/>
			<point x="442" y="466" type="line" smooth="yes"/>
			<point x="526" y="466"/>
			<point x="578" y="422"/>
			<point x="578" y="344" type="curve" smooth="yes"/>
			<point x="578" y="249"/>
			<point x="513" y="186"/>
			<point x="425" y="186" type="curve" smooth="yes"/>
		</contour>
		<contour>
			<point x="264" y="-22" type="line"/>
			<point x="410" y="-22" type="line"/>
			<point x="550" y="672" type="line"/>
			<point x="404" y="672" type="line"/>
		</contour>
	</outline>
</glyph>
<glyph name="Psi" format="1">
	<unicode hex="03A8"/>
	<advance width="735"/>
	<outline>
		<contour>
			<point x="378" y="214" type="curve"/>
			<point x="392" y="214" type="line" smooth="yes"/>
			<point x="634" y="214"/>
			<point x="700" y="298"/>
			<point x="738" y="490" type="curve" smooth="yes"/>
			<point x="770" y="650" type="line"/>
			<point x="616" y="650" type="line"/>
			<point x="586" y="500" type="line" smooth="yes"/>
			<point x="562" y="378"/>
			<point x="530" y="338"/>
			<point x="426" y="338" type="curve" smooth="yes"/>
			<point x="364" y="338" type="line" smooth="yes"/>
			<point x="290" y="338"/>
			<point x="250" y="360"/>
			<point x="250" y="438" type="curve" smooth="yes"/>
			<point x="250" y="464"/>
			<point x="254" y="482"/>
			<point x="258" y="500" type="curve" smooth="yes"/>
			<point x="288" y="650" type="line"/>
			<point x="134" y="650" type="line"/>
			<point x="102" y="492" type="line" smooth="yes"/>
			<point x="98" y="472"/>
			<point x="94" y="448"/>
			<point x="94" y="424" type="curve" smooth="yes"/>
			<point x="94" y="276"/>
			<point x="236" y="214"/>
		</contour>
		<contour>
			<point x="248" y="0" type="line"/>
			<point x="396" y="0" type="line"/>
			<point x="526" y="650" type="line"/>
			<point x="378" y="650" type="line"/>
		</contour>
	</outline>
</glyph>
<glyph name="gamma" format="2">
	<unicode hex="03B3"/>
	<advance width="524"/>
	<outline>
		<contour>
			<point x="83" y="-172" type="curve"/>
			<point x="238" y="-188" type="line"/>
			<point x="254" y="-132"/>
			<point x="266" y="-62"/>
			<point x="274" y="14" type="curve"/>
			<point x="434" y="207"/>
			<point x="484" y="326"/>
			<point x="548" y="496" type="curve"/>
			<point x="392" y="512" type="line"/>
			<point x="360" y="382"/>
			<point x="324" y="278"/>
			<point x="260" y="174" type="curve"/>
			<point x="256" y="174" type="line"/>
			<point x="250" y="285"/>
			<point x="228" y="414"/>
			<point x="198" y="512" type="curve"/>
			<point x="28" y="492" type="line"/>
			<point x="88" y="374"/>
			<point x="128" y="172"/>
			<point x="128" y="68" type="curve" smooth="yes"/>
			<point x="128" y="-20"/>
			<point x="108" y="-100"/>
		</contour>
	</outline>
	<anchor name="aboveLC" x="290" y="522"/>
	<anchor name="belowLC" x="160" y="-182"/>
</glyph>
<glyph name="delta" format="1">
	<unicode hex="03B4"/>
	<advance width="529"/>
	<outline>
		<contour>
			<point x="222" y="-12" type="curve" smooth="yes"/>
			<point x="374" y="-12"/>
			<point x="498" y="108"/>
			<point x="498" y="280" type="curve" smooth="yes"/>
			<point x="498" y="352"/>
			<point x="466" y="418"/>
			<point x="378" y="478" type="curve" smooth="yes"/>
			<point x="321" y="517"/>
			<point x="290" y="536"/>
			<point x="290" y="556" type="curve" smooth="yes"/>
			<point x="290" y="574"/>
			<point x="300" y="586"/>
			<point x="320" y="586" type="curve" smooth="yes"/>
			<point x="360" y="586"/>
			<point x="426" y="562"/>
			<point x="492" y="522" type="curve"/>
			<point x="550" y="626" type="line"/>
			<point x="472" y="672"/>
			<point x="390" y="708"/>
			<point x="300" y="708" type="curve" smooth="yes"/>
			<point x="204" y="708"/>
			<point x="152" y="646"/>
			<point x="152" y="564" type="curve" smooth="yes"/>
			<point x="152" y="500"/>
			<point x="203" y="436"/>
			<point x="266" y="394" type="curve" smooth="yes"/>
			<point x="330" y="350"/>
			<point x="350" y="316"/>
			<point x="350" y="258" type="curve" smooth="yes"/>
			<point x="350" y="176"/>
			<point x="291" y="116"/>
			<point x="246" y="116" type="curve" smooth="yes"/>
			<point x="206" y="116"/>
			<point x="174" y="144"/>
			<point x="174" y="192" type="curve" smooth="yes"/>
			<point x="174" y="279"/>
			<point x="242" y="356"/>
			<point x="318" y="358" type="curve"/>
			<point x="255" y="436" type="line"/>
			<point x="150" y="434"/>
			<point x="26" y="320"/>
			<point x="26" y="176" type="curve" smooth="yes"/>
			<point x="26" y="58"/>
			<point x="110" y="-12"/>
		</contour>
	</outline>
</glyph>
<glyph name="epsilon" format="1">
	<unicode hex="03B5"/>
	<advance width="449"/>
	<outline>
		<contour>
			<point x="196" y="-12" type="curve" smooth="yes"/>
			<point x="274" y="-12"/>
			<point x="335" y="4"/>
			<point x="400" y="46" type="curve"/>
			<point x="342" y="144" type="line"/>
			<point x="312" y="122"/>
			<point x="276" y="108"/>
			<point x="244" y="108" type="curve" smooth="yes"/>
			<point x="206" y="108"/>
			<point x="182" y="124"/>
			<point x="182" y="148" type="curve" smooth="yes"/>
			<point x="182" y="186"/>
			<point x="218" y="208"/>
			<point x="342" y="210" type="curve"/>
			<point x="330" y="314" type="line"/>
			<point x="312" y="307"/>
			<point x="300" y="304"/>
			<point x="286" y="304" type="curve" smooth="yes"/>
			<point x="258" y="304"/>
			<point x="238" y="315"/>
			<point x="238" y="340" type="curve" smooth="yes"/>
			<point x="238" y="366"/>
			<point x="267" y="390"/>
			<point x="324" y="390" type="curve" smooth="yes"/>
			<point x="348" y="390"/>
			<point x="368" y="384"/>
			<point x="394" y="376" type="curve"/>
			<point x="438" y="488" type="line"/>
			<point x="400" y="502"/>
			<point x="352" y="512"/>
			<point x="298" y="512" type="curve" smooth="yes"/>
			<point x="188" y="512"/>
			<point x="80" y="459"/>
			<point x="80" y="354" type="curve" smooth="yes"/>
			<point x="80" y="310"/>
			<point x="112" y="274"/>
			<point x="148" y="260" type="curve"/>
			<point x="148" y="256" type="line"/>
			<point x="72" y="236"/>
			<point x="18" y="192"/>
			<point x="18" y="118" type="curve" smooth="yes"/>
			<point x="18" y="34"/>
			<point x="96" y="-12"/>
		</contour>
		<contour>
			<point name="aboveLC" x="310" y="522" type="move"/>
		</contour>
	</outline>
</glyph>
<glyph name="theta" format="1">
	<unicode hex="03B8"/>
	<advance width="534"/>
	<outline>
		<contour>
			<point x="214" y="-12" type="curve" smooth="yes"/>
			<point x="376" y="-12"/>
			<point x="470" y="118"/>
			<point x="508" y="298" type="curve" smooth="yes"/>
			<point x="518" y="346"/>
			<point x="526" y="424"/>
			<point x="526" y="472" type="curve" smooth="yes"/>
			<point x="526" y="601"/>
			<point x="458" y="708"/>
			<point x="332" y="708" type="curve" smooth="yes"/>
			<point x="198" y="708"/>
			<point x="96" y="576"/>
			<point x="96" y="468" type="curve" smooth="yes"/>
			<point x="96" y="362"/>
			<point x="134" y="302"/>
			<point x="356" y="302" type="curve"/>
			<point x="366" y="340" type="line"/>
			<point x="378" y="408" type="line"/>
			<point x="258" y="408"/>
			<point x="238" y="435"/>
			<point x="238" y="474" type="curve" smooth="yes"/>
			<point x="238" y="530"/>
			<point x="282" y="588"/>
			<point x="318" y="588" type="curve" smooth="yes"/>
			<point x="358" y="588"/>
			<point x="380" y="557"/>
			<point x="380" y="470" type="curve" smooth="yes"/>
			<point x="380" y="436"/>
			<point x="376" y="392"/>
			<point x="364" y="340" type="curve" smooth="yes"/>
			<point x="316" y="137"/>
			<point x="268" y="116"/>
			<point x="230" y="116" type="curve" smooth="yes"/>
			<point x="202" y="116"/>
			<point x="184" y="134"/>
			<point x="184" y="162" type="curve" smooth="yes"/>
			<point x="184" y="180"/>
			<point x="192" y="224"/>
			<point x="194" y="262" type="curve"/>
			<point x="46" y="262" type="line"/>
			<point x="42" y="218"/>
			<point x="34" y="182"/>
			<point x="34" y="150" type="curve" smooth="yes"/>
			<point x="34" y="60"/>
			<point x="90" y="-12"/>
		</contour>
	</outline>
</glyph>
<glyph name="iota" format="2">
	<unicode hex="03B9"/>
	<advance width="286"/>
	<outline>
		<contour>
			<point x="148" y="-12" type="curve" smooth="yes"/>
			<point x="184" y="-12"/>
			<point x="212" y="-6"/>
			<point x="230" y="0" type="curve"/>
			<point x="236" y="118" type="line"/>
			<point x="228" y="116"/>
			<point x="218" y="116"/>
			<point x="212" y="116" type="curve" smooth="yes"/>
			<point x="198" y="116"/>
			<point x="186" y="122"/>
			<point x="186" y="142" type="curve" smooth="yes"/>
			<point x="186" y="166"/>
			<point x="220" y="302"/>
			<point x="270" y="500" type="curve"/>
			<point x="108" y="500" type="line"/>
			<point x="42" y="166" type="line" smooth="yes"/>
			<point x="36" y="138"/>
			<point x="34" y="118"/>
			<point x="34" y="98" type="curve" smooth="yes"/>
			<point x="34" y="30"/>
			<point x="66" y="-12"/>
		</contour>
	</outline>
	<anchor name="aboveLC" x="190" y="522"/>
	<anchor name="belowLC" x="130" y="-22"/>
</glyph>
<glyph name="kappa" format="1">
	<unicode hex="03BA"/>
	<advance width="524"/>
	<outline>
		<contour>
			<point x="8" y="0" type="line"/>
			<point x="157" y="0" type="line"/>
			<point x="163" y="30" type="line" smooth="yes"/>
			<point x="178" y="107"/>
			<point x="200" y="154"/>
			<point x="240" y="188" type="curve" smooth="yes"/>
			<point x="384" y="312"/>
			<point x="442" y="332"/>
			<point x="519" y="356" type="curve"/>
			<point x="495" y="507" type="line"/>
			<point x="394" y="466"/>
			<point x="310" y="404"/>
			<point x="224" y="291" type="curve"/>
			<point x="220" y="291" type="line"/>
			<point x="236" y="374" type="line" smooth="yes"/>
			<point x="244" y="416"/>
			<point x="250" y="467"/>
			<point x="250" y="500" type="curve"/>
			<point x="92" y="500" type="line"/>
			<point x="92" y="446"/>
			<point x="84" y="382"/>
			<point x="76" y="342" type="curve" smooth="yes"/>
		</contour>
		<contour>
			<point x="313" y="-11" type="curve"/>
			<point x="490" y="0" type="line"/>
			<point x="446" y="70"/>
			<point x="386" y="176"/>
			<point x="366" y="302" type="curve"/>
			<point x="242" y="209" type="line"/>
			<point x="263" y="106"/>
			<point x="292" y="32"/>
		</contour>
	</outline>
</glyph>
<glyph name="lambda" format="1">
	<unicode hex="03BB"/>
	<advance width="480"/>
	<outline>
		<contour>
			<point x="306" y="-12" type="curve"/>
			<point x="450" y="0" type="line"/>
			<point x="426" y="62"/>
			<point x="392" y="308"/>
			<point x="370" y="510" type="curve" smooth="yes"/>
			<point x="354" y="653"/>
			<point x="294" y="708"/>
			<point x="186" y="708" type="curve" smooth="yes"/>
			<point x="172" y="708"/>
			<point x="142" y="704"/>
			<point x="118" y="698" type="curve"/>
			<point x="140" y="578" type="line"/>
			<point x="153" y="580"/>
			<point x="158" y="582"/>
			<point x="166" y="582" type="curve" smooth="yes"/>
			<point x="222" y="582"/>
			<point x="240" y="560"/>
			<point x="244" y="520" type="curve" smooth="yes"/>
			<point x="267" y="300"/>
			<point x="284" y="40"/>
		</contour>
		<contour>
			<point x="-60" y="0" type="curve"/>
			<point x="90" y="-6" type="line"/>
			<point x="149" y="119"/>
			<point x="214" y="239"/>
			<point x="286" y="356" type="curve"/>
			<point x="248" y="506" type="line"/>
			<point x="141" y="342"/>
			<point x="45" y="170"/>
		</contour>
	</outline>
</glyph>
<glyph name="mu" format="1">
	<unicode hex="03BC"/>
	<unicode hex="00B5"/>
	<advance width="572"/>
	<outline>
		<contour>
			<point x="-28" y="-176" type="line"/>
			<point x="134" y="-176" type="line"/>
			<point x="141" y="-109"/>
			<point x="147" y="-55"/>
			<point x="161" y="13" type="curve"/>
			<point x="172" y="-4"/>
			<point x="189" y="-7"/>
			<point x="208" y="-7" type="curve" smooth="yes"/>
			<point x="248" y="-7"/>
			<point x="286" y="21"/>
			<point x="316" y="70" type="curve"/>
			<point x="320" y="70" type="line"/>
			<point x="324" y="50"/>
			<point x="330" y="33"/>
			<point x="341" y="20" type="curve" smooth="yes"/>
			<point x="358" y="0"/>
			<point x="385" y="-12"/>
			<point x="430" y="-12" type="curve" smooth="yes"/>
			<point x="466" y="-12"/>
			<point x="494" y="-6"/>
			<point x="512" y="0" type="curve"/>
			<point x="518" y="118" type="line"/>
			<point x="510" y="116"/>
			<point x="500" y="116"/>
			<point x="494" y="116" type="curve" smooth="yes"/>
			<point x="480" y="116"/>
			<point x="468" y="122"/>
			<point x="468" y="142" type="curve" smooth="yes"/>
			<point x="468" y="166"/>
			<point x="502" y="302"/>
			<point x="552" y="500" type="curve"/>
			<point x="390" y="500" type="line"/>
			<point x="327" y="183" type="line"/>
			<point x="299" y="140"/>
			<point x="273" y="122"/>
			<point x="243" y="122" type="curve" smooth="yes"/>
			<point x="215" y="122"/>
			<point x="201" y="135"/>
			<point x="203" y="174" type="curve" smooth="yes"/>
			<point x="204" y="184"/>
			<point x="205" y="196"/>
			<point x="208" y="210" type="curve" smooth="yes"/>
			<point x="268" y="500" type="line"/>
			<point x="108" y="500" type="line"/>
		</contour>
	</outline>
</glyph>
<glyph name="nu" format="1">
	<unicode hex="03BD"/>
	<advance width="514"/>
	<outline>
		<contour>
			<point x="90" y="0" type="curve"/>
			<point x="244" y="-12" type="line"/>
			<point x="400" y="172"/>
			<point x="476" y="308"/>
			<point x="538" y="496" type="curve"/>
			<point x="382" y="512" type="line"/>
			<point x="356" y="392"/>
			<point x="308" y="264"/>
			<point x="230" y="152" type="curve"/>
			<point x="226" y="152" type="line"/>
			<point x="244" y="264"/>
			<point x="228" y="426"/>
			<point x="198" y="512" type="curve"/>
			<point x="28" y="492" type="line"/>
			<point x="82" y="374"/>
			<point x="114" y="190"/>
		</contour>
	</outline>
</glyph>
<glyph name="pi" format="1">
	<unicode hex="03C0"/>
	<advance width="620"/>
	<outline>
		<contour>
			<point x="461" y="-12" type="curve" smooth="yes"/>
			<point x="496" y="-12"/>
			<point x="524" y="-4"/>
			<point x="543" y="3" type="curve"/>
			<point x="547" y="119" type="line"/>
			<point x="538" y="117"/>
			<point x="532" y="115"/>
			<point x="525" y="115" type="curve" smooth="yes"/>
			<point x="503" y="115"/>
			<point x="490" y="123"/>
			<point x="490" y="147" type="curve" smooth="yes"/>
			<point x="490" y="162"/>
			<point x="514" y="286"/>
			<point x="540" y="376" type="curve"/>
			<point x="616" y="376" type="line"/>
			<point x="640" y="500" type="line"/>
			<point x="150" y="500" type="line"/>
			<point x="76" y="494" type="line"/>
			<point x="52" y="376" type="line"/>
			<point x="152" y="376" type="line"/>
			<point x="131" y="270"/>
			<point x="92" y="134"/>
			<point x="42" y="0" type="curve"/>
			<point x="198" y="-12" type="line"/>
			<point x="240" y="110"/>
			<point x="275" y="260"/>
			<point x="298" y="376" type="curve"/>
			<point x="390" y="376" type="line"/>
			<point x="370" y="288"/>
			<point x="337" y="172"/>
			<point x="337" y="114" type="curve" smooth="yes"/>
			<point x="337" y="38"/>
			<point x="371" y="-12"/>
		</contour>
	</outline>
</glyph>
<glyph name="sigma" format="1">
	<unicode hex="03C3"/>
	<advance width="566"/>
	<outline>
		<contour>
			<point x="220" y="-12" type="curve" smooth="yes"/>
			<point x="370" y="-12"/>
			<point x="474" y="106"/>
			<point x="474" y="244" type="curve" smooth="yes"/>
			<point x="474" y="300"/>
			<point x="458" y="352"/>
			<point x="426" y="378" type="curve"/>
			<point x="426" y="382" type="line"/>
			<point x="476" y="380"/>
			<point x="516" y="376"/>
			<point x="570" y="370" type="curve"/>
			<point x="596" y="500" type="line"/>
			<point x="334" y="500" type="line" smooth="yes"/>
			<point x="176" y="500"/>
			<point x="26" y="394"/>
			<point x="26" y="192" type="curve" smooth="yes"/>
			<point x="26" y="63"/>
			<point x="112" y="-12"/>
		</contour>
		<contour>
			<point x="240" y="116" type="curve" smooth="yes"/>
			<point x="212" y="116"/>
			<point x="188" y="142"/>
			<point x="188" y="194" type="curve" smooth="yes"/>
			<point x="188" y="300"/>
			<point x="230" y="372"/>
			<point x="292" y="372" type="curve" smooth="yes"/>
			<point x="322" y="372"/>
			<point x="336" y="335"/>
			<point x="336" y="284" type="curve" smooth="yes"/>
			<point x="336" y="180"/>
			<point x="290" y="116"/>
		</contour>
	</outline>
</glyph>
<glyph name="upsilon" format="1">
	<unicode hex="03C5"/>
	<advance width="528"/>
	<outline>
		<contour>
			<point x="236" y="-12" type="curve" smooth="yes"/>
			<point x="402" y="-12"/>
			<point x="500" y="140"/>
			<point x="500" y="409" type="curve" smooth="yes"/>
			<point x="500" y="436"/>
			<point x="500" y="460"/>
			<point x="494" y="510" type="curve"/>
			<point x="338" y="490" type="line"/>
			<point x="342" y="430"/>
			<point x="342" y="413"/>
			<point x="342" y="394" type="curve" smooth="yes"/>
			<point x="342" y="228"/>
			<point x="311" y="116"/>
			<point x="236" y="116" type="curve" smooth="yes"/>
			<point x="200" y="116"/>
			<point x="180" y="136"/>
			<point x="180" y="172" type="curve" smooth="yes"/>
			<point x="180" y="222"/>
			<point x="236" y="367"/>
			<point x="236" y="500" type="curve"/>
			<point x="82" y="500" type="line"/>
			<point x="76" y="356"/>
			<point x="30" y="240"/>
			<point x="30" y="160" type="curve" smooth="yes"/>
			<point x="30" y="65"/>
			<point x="87" y="-12"/>
		</contour>
		<contour>
			<point name="aboveLC" x="290" y="522" type="move"/>
		</contour>
	</outline>
</glyph>
<glyph name="chi" format="1">
	<unicode hex="03C7"/>
	<advance width="517"/>
	<outline>
		<contour>
			<point x="88" y="-188" type="line"/>
			<point x="227" y="40" type="line"/>
			<point x="231" y="40" type="line"/>
			<point x="252" y="-50"/>
			<point x="274" y="-130"/>
			<point x="293" y="-188" type="curve"/>
			<point x="460" y="-155" type="line"/>
			<point x="414" y="-60"/>
			<point x="364" y="56"/>
			<point x="332" y="169" type="curve"/>
			<point x="561" y="498" type="line"/>
			<point x="397" y="498" type="line"/>
			<point x="283" y="304" type="line"/>
			<point x="280" y="304" type="line"/>
			<point x="262" y="380"/>
			<point x="244" y="450"/>
			<point x="222" y="510" type="curve"/>
			<point x="56" y="476" type="line"/>
			<point x="108" y="376"/>
			<point x="148" y="272"/>
			<point x="176" y="166" type="curve"/>
			<point x="-72" y="-176" type="line"/>
		</contour>
	</outline>
</glyph>
<glyph name="omega" format="1">
	<unicode hex="03C9"/>
	<unicode hex="A7B7"/>
	<advance width="731"/>
	<outline>
		<contour>
			<point x="160" y="-12" type="curve" smooth="yes"/>
			<point x="236" y="-12"/>
			<point x="290" y="22"/>
			<point x="336" y="114" type="curve"/>
			<point x="340" y="114" type="line"/>
			<point x="342" y="24"/>
			<point x="396" y="-12"/>
			<point x="460" y="-12" type="curve" smooth="yes"/>
			<point x="616" y="-12"/>
			<point x="700" y="148"/>
			<point x="700" y="356" type="curve" smooth="yes"/>
			<point x="700" y="402"/>
			<point x="692" y="460"/>
			<point x="678" y="510" type="curve"/>
			<point x="526" y="466" type="line"/>
			<point x="538" y="422"/>
			<point x="542" y="376"/>
			<point x="542" y="328" type="curve" smooth="yes"/>
			<point x="542" y="215"/>
			<point x="502" y="116"/>
			<point x="454" y="116" type="curve" smooth="yes"/>
			<point x="431" y="116"/>
			<point x="416" y="130"/>
			<point x="416" y="166" type="curve" smooth="yes"/>
			<point x="416" y="222"/>
			<point x="442" y="306"/>
			<point x="466" y="366" type="curve"/>
			<point x="310" y="366" type="line"/>
			<point x="300" y="190"/>
			<point x="258" y="116"/>
			<point x="212" y="116" type="curve" smooth="yes"/>
			<point x="186" y="116"/>
			<point x="174" y="132"/>
			<point x="174" y="170" type="curve" smooth="yes"/>
			<point x="174" y="252"/>
			<point x="210" y="338"/>
			<point x="292" y="454" type="curve"/>
			<point x="156" y="510" type="line"/>
			<point x="82" y="412"/>
			<point x="26" y="274"/>
			<point x="26" y="148" type="curve" smooth="yes"/>
			<point x="26" y="46"/>
			<point x="82" y="-12"/>
		</contour>
		<contour>
			<point name="aboveLC" x="410" y="522" type="move"/>
		</contour>
		<contour>
			<point name="belowLC" x="330" y="-22" type="move"/>
		</contour>
	</outline>
</glyph>
<glyph name="beta.a" format="1">
	<unicode hex="03D0"/>
	<advance width="585"/>
	<outline>
		<contour>
			<point x="268" y="-12" type="curve" smooth="yes"/>
			<point x="414" y="-12"/>
			<point x="552" y="70"/>
			<point x="552" y="232" type="curve" smooth="yes"/>
			<point x="552" y="292"/>
			<point x="507" y="354"/>
			<point x="440" y="367" type="curve"/>
			<point x="441" y="371" type="line"/>
			<point x="518" y="402"/>
			<point x="568" y="464"/>
			<point x="568" y="550" type="curve" smooth="yes"/>
			<point x="568" y="658"/>
			<point x="494" y="708"/>
			<point x="376" y="708" type="curve" smooth="yes"/>
			<point x="238" y="708"/>
			<point x="142" y="622"/>
			<point x="106" y="462" type="curve" smooth="yes"/>
			<point x="66" y="282" type="line" smooth="yes"/>
			<point x="61" y="254"/>
			<point x="58" y="227"/>
			<point x="58" y="202" type="curve" smooth="yes"/>
			<point x="58" y="56"/>
			<point x="150" y="-12"/>
		</contour>
		<contour>
			<point x="302" y="124" type="curve" smooth="yes"/>
			<point x="237" y="124"/>
			<point x="210" y="162"/>
			<point x="210" y="234" type="curve" smooth="yes"/>
			<point x="210" y="254"/>
			<point x="224" y="311"/>
			<point x="254" y="430" type="curve" smooth="yes"/>
			<point x="278" y="524"/>
			<point x="308" y="585"/>
			<point x="362" y="585" type="curve" smooth="yes"/>
			<point x="389" y="585"/>
			<point x="414" y="567"/>
			<point x="414" y="532" type="curve" smooth="yes"/>
			<point x="414" y="452"/>
			<point x="362" y="406"/>
			<point x="181" y="374" type="curve"/>
			<point x="177" y="261" type="line"/>
			<point x="254" y="290"/>
			<point x="296" y="300"/>
			<point x="324" y="300" type="curve" smooth="yes"/>
			<point x="378" y="300"/>
			<point x="398" y="268"/>
			<point x="398" y="230" type="curve" smooth="yes"/>
			<point x="398" y="162"/>
			<point x="354" y="124"/>
		</contour>
	</outline>
</glyph>
<glyph name="theta.a" format="1">
	<unicode hex="03D1"/>
	<advance width="534"/>
	<outline>
		<contour>
			<point x="240" y="-12" type="curve" smooth="yes"/>
			<point x="405" y="-12"/>
			<point x="532" y="176"/>
			<point x="532" y="465" type="curve" smooth="yes"/>
			<point x="532" y="627"/>
			<point x="460" y="708"/>
			<point x="344" y="708" type="curve" smooth="yes"/>
			<point x="179" y="708"/>
			<point x="52" y="520"/>
			<point x="52" y="231" type="curve" smooth="yes"/>
			<point x="52" y="69"/>
			<point x="124" y="-12"/>
		</contour>
		<contour>
			<point x="255" y="116" type="curve" smooth="yes"/>
			<point x="214" y="116"/>
			<point x="200" y="142"/>
			<point x="200" y="211" type="curve" smooth="yes"/>
			<point x="200" y="365"/>
			<point x="246" y="580"/>
			<point x="329" y="580" type="curve" smooth="yes"/>
			<point x="370" y="580"/>
			<point x="384" y="554"/>
			<point x="384" y="485" type="curve" smooth="yes"/>
			<point x="384" y="331"/>
			<point x="338" y="116"/>
		</contour>
		<contour>
			<point x="143" y="300" type="line"/>
			<point x="421" y="300" type="line"/>
			<point x="442" y="403" type="line"/>
			<point x="164" y="403" type="line"/>
		</contour>
	</outline>
</glyph>
<glyph name="phi" format="1">
	<unicode hex="03D5"/>
	<unicode hex="03C6"/>
	<advance width="718"/>
	<outline>
		<contour>
			<point x="176" y="-176" type="line"/>
			<point x="328" y="-176" type="line"/>
			<point x="346" y="-68"/>
			<point x="388" y="124"/>
			<point x="428" y="272" type="curve" smooth="yes"/>
			<point x="448" y="346"/>
			<point x="466" y="364"/>
			<point x="496" y="364" type="curve" smooth="yes"/>
			<point x="516" y="364"/>
			<point x="528" y="346"/>
			<point x="528" y="316" type="curve" smooth="yes"/>
			<point x="528" y="196"/>
			<point x="452" y="112"/>
			<point x="374" y="110" type="curve"/>
			<point x="340" y="-8" type="line"/>
			<point x="526" y="-6"/>
			<point x="690" y="134"/>
			<point x="690" y="320" type="curve" smooth="yes"/>
			<point x="690" y="424"/>
			<point x="622" y="492"/>
			<point x="520" y="492" type="curve" smooth="yes"/>
			<point x="406" y="492"/>
			<point x="327" y="424"/>
			<point x="284" y="252" type="curve" smooth="yes"/>
		</contour>
		<contour>
			<point x="252" y="-8" type="curve"/>
			<point x="296" y="110" type="line"/>
			<point x="224" y="114"/>
			<point x="186" y="149"/>
			<point x="186" y="224" type="curve" smooth="yes"/>
			<point x="186" y="286"/>
			<point x="226" y="360"/>
			<point x="290" y="390" type="curve"/>
			<point x="242" y="512" type="line"/>
			<point x="118" y="464"/>
			<point x="24" y="354"/>
			<point x="24" y="212" type="curve" smooth="yes"/>
			<point x="24" y="60"/>
			<point x="140" y="-6"/>
		</contour>
	</outline>
</glyph>
<glyph name="koppa" format="2">
	<unicode hex="03D9"/>
	<advance width="540"/>
	<outline>
		<contour>
			<point x="226" y="-12" type="curve" smooth="yes"/>
			<point x="364" y="-12"/>
			<point x="510" y="110"/>
			<point x="510" y="304" type="curve" smooth="yes"/>
			<point x="510" y="428"/>
			<point x="430" y="512"/>
			<point x="310" y="512" type="curve" smooth="yes"/>
			<point x="172" y="512"/>
			<point x="26" y="390"/>
			<point x="26" y="196" type="curve" smooth="yes"/>
			<point x="26" y="72"/>
			<point x="106" y="-12"/>
		</contour>
		<contour>
			<point x="244" y="108" type="curve" smooth="yes"/>
			<point x="206" y="108"/>
			<point x="188" y="142"/>
			<point x="188" y="198" type="curve" smooth="yes"/>
			<point x="188" y="306"/>
			<point x="234" y="384"/>
			<point x="292" y="384" type="curve" smooth="yes"/>
			<point x="330" y="384"/>
			<point x="348" y="352"/>
			<point x="348" y="302" type="curve" smooth="yes"/>
			<point x="348" y="188"/>
			<point x="302" y="108"/>
		</contour>
		<contour>
			<point x="104" y="-176" type="line"/>
			<point x="266" y="-176" type="line"/>
			<point x="276" y="-114"/>
			<point x="284" y="-50"/>
			<point x="302" y="14" type="curve"/>
			<point x="168" y="52" type="line"/>
		</contour>
	</outline>
	<anchor name="aboveLC" x="310" y="522"/>
	<anchor name="belowLC" x="190" y="-182"/>
</glyph>
<glyph name="Dje" format="2">
	<unicode hex="0402"/>
	<advance width="674"/>
	<outline>
		<contour>
			<point x="412" y="-12" type="curve" smooth="yes"/>
			<point x="530" y="-12"/>
			<point x="630" y="84"/>
			<point x="630" y="236" type="curve" smooth="yes"/>
			<point x="630" y="364"/>
			<point x="556" y="412"/>
			<point x="441" y="412" type="curve" smooth="yes"/>
			<point x="414" y="412"/>
			<point x="389" y="408"/>
			<point x="358" y="397" type="curve"/>
			<point x="382" y="516" type="line"/>
			<point x="569" y="516" type="line"/>
			<point x="596" y="651" type="line"/>
			<point x="106" y="651" type="line"/>
			<point x="80" y="516" type="line"/>
			<point x="224" y="516" type="line"/>
			<point x="120" y="0" type="line"/>
			<point x="278" y="0" type="line"/>
			<point x="333" y="272" type="line"/>
			<point x="353" y="282"/>
			<point x="378" y="287"/>
			<point x="399" y="287" type="curve" smooth="yes"/>
			<point x="449" y="287"/>
			<point x="474" y="264"/>
			<point x="474" y="214" type="curve" smooth="yes"/>
			<point x="474" y="158"/>
			<point x="446" y="119"/>
			<point x="416" y="119" type="curve" smooth="yes"/>
			<point x="406" y="119"/>
			<point x="398" y="120"/>
			<point x="388" y="126" type="curve"/>
			<point x="336" y="8" type="line"/>
			<point x="352" y="-4"/>
			<point x="384" y="-12"/>
		</contour>
	</outline>
</glyph>
<glyph name="Ie" format="1">
	<unicode hex="0415"/>
	<advance width="536"/>
	<outline>
		<component base="E"/>
		<contour>
			<point name="aboveUC" x="360" y="672" type="move"/>
		</contour>
	</outline>
</glyph>
<glyph name="Zhe" format="1">
	<unicode hex="0416"/>
	<advance width="856"/>
	<outline>
		<contour>
			<point x="-46" y="0" type="line"/>
			<point x="138" y="0" type="line"/>
			<point x="304" y="264" type="line"/>
			<point x="360" y="264" type="line"/>
			<point x="306" y="0" type="line"/>
			<point x="462" y="0" type="line"/>
			<point x="516" y="264" type="line"/>
			<point x="569" y="264" type="line"/>
			<point x="636" y="0" type="line"/>
			<point x="812" y="0" type="line"/>
			<point x="680" y="402" type="line"/>
			<point x="542" y="402" type="line"/>
			<point x="592" y="650" type="line"/>
			<point x="436" y="650" type="line"/>
			<point x="388" y="402" type="line"/>
			<point x="236" y="402" type="line"/>
		</contour>
		<contour>
			<point x="218" y="340" type="line"/>
			<point x="347" y="374" type="line"/>
			<point x="302" y="546" type="line" smooth="yes"/>
			<point x="280" y="630"/>
			<point x="220" y="662"/>
			<point x="152" y="662" type="curve" smooth="yes"/>
			<point x="125" y="662"/>
			<point x="104" y="658"/>
			<point x="82" y="652" type="curve"/>
			<point x="98" y="498" type="line"/>
			<point x="110" y="502"/>
			<point x="122" y="502"/>
			<point x="128" y="502" type="curve" smooth="yes"/>
			<point x="154" y="502"/>
			<point x="174" y="486"/>
			<point x="184" y="452" type="curve" smooth="yes"/>
		</contour>
		<contour>
			<point x="698" y="340" type="line"/>
			<point x="770" y="452" type="line" smooth="yes"/>
			<point x="796" y="492"/>
			<point x="818" y="502"/>
			<point x="850" y="502" type="curve" smooth="yes"/>
			<point x="860" y="502"/>
			<point x="870" y="500"/>
			<point x="876" y="498" type="curve"/>
			<point x="926" y="652" type="line"/>
			<point x="911" y="658"/>
			<point x="890" y="662"/>
			<point x="870" y="662" type="curve" smooth="yes"/>
			<point x="795" y="662"/>
			<point x="732" y="636"/>
			<point x="676" y="546" type="curve" smooth="yes"/>
			<point x="570" y="374" type="line"/>
		</contour>
		<contour>
			<point name="aboveUC" x="520" y="670" type="move"/>
		</contour>
	</outline>
</glyph>
<glyph name="Ze" format="1">
	<unicode hex="0417"/>
	<advance width="544"/>
	<outline>
		<contour>
			<point x="222" y="-12" type="curve" smooth="yes"/>
			<point x="390" y="-12"/>
			<point x="510" y="80"/>
			<point x="510" y="214" type="curve" smooth="yes"/>
			<point x="510" y="276"/>
			<point x="472" y="324"/>
			<point x="414" y="338" type="curve"/>
			<point x="414" y="342" type="line"/>
			<point x="496" y="370"/>
			<point x="542" y="436"/>
			<point x="542" y="508" type="curve" smooth="yes"/>
			<point x="542" y="608"/>
			<point x="468" y="662"/>
			<point x="320" y="662" type="curve" smooth="yes"/>
			<point x="248" y="662"/>
			<point x="180" y="632"/>
			<point x="116" y="586" type="curve"/>
			<point x="184" y="480" type="line"/>
			<point x="228" y="510"/>
			<point x="264" y="526"/>
			<point x="312" y="526" type="curve" smooth="yes"/>
			<point x="352" y="526"/>
			<point x="380" y="508"/>
			<point x="380" y="474" type="curve" smooth="yes"/>
			<point x="380" y="430"/>
			<point x="354" y="392"/>
			<point x="275" y="392" type="curve" smooth="yes"/>
			<point x="208" y="392" type="line"/>
			<point x="186" y="278" type="line"/>
			<point x="272" y="278" type="line" smooth="yes"/>
			<point x="322" y="278"/>
			<point x="348" y="260"/>
			<point x="348" y="220" type="curve" smooth="yes"/>
			<point x="348" y="162"/>
			<point x="300" y="124"/>
			<point x="230" y="124" type="curve" smooth="yes"/>
			<point x="184" y="124"/>
			<point x="132" y="144"/>
			<point x="96" y="182" type="curve"/>
			<point x="4" y="88" type="line"/>
			<point x="62" y="19"/>
			<point x="148" y="-12"/>
		</contour>
	</outline>
</glyph>
<glyph name="Ef" format="1">
	<unicode hex="0424"/>
	<advance width="776"/>
	<outline>
		<contour>
			<point x="292" y="96" type="curve" smooth="yes"/>
			<point x="428" y="96" type="line" smooth="yes"/>
			<point x="618" y="96"/>
			<point x="752" y="190"/>
			<point x="752" y="360" type="curve" smooth="yes"/>
			<point x="752" y="486"/>
			<point x="656" y="556"/>
			<point x="518" y="556" type="curve" smooth="yes"/>
			<point x="382" y="556" type="line" smooth="yes"/>
			<point x="192" y="556"/>
			<point x="58" y="462"/>
			<point x="58" y="292" type="curve" smooth="yes"/>
			<point x="58" y="166"/>
			<point x="154" y="96"/>
		</contour>
		<contour>
			<point x="316" y="220" type="line" smooth="yes"/>
			<point x="254" y="220"/>
			<point x="216" y="256"/>
			<point x="216" y="312" type="curve" smooth="yes"/>
			<point x="216" y="386"/>
			<point x="266" y="432"/>
			<point x="358" y="432" type="curve" smooth="yes"/>
			<point x="494" y="432" type="line" smooth="yes"/>
			<point x="556" y="432"/>
			<point x="594" y="396"/>
			<point x="594" y="340" type="curve" smooth="yes"/>
			<point x="594" y="266"/>
			<point x="544" y="220"/>
			<point x="452" y="220" type="curve" smooth="yes"/>
		</contour>
		<contour>
			<point x="264" y="-12" type="line"/>
			<point x="410" y="-12" type="line"/>
			<point x="546" y="662" type="line"/>
			<point x="400" y="662" type="line"/>
		</contour>
	</outline>
</glyph>
<glyph name="Che" format="1">
	<unicode hex="0427"/>
	<advance width="624"/>
	<outline>
		<contour>
			<point x="338" y="0" type="line"/>
			<point x="498" y="0" type="line"/>
			<point x="628" y="650" type="line"/>
			<point x="468" y="650" type="line"/>
			<point x="412" y="366" type="line"/>
			<point x="394" y="356"/>
			<point x="379" y="352"/>
			<point x="352" y="352" type="curve" smooth="yes"/>
			<point x="290" y="352"/>
			<point x="254" y="379"/>
			<point x="254" y="439" type="curve" smooth="yes"/>
			<point x="254" y="450"/>
			<point x="256" y="468"/>
			<point x="258" y="480" type="curve" smooth="yes"/>
			<point x="292" y="650" type="line"/>
			<point x="136" y="650" type="line"/>
			<point x="104" y="490" type="line"/>
			<point x="98" y="465"/>
			<point x="96" y="440"/>
			<point x="96" y="420" type="curve" smooth="yes"/>
			<point x="96" y="290"/>
			<point x="186" y="228"/>
			<point x="316" y="228" type="curve" smooth="yes"/>
			<point x="340" y="228"/>
			<point x="362" y="232"/>
			<point x="386" y="242" type="curve"/>
		</contour>
		<contour>
			<point name="aboveUC" x="380" y="672" type="move"/>
		</contour>
	</outline>
</glyph>
<glyph name="Sha" format="2">
	<unicode hex="0428"/>
	<advance width="884"/>
	<outline>
		<contour>
			<point x="26" y="0" type="line"/>
			<point x="770" y="0" type="line"/>
			<point x="900" y="650" type="line"/>
			<point x="740" y="650" type="line"/>
			<point x="636" y="134" type="line"/>
			<point x="504" y="134" type="line"/>
			<point x="608" y="650" type="line"/>
			<point x="448" y="650" type="line"/>
			<point x="344" y="134" type="line"/>
			<point x="212" y="134" type="line"/>
			<point x="316" y="650" type="line"/>
			<point x="156" y="650" type="line"/>
		</contour>
	</outline>
</glyph>
<glyph name="Hard" format="2">
	<unicode hex="042A"/>
	<advance width="702"/>
	<outline>
		<contour>
			<point x="142" y="0" type="line"/>
			<point x="368" y="0" type="line" smooth="yes"/>
			<point x="520" y="0"/>
			<point x="658" y="69"/>
			<point x="658" y="246" type="curve" smooth="yes"/>
			<point x="658" y="350"/>
			<point x="582" y="420"/>
			<point x="446" y="420" type="curve" smooth="yes"/>
			<point x="386" y="420" type="line"/>
			<point x="430" y="650" type="line"/>
			<point x="106" y="650" type="line"/>
			<point x="80" y="516" type="line"/>
			<point x="244" y="516" type="line"/>
		</contour>
		<contour>
			<point x="326" y="126" type="line"/>
			<point x="360" y="294" type="line"/>
			<point x="412" y="294" type="line" smooth="yes"/>
			<point x="472" y="294"/>
			<point x="500" y="272"/>
			<point x="500" y="222" type="curve" smooth="yes"/>
			<point x="500" y="166"/>
			<point x="460" y="126"/>
			<point x="380" y="126" type="curve" smooth="yes"/>
		</contour>
	</outline>
</glyph>
<glyph name="Ecyr" format="1">
	<unicode hex="042D"/>
	<advance width="561"/>
	<outline>
		<contour>
			<point x="208" y="-12" type="curve" smooth="yes"/>
			<point x="402" y="-12"/>
			<point x="548" y="138"/>
			<point x="548" y="386" type="curve" smooth="yes"/>
			<point x="548" y="564"/>
			<point x="440" y="662"/>
			<point x="294" y="662" type="curve" smooth="yes"/>
			<point x="222" y="662"/>
			<point x="146" y="626"/>
			<point x="96" y="586" type="curve"/>
			<point x="164" y="480" type="line"/>
			<point x="206" y="510"/>
			<point x="242" y="526"/>
			<point x="286" y="526" type="curve" smooth="yes"/>
			<point x="346" y="526"/>
			<point x="390" y="472"/>
			<point x="390" y="376" type="curve" smooth="yes"/>
			<point x="390" y="232"/>
			<point x="318" y="124"/>
			<point x="216" y="124" type="curve" smooth="yes"/>
			<point x="164" y="124"/>
			<point x="124" y="150"/>
			<point x="96" y="182" type="curve"/>
			<point x="3" y="88" type="line"/>
			<point x="49" y="22"/>
			<point x="126" y="-12"/>
		</contour>
		<contour>
			<point x="136" y="268" type="line"/>
			<point x="436" y="268" type="line"/>
			<point x="462" y="400" type="line"/>
			<point x="162" y="400" type="line"/>
		</contour>
		<contour>
			<point name="aboveUC" x="330" y="672" type="move"/>
		</contour>
	</outline>
</glyph>
<glyph name="Yu" format="2">
	<unicode hex="042E"/>
	<advance width="938"/>
	<outline>
		<contour>
			<point x="26" y="0" type="line"/>
			<point x="186" y="0" type="line"/>
			<point x="238" y="266" type="line"/>
			<point x="432" y="266" type="line"/>
			<point x="460" y="406" type="line"/>
			<point x="266" y="406" type="line"/>
			<point x="316" y="650" type="line"/>
			<point x="156" y="650" type="line"/>
		</contour>
		<contour>
			<point x="584" y="-12" type="curve" smooth="yes"/>
			<point x="750" y="-12"/>
			<point x="912" y="148"/>
			<point x="912" y="396" type="curve" smooth="yes"/>
			<point x="912" y="566"/>
			<point x="808" y="662"/>
			<point x="664" y="662" type="curve" smooth="yes"/>
			<point x="498" y="662"/>
			<point x="336" y="502"/>
			<point x="336" y="254" type="curve" smooth="yes"/>
			<point x="336" y="84"/>
			<point x="440" y="-12"/>
		</contour>
		<contour>
			<point x="592" y="126" type="curve" smooth="yes"/>
			<point x="525" y="126"/>
			<point x="490" y="176"/>
			<point x="490" y="264" type="curve" smooth="yes"/>
			<point x="490" y="420"/>
			<point x="577" y="524"/>
			<point x="656" y="524" type="curve" smooth="yes"/>
			<point x="716" y="524"/>
			<point x="748" y="474"/>
			<point x="748" y="386" type="curve" smooth="yes"/>
			<point x="748" y="230"/>
			<point x="665" y="126"/>
		</contour>
	</outline>
	<anchor name="aboveUC" x="540" y="672"/>
</glyph>
<glyph name="be" format="1">
	<unicode hex="0431"/>
	<advance width="528"/>
	<outline>
		<contour>
			<point x="238" y="-12" type="curve" smooth="yes"/>
			<point x="392" y="-12"/>
			<point x="500" y="120"/>
			<point x="500" y="278" type="curve" smooth="yes"/>
			<point x="500" y="386"/>
			<point x="438" y="458"/>
			<point x="336" y="458" type="curve" smooth="yes"/>
			<point x="280" y="458"/>
			<point x="228" y="432"/>
			<point x="186" y="376" type="curve"/>
			<point x="178" y="267" type="line"/>
			<point x="206" y="312"/>
			<point x="248" y="338"/>
			<point x="280" y="338" type="curve" smooth="yes"/>
			<point x="318" y="338"/>
			<point x="338" y="312"/>
			<point x="338" y="260" type="curve" smooth="yes"/>
			<point x="338" y="177"/>
			<point x="301" y="116"/>
			<point x="248" y="116" type="curve" smooth="yes"/>
			<point x="212" y="116"/>
			<point x="180" y="142"/>
			<point x="180" y="246" type="curve" smooth="yes"/>
			<point x="180" y="414"/>
			<point x="230" y="502"/>
			<point x="320" y="532" type="curve" smooth="yes"/>
			<point x="356" y="544"/>
			<point x="378" y="546"/>
			<point x="436" y="548" type="curve" smooth="yes"/>
			<point x="484" y="550"/>
			<point x="532" y="560"/>
			<point x="562" y="580" type="curve"/>
			<point x="554" y="716" type="line"/>
			<point x="522" y="703"/>
			<point x="480" y="700"/>
			<point x="428" y="696" type="curve" smooth="yes"/>
			<point x="344" y="690"/>
			<point x="290" y="672"/>
			<point x="240" y="646" type="curve" smooth="yes"/>
			<point x="108" y="576"/>
			<point x="32" y="404"/>
			<point x="32" y="226" type="curve" smooth="yes"/>
			<point x="32" y="68"/>
			<point x="120" y="-12"/>
		</contour>
	</outline>
</glyph>
<glyph name="ve" format="2">
	<unicode hex="0432"/>
	<advance width="508"/>
	<outline>
		<contour>
			<point x="228" y="-12" type="curve" smooth="yes"/>
			<point x="360" y="-12"/>
			<point x="470" y="56"/>
			<point x="470" y="164" type="curve" smooth="yes"/>
			<point x="470" y="202"/>
			<point x="445" y="246"/>
			<point x="388" y="254" type="curve"/>
			<point x="388" y="258" type="line"/>
			<point x="452" y="278"/>
			<point x="488" y="332"/>
			<point x="488" y="392" type="curve" smooth="yes"/>
			<point x="488" y="464"/>
			<point x="424" y="512"/>
			<point x="334" y="512" type="curve" smooth="yes"/>
			<point x="166" y="512"/>
			<point x="26" y="374"/>
			<point x="26" y="156" type="curve" smooth="yes"/>
			<point x="26" y="56"/>
			<point x="100" y="-12"/>
		</contour>
		<contour>
			<point x="252" y="110" type="curve" smooth="yes"/>
			<point x="216" y="110"/>
			<point x="178" y="128"/>
			<point x="178" y="172" type="curve" smooth="yes"/>
			<point x="178" y="302"/>
			<point x="218" y="390"/>
			<point x="288" y="390" type="curve" smooth="yes"/>
			<point x="318" y="390"/>
			<point x="334" y="376"/>
			<point x="334" y="352" type="curve" smooth="yes"/>
			<point x="334" y="324"/>
			<point x="310" y="306"/>
			<point x="260" y="306" type="curve" smooth="yes"/>
			<point x="166" y="306" type="line"/>
			<point x="146" y="202" type="line"/>
			<point x="244" y="202" type="line" smooth="yes"/>
			<point x="294" y="202"/>
			<point x="316" y="191"/>
			<point x="316" y="158" type="curve" smooth="yes"/>
			<point x="316" y="130"/>
			<point x="291" y="110"/>
		</contour>
	</outline>
</glyph>
<glyph name="ghe" format="1">
	<unicode hex="0433"/>
	<advance width="418"/>
	<outline>
		<contour>
			<point x="172" y="-12" type="curve" smooth="yes"/>
			<point x="254" y="-12"/>
			<point x="322" y="16"/>
			<point x="376" y="50" type="curve"/>
			<point x="322" y="150" type="line"/>
			<point x="274" y="120"/>
			<point x="230" y="104"/>
			<point x="190" y="104" type="curve" smooth="yes"/>
			<point x="168" y="104"/>
			<point x="156" y="118"/>
			<point x="156" y="134" type="curve" smooth="yes"/>
			<point x="156" y="194"/>
			<point x="410" y="218"/>
			<point x="410" y="378" type="curve" smooth="yes"/>
			<point x="410" y="464"/>
			<point x="352" y="512"/>
			<point x="248" y="512" type="curve" smooth="yes"/>
			<point x="184" y="512"/>
			<point x="116" y="490"/>
			<point x="64" y="446" type="curve"/>
			<point x="126" y="356" type="line"/>
			<point x="162" y="380"/>
			<point x="201" y="394"/>
			<point x="230" y="394" type="curve" smooth="yes"/>
			<point x="252" y="394"/>
			<point x="262" y="382"/>
			<point x="262" y="366" type="curve" smooth="yes"/>
			<point x="262" y="306"/>
			<point x="8" y="288"/>
			<point x="8" y="128" type="curve" smooth="yes"/>
			<point x="8" y="43"/>
			<point x="60" y="-12"/>
		</contour>
		<contour>
			<point name="aboveLC" x="270" y="520" type="move"/>
		</contour>
	</outline>
</glyph>
<glyph name="zhe" format="1">
	<unicode hex="0436"/>
	<advance width="740"/>
	<outline>
		<contour>
			<point x="-56" y="0" type="line"/>
			<point x="120" y="0" type="line"/>
			<point x="249" y="190" type="line"/>
			<point x="286" y="190" type="line"/>
			<point x="248" y="0" type="line"/>
			<point x="394" y="0" type="line"/>
			<point x="432" y="190" type="line"/>
			<point x="466" y="190" type="line"/>
			<point x="532" y="0" type="line"/>
			<point x="706" y="0" type="line"/>
			<point x="559" y="324" type="line"/>
			<point x="458" y="324" type="line"/>
			<point x="494" y="500" type="line"/>
			<point x="348" y="500" type="line"/>
			<point x="312" y="324" type="line"/>
			<point x="192" y="324" type="line"/>
		</contour>
		<contour>
			<point x="166" y="232" type="line"/>
			<point x="296" y="264" type="line"/>
			<point x="250" y="408" type="line" smooth="yes"/>
			<point x="226" y="484"/>
			<point x="184" y="512"/>
			<point x="108" y="512" type="curve" smooth="yes"/>
			<point x="90" y="512"/>
			<point x="70" y="508"/>
			<point x="54" y="502" type="curve"/>
			<point x="74" y="346" type="line"/>
			<point x="80" y="348"/>
			<point x="87" y="350"/>
			<point x="96" y="350" type="curve" smooth="yes"/>
			<point x="116" y="350"/>
			<point x="128" y="340"/>
			<point x="140" y="306" type="curve" smooth="yes"/>
		</contour>
		<contour>
			<point x="584" y="232" type="line"/>
			<point x="636" y="306" type="line" smooth="yes"/>
			<point x="661" y="341"/>
			<point x="673" y="350"/>
			<point x="693" y="350" type="curve" smooth="yes"/>
			<point x="701" y="350"/>
			<point x="709" y="348"/>
			<point x="716" y="346" type="curve"/>
			<point x="760" y="506" type="line"/>
			<point x="754" y="508"/>
			<point x="736" y="512"/>
			<point x="722" y="512" type="curve" smooth="yes"/>
			<point x="654" y="512"/>
			<point x="602" y="486"/>
			<point x="550" y="408" type="curve" smooth="yes"/>
			<point x="454" y="264" type="line"/>
		</contour>
		<contour>
			<point name="aboveLC" x="420" y="520" type="move"/>
		</contour>
	</outline>
</glyph>
<glyph name="ka" format="1">
	<unicode hex="043A"/>
	<advance width="520"/>
	<outline>
		<contour>
			<point x="8" y="0" type="line"/>
			<point x="168" y="0" type="line"/>
			<point x="204" y="190" type="line"/>
			<point x="242" y="190" type="line"/>
			<point x="314" y="0" type="line"/>
			<point x="476" y="0" type="line"/>
			<point x="336" y="324" type="line"/>
			<point x="232" y="324" type="line"/>
			<point x="268" y="500" type="line"/>
			<point x="108" y="500" type="line"/>
		</contour>
		<contour>
			<point x="360" y="232" type="line"/>
			<point x="410" y="306" type="line" smooth="yes"/>
			<point x="433" y="340"/>
			<point x="446" y="350"/>
			<point x="468" y="350" type="curve" smooth="yes"/>
			<point x="476" y="350"/>
			<point x="484" y="348"/>
			<point x="490" y="346" type="curve"/>
			<point x="534" y="506" type="line"/>
			<point x="520" y="510"/>
			<point x="506" y="512"/>
			<point x="488" y="512" type="curve" smooth="yes"/>
			<point x="420" y="512"/>
			<point x="380" y="490"/>
			<point x="326" y="408" type="curve" smooth="yes"/>
			<point x="230" y="264" type="line"/>
		</contour>
		<contour>
			<point name="aboveLC" x="314" y="522" type="move"/>
		</contour>
	</outline>
</glyph>
<glyph name="en" format="2">
	<unicode hex="043D"/>
	<advance width="568"/>
	<outline>
		<contour>
			<point x="8" y="0" type="line"/>
			<point x="168" y="0" type="line"/>
			<point x="204" y="184" type="line"/>
			<point x="334" y="184" type="line"/>
			<point x="298" y="0" type="line"/>
			<point x="458" y="0" type="line"/>
			<point x="558" y="500" type="line"/>
			<point x="398" y="500" type="line"/>
			<point x="362" y="322" type="line"/>
			<point x="232" y="322" type="line"/>
			<point x="268" y="500" type="line"/>
			<point x="108" y="500" type="line"/>
		</contour>
	</outline>
</glyph>
<glyph name="che" format="1">
	<unicode hex="0447"/>
	<advance width="538"/>
	<outline>
		<contour>
			<point x="268" y="0" type="line"/>
			<point x="428" y="0" type="line"/>
			<point x="528" y="500" type="line"/>
			<point x="368" y="500" type="line"/>
			<point x="328" y="298" type="line"/>
			<point x="308" y="290"/>
			<point x="292" y="286"/>
			<point x="270" y="286" type="curve" smooth="yes"/>
			<point x="234" y="286"/>
			<point x="218" y="302"/>
			<point x="218" y="332" type="curve" smooth="yes"/>
			<point x="218" y="340"/>
			<point x="218" y="346"/>
			<point x="220" y="354" type="curve" smooth="yes"/>
			<point x="250" y="500" type="line"/>
			<point x="90" y="500" type="line"/>
			<point x="60" y="354" type="line" smooth="yes"/>
			<point x="56" y="332"/>
			<point x="54" y="312"/>
			<point x="54" y="294" type="curve" smooth="yes"/>
			<point x="54" y="194"/>
			<point x="118" y="152"/>
			<point x="204" y="152" type="curve" smooth="yes"/>
			<point x="248" y="152"/>
			<point x="274" y="158"/>
			<point x="302" y="164" type="curve"/>
		</contour>
		<contour>
			<point name="aboveLC" x="310" y="522" type="move"/>
		</contour>
	</outline>
</glyph>
<glyph name="ecyr" format="1">
	<unicode hex="044D"/>
	<advance width="459"/>
	<outline>
		<contour>
			<point x="156" y="-12" type="curve" smooth="yes"/>
			<point x="316" y="-12"/>
			<point x="440" y="110"/>
			<point x="440" y="304" type="curve" smooth="yes"/>
			<point x="440" y="436"/>
			<point x="358" y="510"/>
			<point x="249" y="510" type="curve" smooth="yes"/>
			<point x="178" y="510"/>
			<point x="112" y="484"/>
			<point x="68" y="450" type="curve"/>
			<point x="122" y="358" type="line"/>
			<point x="156" y="380"/>
			<point x="180" y="390"/>
			<point x="208" y="390" type="curve" smooth="yes"/>
			<point x="248" y="390"/>
			<point x="282" y="358"/>
			<point x="282" y="288" type="curve" smooth="yes"/>
			<point x="282" y="172"/>
			<point x="236" y="108"/>
			<point x="162" y="108" type="curve" smooth="yes"/>
			<point x="120" y="108"/>
			<point x="86" y="126"/>
			<point x="62" y="148" type="curve"/>
			<point x="-14" y="60" type="line"/>
			<point x="18" y="22"/>
			<point x="82" y="-12"/>
		</contour>
		<contour>
			<point x="118" y="202" type="line"/>
			<point x="363" y="202" type="line"/>
			<point x="383" y="306" type="line"/>
			<point x="139" y="306" type="line"/>
		</contour>
		<contour>
			<point name="aboveLC" x="250" y="522" type="move"/>
		</contour>
	</outline>
</glyph>
<glyph name="lje" format="2">
	<unicode hex="0459"/>
	<advance width="780"/>
	<outline>
		<contour>
			<point x="26" y="-12" type="curve" smooth="yes"/>
			<point x="119" y="-12"/>
			<point x="188" y="52"/>
			<point x="226" y="164" type="curve" smooth="yes"/>
			<point x="250" y="234"/>
			<point x="268" y="302"/>
			<point x="290" y="376" type="curve"/>
			<point x="378" y="376" type="line"/>
			<point x="338" y="230" type="line" smooth="yes"/>
			<point x="334" y="214"/>
			<point x="326" y="176"/>
			<point x="326" y="142" type="curve" smooth="yes"/>
			<point x="326" y="54"/>
			<point x="392" y="-12"/>
			<point x="500" y="-12" type="curve" smooth="yes"/>
			<point x="632" y="-12"/>
			<point x="740" y="88"/>
			<point x="740" y="208" type="curve" smooth="yes"/>
			<point x="740" y="288"/>
			<point x="690" y="342"/>
			<point x="604" y="342" type="curve" smooth="yes"/>
			<point x="574" y="342"/>
			<point x="554" y="338"/>
			<point x="526" y="328" type="curve"/>
			<point x="572" y="500" type="line"/>
			<point x="184" y="500" type="line"/>
			<point x="156" y="402"/>
			<point x="130" y="309"/>
			<point x="98" y="214" type="curve" smooth="yes"/>
			<point x="81" y="159"/>
			<point x="62" y="140"/>
			<point x="38" y="140" type="curve" smooth="yes"/>
			<point x="28" y="140"/>
			<point x="20" y="142"/>
			<point x="12" y="144" type="curve"/>
			<point x="-28" y="0" type="line"/>
			<point x="-14" y="-7"/>
			<point x="3" y="-12"/>
		</contour>
		<contour>
			<point x="530" y="108" type="curve" smooth="yes"/>
			<point x="502" y="108"/>
			<point x="484" y="128"/>
			<point x="484" y="158" type="curve" smooth="yes"/>
			<point x="484" y="176"/>
			<point x="488" y="190"/>
			<point x="496" y="210" type="curve"/>
			<point x="517" y="219"/>
			<point x="527" y="224"/>
			<point x="544" y="224" type="curve" smooth="yes"/>
			<point x="574" y="224"/>
			<point x="592" y="208"/>
			<point x="592" y="178" type="curve" smooth="yes"/>
			<point x="592" y="140"/>
			<point x="564" y="108"/>
		</contour>
	</outline>
</glyph>
<glyph name="Ghestroke" format="2">
	<unicode hex="0492"/>
	<advance width="504"/>
	<outline>
		<contour>
			<point x="4" y="256" type="line"/>
			<point x="366" y="256" type="line"/>
			<point x="386" y="360" type="line"/>
			<point x="100" y="360" type="line"/>
			<point x="24" y="354" type="line"/>
		</contour>
		<component base="Gamma"/>
	</outline>
</glyph>
<glyph name="Zedescender" format="2">
	<unicode hex="0498"/>
	<advance width="544"/>
	<outline>
		<contour>
			<point x="116" y="-192" type="line"/>
			<point x="248" y="-192" type="line"/>
			<point x="302" y="0" type="line"/>
			<point x="154" y="0" type="line"/>
		</contour>
		<component base="Ze"/>
	</outline>
</glyph>
<glyph name="Endescender" format="2">
	<unicode hex="04A2"/>
	<advance width="678"/>
	<outline>
		<contour>
			<point x="428" y="-188" type="line"/>
			<point x="560" y="-188" type="line"/>
			<point x="620" y="22" type="line"/>
			<point x="642" y="134" type="line"/>
			<point x="464" y="134" type="line"/>
			<point x="438" y="0" type="line"/>
			<point x="462" y="0" type="line"/>
		</contour>
		<component base="H"/>
	</outline>
</glyph>
<glyph name="Esdescender" format="2">
	<unicode hex="04AA"/>
	<advance width="574"/>
	<outline>
		<contour>
			<point x="176" y="-192" type="line"/>
			<point x="308" y="-192" type="line"/>
			<point x="362" y="0" type="line"/>
			<point x="216" y="8" type="line"/>
		</contour>
		<component base="C"/>
	</outline>
</glyph>
<glyph name="ustraight" format="2">
	<unicode hex="04AF"/>
	<advance width="518"/>
	<outline>
		<contour>
			<point x="96" y="-176" type="line"/>
			<point x="256" y="-176" type="line"/>
			<point x="288" y="0" type="line"/>
			<point x="554" y="500" type="line"/>
			<point x="398" y="500" type="line"/>
			<point x="306" y="304" type="line"/>
			<point x="285" y="253"/>
			<point x="261" y="191"/>
			<point x="240" y="140" type="curve"/>
			<point x="236" y="140" type="line"/>
			<point x="236" y="193"/>
			<point x="234" y="254"/>
			<point x="232" y="304" type="curve" smooth="yes"/>
			<point x="220" y="500" type="line"/>
			<point x="60" y="500" type="line"/>
			<point x="134" y="0" type="line"/>
		</contour>
	</outline>
	<anchor name="aboveLC" x="300" y="522"/>
</glyph>
<glyph name="Hadescender" format="2">
	<unicode hex="04B2"/>
	<advance width="576"/>
	<outline>
		<contour>
			<point x="360" y="-188" type="line"/>
			<point x="492" y="-188" type="line"/>
			<point x="552" y="22" type="line"/>
			<point x="574" y="134" type="line"/>
			<point x="396" y="134" type="line"/>
			<point x="370" y="0" type="line"/>
			<point x="394" y="0" type="line"/>
		</contour>
		<component base="X"/>
	</outline>
</glyph>
<glyph name="Chedescender" format="2">
	<unicode hex="04B6"/>
	<advance width="638"/>
	<outline>
		<contour>
			<point x="388" y="-188" type="line"/>
			<point x="520" y="-188" type="line"/>
			<point x="580" y="22" type="line"/>
			<point x="602" y="134" type="line"/>
			<point x="424" y="134" type="line"/>
			<point x="398" y="0" type="line"/>
			<point x="422" y="0" type="line"/>
		</contour>
		<component base="Che"/>
	</outline>
</glyph>
<glyph name="enhook" format="2">
	<unicode hex="04C8"/>
	<advance width="568"/>
	<outline>
		<contour>
			<point x="258" y="-188" type="curve" smooth="yes"/>
			<point x="380" y="-188"/>
			<point x="436" y="-102"/>
			<point x="458" y="2" type="curve" smooth="yes"/>
			<point x="558" y="500" type="line"/>
			<point x="398" y="500" type="line"/>
			<point x="362" y="322" type="line"/>
			<point x="232" y="322" type="line"/>
			<point x="268" y="500" type="line"/>
			<point x="108" y="500" type="line"/>
			<point x="8" y="0" type="line"/>
			<point x="168" y="0" type="line"/>
			<point x="204" y="184" type="line"/>
			<point x="334" y="184" type="line"/>
			<point x="300" y="10" type="line" smooth="yes"/>
			<point x="290" y="-42"/>
			<point x="276" y="-62"/>
			<point x="244" y="-62" type="curve" smooth="yes"/>
			<point x="228" y="-62"/>
			<point x="214" y="-58"/>
			<point x="200" y="-52" type="curve"/>
			<point x="158" y="-164" type="line"/>
			<point x="188" y="-182"/>
			<point x="223" y="-188"/>
		</contour>
	</outline>
</glyph>
<glyph name="Obarcyr" format="1">
	<unicode hex="04E8"/>
	<advance width="670"/>
	<outline>
		<component base="Fita"/>
		<contour>
			<point name="aboveUC" x="410" y="672" type="move"/>
		</contour>
	</outline>
</glyph>
<glyph name="Ghedescender" format="2">
	<unicode hex="04F6"/>
	<advance width="504"/>
	<outline>
		<contour>
			<point x="76" y="-188" type="line"/>
			<point x="208" y="-188" type="line"/>
			<point x="268" y="22" type="line"/>
			<point x="290" y="134" type="line"/>
			<point x="112" y="134" type="line"/>
			<point x="86" y="0" type="line"/>
			<point x="110" y="0" type="line"/>
		</contour>
		<component base="Ghe"/>
	</outline>
</glyph>
<glyph name="P.sups" format="2">
	<unicode hex="1D3E"/>
	<advance width="400"/>
	<outline>
		<contour>
			<point x="70" y="368" type="line"/>
			<point x="184" y="368" type="line"/>
			<point x="210" y="504" type="line"/>
			<point x="260" y="504" type="line" smooth="yes"/>
			<point x="368" y="504"/>
			<point x="464" y="554"/>
			<point x="464" y="680" type="curve" smooth="yes"/>
			<point x="464" y="768"/>
			<point x="398" y="800"/>
			<point x="312" y="800" type="curve" smooth="yes"/>
			<point x="156" y="800" type="line"/>
		</contour>
		<contour>
			<point x="228" y="596" type="line"/>
			<point x="252" y="706" type="line"/>
			<point x="290" y="706" type="line" smooth="yes"/>
			<point x="326" y="706"/>
			<point x="350" y="694"/>
			<point x="350" y="664" type="curve" smooth="yes"/>
			<point x="350" y="620"/>
			<point x="320" y="596"/>
			<point x="267" y="596" type="curve" smooth="yes"/>
		</contour>
	</outline>
</glyph>
<glyph name="b.sups" format="2">
	<unicode hex="1D47"/>
	<advance width="374"/>
	<outline>
		<contour>
			<point x="238" y="360" type="curve" smooth="yes"/>
			<point x="330" y="360"/>
			<point x="416" y="460"/>
			<point x="416" y="586" type="curve" smooth="yes"/>
			<point x="416" y="664"/>
			<point x="380" y="708"/>
			<point x="322" y="708" type="curve" smooth="yes"/>
			<point x="290" y="708"/>
			<point x="256" y="690"/>
			<point x="232" y="668" type="curve"/>
			<point x="228" y="668" type="line"/>
			<point x="249" y="732" type="line"/>
			<point x="268" y="828" type="line"/>
			<point x="156" y="828" type="line"/>
			<point x="64" y="368" type="line"/>
			<point x="154" y="368" type="line"/>
			<point x="170" y="402" type="line"/>
			<point x="174" y="402" type="line"/>
			<point x="186" y="377"/>
			<point x="210" y="360"/>
		</contour>
		<contour>
			<point x="230" y="450" type="curve" smooth="yes"/>
			<point x="218" y="450"/>
			<point x="204" y="458"/>
			<point x="198" y="474" type="curve"/>
			<point x="216" y="576" type="line"/>
			<point x="234" y="610"/>
			<point x="256" y="618"/>
			<point x="274" y="618" type="curve" smooth="yes"/>
			<point x="290" y="618"/>
			<point x="302" y="604"/>
			<point x="302" y="572" type="curve" smooth="yes"/>
			<point x="302" y="500"/>
			<point x="266" y="450"/>
		</contour>
	</outline>
</glyph>
<glyph name="d.sups" format="2">
	<unicode hex="1D48"/>
	<advance width="386"/>
	<outline>
		<contour>
			<point x="172" y="360" type="curve" smooth="yes"/>
			<point x="203" y="360"/>
			<point x="242" y="378"/>
			<point x="270" y="408" type="curve"/>
			<point x="274" y="408" type="line"/>
			<point x="274" y="368" type="line"/>
			<point x="364" y="368" type="line"/>
			<point x="456" y="828" type="line"/>
			<point x="344" y="828" type="line"/>
			<point x="326" y="736" type="line"/>
			<point x="322" y="670" type="line"/>
			<point x="318" y="670" type="line"/>
			<point x="308" y="690"/>
			<point x="284" y="708"/>
			<point x="256" y="708" type="curve" smooth="yes"/>
			<point x="164" y="708"/>
			<point x="78" y="608"/>
			<point x="78" y="482" type="curve" smooth="yes"/>
			<point x="78" y="404"/>
			<point x="114" y="360"/>
		</contour>
		<contour>
			<point x="220" y="450" type="curve" smooth="yes"/>
			<point x="204" y="450"/>
			<point x="192" y="464"/>
			<point x="192" y="496" type="curve" smooth="yes"/>
			<point x="192" y="568"/>
			<point x="228" y="618"/>
			<point x="264" y="618" type="curve" smooth="yes"/>
			<point x="275" y="618"/>
			<point x="289" y="610"/>
			<point x="296" y="594" type="curve"/>
			<point x="278" y="492" type="line"/>
			<point x="260" y="458"/>
			<point x="238" y="450"/>
		</contour>
	</outline>
</glyph>
<glyph name="e.sups" format="1">
	<unicode hex="1D49"/>
	<advance width="336"/>
	<outline>
		<contour>
			<point x="219" y="360" type="curve" smooth="yes"/>
			<point x="255" y="360"/>
			<point x="297" y="370"/>
			<point x="335" y="391" type="curve"/>
			<point x="303" y="461" type="line"/>
			<point x="282" y="448"/>
			<point x="267" y="442"/>
			<point x="251" y="442" type="curve" smooth="yes"/>
			<point x="211" y="442"/>
			<point x="181" y="458"/>
			<point x="179" y="500" type="curve"/>
			<point x="358" y="500" type="line"/>
			<point x="364" y="510"/>
			<point x="377" y="547"/>
			<point x="377" y="580" type="curve" smooth="yes"/>
			<point x="377" y="650"/>
			<point x="348" y="708"/>
			<point x="266" y="708" type="curve" smooth="yes"/>
			<point x="176" y="708"/>
			<point x="76" y="625"/>
			<point x="76" y="504" type="curve" smooth="yes"/>
			<point x="76" y="415"/>
			<point x="134" y="360"/>
		</contour>
		<contour>
			<point x="187" y="566" type="line"/>
			<point x="202" y="606"/>
			<point x="228" y="624"/>
			<point x="252" y="624" type="curve" smooth="yes"/>
			<point x="279" y="624"/>
			<point x="287" y="607"/>
			<point x="287" y="586" type="curve" smooth="yes"/>
			<point x="287" y="578"/>
			<point x="286" y="572"/>
			<point x="285" y="566" type="curve"/>
		</contour>
	</outline>
</glyph>
<glyph name="o.sups" format="2">
	<unicode hex="1D52"/>
	<advance width="362"/>
	<outline>
		<contour>
			<point x="212" y="360" type="curve" smooth="yes"/>
			<point x="308" y="360"/>
			<point x="402" y="442"/>
			<point x="402" y="569" type="curve" smooth="yes"/>
			<point x="402" y="657"/>
			<point x="342" y="708"/>
			<point x="266" y="708" type="curve" smooth="yes"/>
			<point x="170" y="708"/>
			<point x="76" y="626"/>
			<point x="76" y="499" type="curve" smooth="yes"/>
			<point x="76" y="411"/>
			<point x="136" y="360"/>
		</contour>
		<contour>
			<point x="222" y="448" type="curve" smooth="yes"/>
			<point x="198" y="448"/>
			<point x="188" y="468"/>
			<point x="188" y="500" type="curve" smooth="yes"/>
			<point x="188" y="568"/>
			<point x="214" y="620"/>
			<point x="256" y="620" type="curve" smooth="yes"/>
			<point x="280" y="620"/>
			<point x="290" y="600"/>
			<point x="290" y="568" type="curve" smooth="yes"/>
			<point x="290" y="500"/>
			<point x="264" y="448"/>
		</contour>
	</outline>
</glyph>
<glyph name="t.sups" format="1">
	<unicode hex="1D57"/>
	<advance width="259"/>
	<outline>
		<contour>
			<point x="78" y="498" type="line" smooth="yes"/>
			<point x="75" y="483"/>
			<point x="73" y="469"/>
			<point x="73" y="454" type="curve" smooth="yes"/>
			<point x="73" y="399"/>
			<point x="103" y="360"/>
			<point x="176" y="360" type="curve" smooth="yes"/>
			<point x="206" y="360"/>
			<point x="236" y="366"/>
			<point x="256" y="372" type="curve"/>
			<point x="239" y="451" type="line"/>
			<point x="230" y="448"/>
			<point x="224" y="446"/>
			<point x="214" y="446" type="curve" smooth="yes"/>
			<point x="197" y="446"/>
			<point x="187" y="454"/>
			<point x="187" y="475" type="curve" smooth="yes"/>
			<point x="187" y="481"/>
			<point x="187" y="487"/>
			<point x="188" y="494" type="curve" smooth="yes"/>
			<point x="212" y="614" type="line"/>
			<point x="287" y="614" type="line"/>
			<point x="303" y="700" type="line"/>
			<point x="229" y="700" type="line"/>
			<point x="246" y="783" type="line"/>
			<point x="154" y="783" type="line"/>
			<point x="126" y="700" type="line"/>
			<point x="76" y="696" type="line"/>
			<point x="60" y="614" type="line"/>
			<point x="103" y="614" type="line"/>
		</contour>
	</outline>
</glyph>
<glyph name="v.sups" format="2">
	<unicode hex="1D5B"/>
	<advance width="350"/>
	<outline>
		<contour>
			<point x="140" y="368" type="line"/>
			<point x="267" y="368" type="line"/>
			<point x="433" y="700" type="line"/>
			<point x="325" y="700" type="line"/>
			<point x="262" y="550" type="line"/>
			<point x="220" y="448" type="line"/>
			<point x="217" y="448" type="line"/>
			<point x="216" y="550" type="line"/>
			<point x="210" y="700" type="line"/>
			<point x="99" y="700" type="line"/>
		</contour>
	</outline>
</glyph>
<glyph name="c.sups" format="1">
	<unicode hex="1D9C"/>
	<advance width="298"/>
	<outline>
		<contour>
			<point x="211" y="360" type="curve" smooth="yes"/>
			<point x="256" y="360"/>
			<point x="296" y="378"/>
			<point x="316" y="395" type="curve"/>
			<point x="281" y="464" type="line"/>
			<point x="268" y="456"/>
			<point x="257" y="447"/>
			<point x="236" y="447" type="curve" smooth="yes"/>
			<point x="211" y="447"/>
			<point x="189" y="465"/>
			<point x="189" y="505" type="curve" smooth="yes"/>
			<point x="189" y="566"/>
			<point x="225" y="620"/>
			<point x="272" y="620" type="curve" smooth="yes"/>
			<point x="287" y="620"/>
			<point x="296" y="614"/>
			<point x="307" y="601" type="curve"/>
			<point x="370" y="668" type="line"/>
			<point x="350" y="688"/>
			<point x="317" y="708"/>
			<point x="276" y="708" type="curve" smooth="yes"/>
			<point x="161" y="708"/>
			<point x="76" y="609"/>
			<point x="76" y="492" type="curve" smooth="yes"/>
			<point x="76" y="409"/>
			<point x="137" y="360"/>
		</contour>
	</outline>
</glyph>
<glyph name="z.sups" format="1">
	<unicode hex="1DBB"/>
	<advance width="307"/>
	<outline>
		<contour>
			<point x="27" y="368" type="line"/>
			<point x="290" y="368" type="line"/>
			<point x="306" y="454" type="line"/>
			<point x="183" y="454" type="line"/>
			<point x="338" y="637" type="line"/>
			<point x="351" y="700" type="line"/>
			<point x="105" y="700" type="line"/>
			<point x="89" y="614" type="line"/>
			<point x="195" y="614" type="line"/>
			<point x="39" y="429" type="line"/>
		</contour>
	</outline>
</glyph>
<glyph name="deltalatin" format="2">
	<unicode hex="1E9F"/>
	<advance width="534"/>
	<outline>
		<contour>
			<point x="226" y="-12" type="curve" smooth="yes"/>
			<point x="382" y="-12"/>
			<point x="496" y="108"/>
			<point x="496" y="290" type="curve" smooth="yes"/>
			<point x="496" y="401"/>
			<point x="436" y="500"/>
			<point x="328" y="576" type="curve"/>
			<point x="524" y="576" type="line"/>
			<point x="550" y="696" type="line"/>
			<point x="164" y="696" type="line"/>
			<point x="136" y="564" type="line"/>
			<point x="286" y="460"/>
			<point x="344" y="362"/>
			<point x="344" y="258" type="curve" smooth="yes"/>
			<point x="344" y="176"/>
			<point x="292" y="116"/>
			<point x="246" y="116" type="curve" smooth="yes"/>
			<point x="206" y="116"/>
			<point x="178" y="142"/>
			<point x="178" y="200" type="curve" smooth="yes"/>
			<point x="178" y="276"/>
			<point x="232" y="354"/>
			<point x="336" y="354" type="curve"/>
			<point x="286" y="440" type="line"/>
			<point x="142" y="440"/>
			<point x="26" y="318"/>
			<point x="26" y="182" type="curve" smooth="yes"/>
			<point x="26" y="60"/>
			<point x="110" y="-12"/>
		</contour>
	</outline>
	<anchor name="aboveUC" x="360" y="722"/>
	<anchor name="belowLC" x="220" y="-22"/>
</glyph>
<glyph name="figuredash" format="2">
	<unicode hex="2012"/>
	<advance width="520"/>
	<outline>
		<contour>
			<point x="34" y="202" type="line"/>
			<point x="466" y="202" type="line"/>
			<point x="486" y="304" type="line"/>
			<point x="54" y="304" type="line"/>
		</contour>
	</outline>
</glyph>
<glyph name="quotereversed" format="2">
	<unicode hex="201B"/>
	<advance width="310"/>
	<outline>
		<contour>
			<point x="210" y="348" type="curve"/>
			<point x="262" y="416" type="line"/>
			<point x="217" y="446"/>
			<point x="202" y="478"/>
			<point x="202" y="520" type="curve" smooth="yes"/>
			<point x="202" y="530"/>
			<point x="204" y="540"/>
			<point x="206" y="546" type="curve"/>
			<point x="226" y="624" type="line"/>
			<point x="190" y="546" type="line"/>
			<point x="198" y="538"/>
			<point x="216" y="534"/>
			<point x="228" y="534" type="curve" smooth="yes"/>
			<point x="286" y="534"/>
			<point x="322" y="578"/>
			<point x="322" y="626" type="curve" smooth="yes"/>
			<point x="322" y="670"/>
			<point x="288" y="696"/>
			<point x="242" y="696" type="curve" smooth="yes"/>
			<point x="182" y="696"/>
			<point x="112" y="620"/>
			<point x="112" y="526" type="curve" smooth="yes"/>
			<point x="112" y="440"/>
			<point x="154" y="380"/>
		</contour>
	</outline>
</glyph>
<glyph name="guilsinglright" format="2">
	<unicode hex="203A"/>
	<advance width="280"/>
	<outline>
		<contour>
			<point x="76" y="54" type="line"/>
			<point x="228" y="190" type="line"/>
			<point x="248" y="302" type="line"/>
			<point x="144" y="448" type="line"/>
			<point x="82" y="408" type="line"/>
			<point x="158" y="256" type="line"/>
			<point x="28" y="106" type="line"/>
		</contour>
	</outline>
</glyph>
<glyph name="interrobang" format="2">
	<unicode hex="203D"/>
	<advance width="472"/>
	<outline>
		<contour>
			<point x="274" y="234" type="line"/>
			<point x="280" y="322"/>
			<point x="492" y="362"/>
			<point x="492" y="530" type="curve" smooth="yes"/>
			<point x="492" y="625"/>
			<point x="408" y="682"/>
			<point x="294" y="682" type="curve" smooth="yes"/>
			<point x="222" y="682"/>
			<point x="142" y="654"/>
			<point x="82" y="596" type="curve"/>
			<point x="154" y="510" type="line"/>
			<point x="194" y="544"/>
			<point x="228" y="564"/>
			<point x="272" y="564" type="curve" smooth="yes"/>
			<point x="312" y="564"/>
			<point x="342" y="540"/>
			<point x="342" y="500" type="curve" smooth="yes"/>
			<point x="342" y="440"/>
			<point x="314" y="420"/>
			<point x="262" y="352" type="curve"/>
			<point x="272" y="346" type="line"/>
			<point x="296" y="436" type="line"/>
			<point x="308" y="500" type="line"/>
			<point x="186" y="500" type="line"/>
			<point x="164" y="244" type="line"/>
		</contour>
		<contour>
			<point x="168" y="-12" type="curve" smooth="yes"/>
			<point x="234" y="-12"/>
			<point x="278" y="44"/>
			<point x="278" y="100" type="curve" smooth="yes"/>
			<point x="278" y="148"/>
			<point x="246" y="184"/>
			<point x="198" y="184" type="curve" smooth="yes"/>
			<point x="132" y="184"/>
			<point x="88" y="126"/>
			<point x="88" y="72" type="curve" smooth="yes"/>
			<point x="88" y="22"/>
			<point x="120" y="-12"/>
		</contour>
	</outline>
</glyph>
<glyph name="schwa.sups" format="1">
	<unicode hex="2094"/>
	<advance width="336"/>
	<outline>
		<contour>
			<point x="189" y="360" type="curve" smooth="yes"/>
			<point x="279" y="360"/>
			<point x="378" y="442"/>
			<point x="378" y="563" type="curve" smooth="yes"/>
			<point x="378" y="659"/>
			<point x="325" y="707"/>
			<point x="248" y="707" type="curve" smooth="yes"/>
			<point x="209" y="707"/>
			<point x="169" y="696"/>
			<point x="128" y="676" type="curve"/>
			<point x="160" y="607" type="line"/>
			<point x="184" y="618"/>
			<point x="197" y="625"/>
			<point x="216" y="625" type="curve" smooth="yes"/>
			<point x="249" y="625"/>
			<point x="272" y="611"/>
			<point x="274" y="563" type="curve"/>
			<point x="95" y="563" type="line"/>
			<point x="90" y="554"/>
			<point x="77" y="520"/>
			<point x="77" y="486" type="curve" smooth="yes"/>
			<point x="77" y="417"/>
			<point x="107" y="360"/>
		</contour>
		<contour>
			<point x="266" y="498" type="line"/>
			<point x="252" y="457"/>
			<point x="227" y="443"/>
			<point x="202" y="443" type="curve" smooth="yes"/>
			<point x="175" y="443"/>
			<point x="166" y="459"/>
			<point x="166" y="481" type="curve" smooth="yes"/>
			<point x="166" y="488"/>
			<point x="168" y="489"/>
			<point x="169" y="498" type="curve"/>
		</contour>
	</outline>
</glyph>
<glyph name="naira" format="2">
	<unicode hex="20A6"/>
	<advance width="520"/>
	<outline>
		<contour>
			<point x="16" y="0" type="line"/>
			<point x="134" y="0" type="line"/>
			<point x="178" y="228" type="line"/>
			<point x="202" y="516" type="line"/>
			<point x="206" y="516" type="line"/>
			<point x="228" y="234" type="line"/>
			<point x="252" y="0" type="line"/>
			<point x="398" y="0" type="line"/>
			<point x="524" y="634" type="line"/>
			<point x="406" y="634" type="line"/>
			<point x="362" y="404" type="line"/>
			<point x="338" y="118" type="line"/>
			<point x="334" y="118" type="line"/>
			<point x="312" y="400" type="line"/>
			<point x="290" y="634" type="line"/>
			<point x="142" y="634" type="line"/>
		</contour>
		<contour>
			<point x="20" y="342" type="line"/>
			<point x="532" y="342" type="line"/>
			<point x="546" y="404" type="line"/>
			<point x="100" y="404" type="line"/>
			<point x="30" y="398" type="line"/>
		</contour>
		<contour>
			<point x="-2" y="232" type="line"/>
			<point x="512" y="232" type="line"/>
			<point x="524" y="294" type="line"/>
			<point x="78" y="294" type="line"/>
			<point x="10" y="288" type="line"/>
		</contour>
	</outline>
</glyph>
<glyph name="peseta" format="2">
	<unicode hex="20A7"/>
	<advance width="520"/>
	<outline>
		<contour>
			<point x="6" y="0" type="line"/>
			<point x="156" y="0" type="line"/>
			<point x="198" y="208" type="line"/>
			<point x="228" y="208" type="line" smooth="yes"/>
			<point x="362" y="208"/>
			<point x="496" y="288"/>
			<point x="496" y="468" type="curve" smooth="yes"/>
			<point x="496" y="588"/>
			<point x="416" y="634"/>
			<point x="312" y="634" type="curve" smooth="yes"/>
			<point x="134" y="634" type="line"/>
		</contour>
		<contour>
			<point x="218" y="306" type="line"/>
			<point x="264" y="534" type="line"/>
			<point x="286" y="534" type="line" smooth="yes"/>
			<point x="326" y="534"/>
			<point x="348" y="508"/>
			<point x="348" y="456" type="curve" smooth="yes"/>
			<point x="348" y="368"/>
			<point x="308" y="306"/>
			<point x="240" y="306" type="curve" smooth="yes"/>
		</contour>
		<contour>
			<point x="22" y="364" type="line"/>
			<point x="530" y="364" type="line"/>
			<point x="552" y="478" type="line"/>
			<point x="118" y="478" type="line"/>
			<point x="44" y="472" type="line"/>
		</contour>
	</outline>
</glyph>
<glyph name="dong" format="1">
	<unicode hex="20AB"/>
	<advance width="520"/>
	<outline>
		<contour>
			<point x="190" y="116" type="curve" smooth="yes"/>
			<point x="228" y="116"/>
			<point x="268" y="134"/>
			<point x="298" y="162" type="curve"/>
			<point x="300" y="162" type="line"/>
			<point x="302" y="126" type="line"/>
			<point x="410" y="126" type="line"/>
			<point x="520" y="674" type="line"/>
			<point x="390" y="674" type="line"/>
			<point x="358" y="510" type="line"/>
			<point x="348" y="448" type="line"/>
			<point x="328" y="472"/>
			<point x="308" y="484"/>
			<point x="266" y="484" type="curve" smooth="yes"/>
			<point x="180" y="484"/>
			<point x="66" y="402"/>
			<point x="66" y="258" type="curve" smooth="yes"/>
			<point x="66" y="168"/>
			<point x="112" y="116"/>
		</contour>
		<contour>
			<point x="244" y="222" type="curve" smooth="yes"/>
			<point x="218" y="222"/>
			<point x="202" y="240"/>
			<point x="202" y="278" type="curve" smooth="yes"/>
			<point x="202" y="346"/>
			<point x="246" y="378"/>
			<point x="278" y="378" type="curve" smooth="yes"/>
			<point x="298" y="378"/>
			<point x="312" y="370"/>
			<point x="326" y="354" type="curve"/>
			<point x="306" y="254" type="line"/>
			<point x="284" y="230"/>
			<point x="266" y="222"/>
		</contour>
		<contour>
			<point x="226" y="544" type="line"/>
			<point x="493" y="544" type="line"/>
			<point x="564" y="550" type="line"/>
			<point x="578" y="624" type="line"/>
			<point x="242" y="624" type="line"/>
		</contour>
		<contour>
			<point x="24" y="0" type="line"/>
			<point x="418" y="0" type="line"/>
			<point x="434" y="78" type="line"/>
			<point x="40" y="78" type="line"/>
		</contour>
	</outline>
</glyph>
